<svg width="83" height="75" viewBox="0 0 83 75" fill="none" xmlns="http://www.w3.org/2000/svg">
<g clip-path="url(#clip0_17_1272)">
<path d="M42.0162 74.2031C42.0097 74.2208 42.0032 74.2326 42.0097 74.2503C41.4911 74.2503 40.9724 74.2503 40.4538 74.2503C40.4603 74.2326 40.4603 74.2149 40.4473 74.2031C40.9724 74.2031 41.4911 74.2031 42.0162 74.2031Z" fill="#C0C2C2"/>
<path d="M41.2318 73.7668C39.6175 73.7548 37.8023 73.5037 36 73.1152C32.765 72.4158 29.6985 71.2741 26.684 70.0128C25.1929 69.3911 23.7212 68.7336 22.2366 68.0999C20.1102 67.1853 17.9968 66.2409 15.7536 65.5773C14.7682 65.2844 13.7569 65.0633 12.7066 65.0752C12.1815 65.0812 11.6759 65.1529 11.1961 65.3502C11.0794 65.398 10.9757 65.4398 10.8979 65.2964C10.094 63.8976 9.40681 62.4689 9.47812 60.837C9.49757 60.4485 9.59481 60.0719 9.84765 59.7431C10.0616 59.4682 10.3144 59.3187 10.7099 59.2769C13.4846 58.966 16.013 59.6594 18.4506 60.7892C20.389 61.6859 22.1588 62.8396 23.9676 63.9275C25.5818 64.8959 27.2091 65.8404 28.94 66.6294C31.2739 67.6934 33.7115 68.4526 36.2853 68.8411C38.4441 69.1639 40.6224 69.2416 42.8071 69.1281C44.4797 69.0384 46.1394 68.8411 47.7666 68.4885C49.6078 68.0939 51.3841 67.5201 53.1021 66.7848C55.4943 65.7626 57.6921 64.4416 59.9028 63.1325C61.6856 62.0804 63.4814 61.0403 65.4716 60.3289C66.9173 59.8089 68.4084 59.4861 69.9643 59.4144C70.6904 59.3785 71.41 59.4144 72.1361 59.4323C72.3436 59.4383 72.5057 59.51 72.6548 59.6355C73.4781 60.3469 73.4781 61.2077 73.1993 62.1163C72.9271 63.0129 72.4603 63.8319 72.0389 64.6687C71.9546 64.8361 71.987 65.0931 71.7925 65.1649C71.611 65.2306 71.4036 65.0872 71.2091 65.0453C69.9319 64.8002 68.6937 65.0214 67.4749 65.3382C65.1021 65.9599 62.9044 66.9761 60.6872 67.9505C58.1912 69.0504 55.7212 70.1981 53.1604 71.1724C50.9109 72.0332 48.6159 72.7864 46.2237 73.2527C44.6613 73.5695 43.0794 73.7668 41.2318 73.7668ZM25.9838 66.7729C25.8282 66.3246 25.4587 66.1153 24.9854 66.0556C24.6288 66.0077 24.3241 66.1153 24.1297 66.4082C23.8963 66.7669 23.8574 67.1375 24.1297 67.4902C24.3955 67.8369 24.7715 68.0162 25.2382 67.9684C25.6078 67.9325 25.8671 67.7353 25.9708 67.3886C26.1135 67.1913 26.1005 66.9821 25.9838 66.7729ZM40.8687 70.7361C40.8039 71.035 40.953 71.3518 40.778 71.6447C40.5122 71.3159 40.1297 71.0828 39.9611 70.6823C39.9028 70.5448 39.6434 70.6225 39.4814 70.6225C39.3063 70.6285 39.4165 70.76 39.4165 70.8317C39.3906 71.298 39.4036 71.7702 39.3452 72.2305C39.3193 72.4337 39.4165 72.4278 39.5462 72.4158C39.6564 72.4098 39.8379 72.5114 39.812 72.2544C39.7796 71.9495 39.8055 71.6387 39.8055 71.2561C40.1621 71.6327 40.4733 71.9256 40.7326 72.2484C40.9206 72.4756 41.0438 72.5354 41.3549 72.3919C41.3225 72.0631 41.4068 71.7284 41.329 71.4056C41.2966 71.1665 41.2642 70.9274 41.4133 70.6703C41.2058 70.6942 41.0243 70.5866 40.8687 70.7361ZM56.6224 67.3168C56.4084 67.1554 56.1297 67.0478 55.9935 66.8267C55.9028 66.6832 55.8379 66.7011 55.7212 66.7609C55.6175 66.8147 55.5138 66.8685 55.4165 66.9223C55.3582 66.9522 55.3063 66.9761 55.3647 67.0538C55.6758 67.4842 55.8509 67.9744 56.0648 68.4466C56.1556 68.6558 56.2917 68.5124 56.3306 68.4765C56.389 68.4287 56.6094 68.4526 56.4733 68.2434C56.3306 68.0282 56.1815 67.7951 56.1426 67.4603C56.4149 67.6456 56.6418 67.7891 56.8493 67.9505C57.0373 68.0939 57.0956 68.0461 57.1151 67.8369C57.1345 67.544 57.1734 67.2571 57.2188 66.8924C57.4003 67.1794 57.5235 67.4065 57.5948 67.6516C57.6078 67.7054 57.5948 67.7951 57.6791 67.7891C57.8347 67.7831 57.9514 67.6815 58.081 67.6157C58.1523 67.5799 58.081 67.5201 58.0551 67.4663C57.8476 67.0777 57.6207 66.6892 57.4652 66.2827C57.3744 66.0376 57.316 65.936 57.0502 66.1034C56.94 66.1691 56.7196 66.1273 56.8298 66.3485C56.8233 66.6115 56.8104 66.8805 56.8104 67.1435C56.7909 67.263 56.7844 67.3647 56.6224 67.3168ZM26.8784 66.8745C26.7812 67.3467 26.5802 67.7771 26.3793 68.1956C26.2431 68.4825 26.2431 68.626 26.5932 68.6977C26.6256 68.7037 26.6515 68.7096 26.6969 68.7156C26.7099 68.3749 26.8979 68.1059 27.0535 67.7293C27.1248 68.1717 27.1767 68.5243 27.235 68.889C27.5851 68.7694 27.7536 68.4287 28.1686 68.3271C28.0648 68.5961 28.0065 68.8172 27.8963 69.0085C27.7277 69.2895 28.0259 69.2357 28.1297 69.3074C28.2723 69.409 28.3112 69.3134 28.3566 69.1878C28.4927 68.7933 28.6483 68.4048 28.8039 68.0162C28.94 67.6755 28.9335 67.6516 28.5251 67.532C28.4668 67.5141 28.376 67.4185 28.3501 67.544C28.3047 67.7472 28.1037 67.813 27.9676 67.9266C27.8509 68.0282 27.7342 68.2255 27.5592 68.1477C27.41 68.082 27.4943 67.8787 27.4749 67.7353C27.436 67.3647 27.5267 66.9343 26.9238 66.8745C26.9173 66.8745 26.9044 66.8745 26.8784 66.8745ZM10.4376 62.2956C10.4376 62.9711 10.9044 63.4314 11.5851 63.4254C12.376 63.4194 12.9141 62.9472 12.9141 62.2717C12.9141 61.6261 12.4862 61.2077 11.8314 61.2017C10.872 61.2017 10.4376 61.5424 10.4376 62.2956ZM70.7293 62.5287C70.5737 62.1342 70.2301 61.931 70.1977 61.5663C70.1912 61.5065 70.1459 61.4767 70.0875 61.4826C69.9254 61.4946 69.7634 61.5125 69.6078 61.5364C69.517 61.5484 69.5365 61.5902 69.5494 61.662C69.6207 62.1641 69.6791 62.6602 69.7374 63.1624C69.7439 63.246 69.6532 63.3955 69.8606 63.3297C69.9708 63.2939 70.2237 63.4074 70.1588 63.1145C70.107 62.8575 70.107 62.5945 70.0875 62.3016C70.295 62.4331 70.3468 62.6303 70.4765 62.7678C70.5932 62.8874 70.6062 63.1504 70.8006 63.1265C70.9627 63.1026 70.9562 62.8455 71.0535 62.7081C71.1507 62.5646 71.1313 62.3434 71.3776 62.2537C71.3322 62.5108 71.4554 62.726 71.4489 62.9531C71.4489 63.0069 71.3582 63.1086 71.4814 63.1205C71.6175 63.1325 71.7666 63.1265 71.8963 63.0966C72.013 63.0727 71.9222 62.983 71.9157 62.9233C71.8639 62.463 71.812 61.9967 71.7472 61.5364C71.7407 61.4707 71.8639 61.3033 71.7018 61.3392C71.5267 61.381 71.2415 61.2734 71.1767 61.4826C71.0729 61.8293 70.9109 62.1342 70.7293 62.5287ZM65.1993 64.4476C65.0308 64.334 64.8882 64.2324 64.7391 64.1427C64.564 64.0351 64.4603 63.9514 64.6677 63.7661C64.8687 63.5808 64.8104 63.3357 64.6677 63.1325C64.5381 62.9472 64.3306 62.9053 64.0972 62.983C63.7083 63.1145 63.3128 63.246 62.9238 63.3776C62.8006 63.4194 62.846 63.4553 62.8784 63.5449C63.0729 64.053 63.248 64.5731 63.4295 65.0872C63.9287 64.9557 63.9222 65.0154 63.7277 64.5611C63.7147 64.5312 63.6953 64.5073 63.6888 64.4774C63.6823 64.3938 63.6045 64.2802 63.7147 64.2383C63.8185 64.1965 63.9416 64.0829 64.0713 64.1845C64.2399 64.322 64.4668 64.3997 64.564 64.591C64.6094 64.6807 64.6548 64.6986 64.7261 64.6568C64.8622 64.5731 65.0567 64.585 65.1993 64.4476ZM21.9968 65.4638C22.269 65.936 22.4311 66.3604 22.5219 66.7968C22.5673 67.0239 22.7877 66.9881 22.9238 67.0718C23.0016 67.1196 23.0405 67.0419 23.06 66.9642C23.1702 66.474 23.4489 66.0436 23.6434 65.5833C23.6629 65.5355 23.7731 65.4996 23.6823 65.4458C23.5656 65.3801 23.436 65.3323 23.2998 65.3024C23.2091 65.2844 23.235 65.3801 23.2156 65.4279C23.1118 65.6969 23.0016 65.9599 22.8655 66.2947C22.671 65.8404 22.4376 65.4697 22.4117 65.0453C22.3922 64.7584 22.1459 64.7763 21.9903 64.7106C21.7763 64.6209 21.8412 64.854 21.7958 64.9377C21.5624 65.3741 21.4846 65.8643 21.1605 66.2648C21.4846 66.4501 21.6272 66.4262 21.7115 66.1213C21.7763 65.9061 21.9643 65.7686 21.9968 65.4638ZM42.1329 71.6088C42.1394 71.6088 42.1523 71.6088 42.1588 71.6088C42.1588 71.83 42.1718 72.0452 42.1524 72.2664C42.1394 72.4098 42.1653 72.4696 42.3339 72.4576C42.684 72.4337 43.034 72.4756 43.3906 72.3919C43.8963 72.2723 44.1232 71.9914 44.0908 71.4175C44.0713 70.9513 43.7666 70.6524 43.2739 70.6285C42.9757 70.6165 42.671 70.6584 42.3728 70.6524C42.1653 70.6464 42.0746 70.6643 42.1264 70.9034C42.1718 71.1186 42.1329 71.3697 42.1329 71.6088ZM15.812 62.5227C15.8574 62.3613 15.9935 62.2358 15.9222 62.1043C15.8833 62.0326 15.7147 62.0983 15.6045 62.0684C15.222 61.9608 14.8395 61.8772 14.457 61.7815C14.3144 61.7457 14.2755 61.7696 14.2431 61.919C14.1459 62.3733 14.0292 62.8276 13.8801 63.2759C13.8217 63.4493 13.8606 63.4672 14.0227 63.521C14.5154 63.6764 15.0405 63.7243 15.5332 63.9454C15.5656 63.796 15.5916 63.6525 15.624 63.5031C15.2609 63.5031 14.9433 63.3716 14.6062 63.3118C14.4441 63.2819 14.3728 63.2042 14.4182 63.0368C14.47 62.8396 14.6191 62.8814 14.7488 62.9113C14.9238 62.9531 15.0989 63.0249 15.2739 63.0846C15.3647 62.8396 15.4295 62.6244 15.0146 62.6423C14.9044 62.6483 14.7942 62.5825 14.684 62.5467C14.5608 62.5108 14.5932 62.4271 14.6191 62.3494C14.6451 62.2836 14.6451 62.1581 14.7682 62.2C15.0924 62.3195 15.4619 62.3434 15.812 62.5227ZM19.7925 63.784C19.2739 63.784 18.872 64.1786 18.872 64.6926C18.872 65.2247 19.4165 65.6969 20.0389 65.7088C20.5446 65.7148 20.9854 65.2964 20.9854 64.8002C20.9919 64.2503 20.4473 63.79 19.7925 63.784ZM50.4959 69.7258C50.4182 70.2758 50.9498 70.6344 51.3647 70.6464C51.9741 70.6584 52.5575 70.1622 52.551 69.6422C52.551 69.1042 52.1491 68.7037 51.611 68.7037C50.9757 68.7037 50.4895 69.146 50.4959 69.7258ZM62.5737 65.0573C62.2561 65.2785 61.8995 65.392 61.5624 65.5415C61.3938 65.6192 61.3614 65.4877 61.3031 65.404C61.2188 65.2904 61.2771 65.2187 61.3938 65.1709C61.53 65.1111 61.6596 65.0274 61.8023 65.0035C62.0032 64.9676 62.0292 64.9078 61.9514 64.7345C61.8606 64.5372 61.7699 64.6209 61.6532 64.6926C61.5559 64.7524 61.4392 64.7823 61.329 64.8301C61.2188 64.8839 61.1345 64.9437 61.0502 64.7823C60.9724 64.6269 61.0243 64.5671 61.1669 64.5193C61.4457 64.4177 61.6856 64.2324 61.9838 64.1905C62.1005 64.1726 62.107 64.1248 62.081 64.053C62.0421 63.9514 61.9903 63.8558 61.9449 63.7661C61.7893 63.8438 61.6532 63.9215 61.5105 63.9873C61.1734 64.1427 60.8363 64.2921 60.4992 64.4476C60.4408 64.4774 60.3436 64.4774 60.4084 64.5791C60.7131 65.0633 60.9011 65.5893 61.1216 66.1213C61.6337 65.9001 62.1329 65.6849 62.6451 65.4757C62.7423 65.4339 62.7488 65.3861 62.7099 65.3143C62.6775 65.2306 62.6256 65.1529 62.5737 65.0573ZM67.8379 63.7661C67.9481 63.7541 68.0648 63.7422 68.1815 63.7183C68.7196 63.6167 68.9076 63.3536 68.8557 62.8515C68.8233 62.5227 68.6872 62.2119 68.7002 61.8772C68.7066 61.7875 68.6742 61.7277 68.577 61.7755C68.4538 61.8293 68.175 61.7994 68.2269 61.8831C68.3955 62.188 68.3177 62.5227 68.4538 62.8216C68.5381 63.001 68.4149 63.264 68.1945 63.3417C67.8963 63.4553 67.611 63.3716 67.5527 63.1444C67.4749 62.8336 67.3712 62.5227 67.3776 62.2119C67.3776 61.9549 67.235 62.0445 67.1248 62.0565C67.0016 62.0684 66.8201 62.0326 66.8849 62.2597C66.9692 62.5586 67.0211 62.8635 67.0664 63.1683C67.1248 63.6167 67.3582 63.7781 67.8379 63.7661ZM37.8023 72.1647C38.3533 72.1647 38.5608 72.0512 38.6191 71.6507C38.6645 71.304 38.7293 70.9632 38.7942 70.6225C38.8331 70.4193 38.6451 70.4731 38.5413 70.4491C38.457 70.4312 38.3468 70.3894 38.3468 70.5747C38.3468 70.8676 38.282 71.1665 38.2301 71.4594C38.1783 71.7403 37.9514 71.8838 37.6791 71.836C37.3614 71.7762 37.2318 71.6028 37.2771 71.298C37.3096 71.0648 37.3549 70.8257 37.3809 70.5926C37.3874 70.497 37.5494 70.3953 37.4327 70.3176C37.342 70.2519 37.1864 70.2519 37.0632 70.222C36.9854 70.2041 36.9335 70.228 36.9465 70.3117C36.9919 70.6823 36.8169 71.035 36.8104 71.4056C36.8039 71.8479 36.9141 71.9914 37.3938 72.1289C37.53 72.1647 37.6596 72.1647 37.8023 72.1647ZM59.9741 65.4817C59.9676 65.0633 59.6823 64.878 59.235 65.0453C58.872 65.1828 58.5284 65.3741 58.1718 65.5295C58.0616 65.5773 58.0681 65.6192 58.1264 65.7088C58.4117 66.1273 58.5932 66.5935 58.7942 67.0478C58.8525 67.1734 58.8914 67.2332 58.9951 67.1315C59.0859 67.0478 59.3906 67.1196 59.235 66.8386C58.9562 66.3186 58.8395 66.4082 59.4878 66.0914C59.5462 66.0615 59.5981 66.0316 59.6564 66.0018C59.8768 65.8942 59.987 65.7208 59.9741 65.4817ZM17.9968 64.2025C17.906 64.2383 17.8217 64.2802 17.731 64.2981C17.4133 64.3698 16.9724 64.1547 16.8622 63.8737C16.7455 63.5868 16.8428 63.3238 17.1151 63.1803C17.4133 63.0249 17.906 63.1743 18.1135 63.5031C18.1848 63.6107 18.2107 63.7063 18.3533 63.5927C18.4506 63.515 18.5932 63.4433 18.4117 63.3058C18.282 63.2042 18.1848 63.0667 18.0551 62.9711C17.5429 62.5825 16.8363 62.6363 16.5251 63.1086C16.3047 63.4433 16.3047 63.8319 16.5186 64.1547C16.778 64.5432 17.2188 64.7046 17.7115 64.6568C18.1588 64.6149 18.1524 64.597 17.9968 64.2025ZM46.8006 71.9316C46.5024 71.3757 45.9319 70.9812 45.7569 70.3595C45.7439 70.3117 45.6921 70.3117 45.6532 70.3176C45.5041 70.3356 45.3485 70.3415 45.2123 70.3894C45.0567 70.4432 45.2447 70.5627 45.1864 70.6464C45.1669 70.6823 45.1605 70.7181 45.1475 70.76C44.9984 71.2561 44.8557 71.7583 44.7066 72.2604C45.1086 72.2126 45.1086 72.2126 45.2123 71.8957C45.2447 71.8061 45.2836 71.7403 45.4068 71.7284C45.5235 71.7224 45.6402 71.6985 45.7569 71.6626C46.0032 71.5849 46.1588 71.6507 46.1848 71.9017C46.1912 71.9854 46.2042 72.0332 46.3144 72.0033C46.47 71.9675 46.6451 72.0093 46.8006 71.9316ZM32.2399 70.8018C32.1686 70.3953 32.0972 70.0008 32.0259 69.6123C31.9935 69.4389 31.9157 69.2417 31.9676 69.0862C32.0259 68.889 31.9287 68.8531 31.7861 68.7993C31.5981 68.7276 31.4036 68.62 31.3647 68.9368C31.3647 68.9547 31.3193 68.9727 31.2934 68.9906C30.9303 69.3851 30.5737 69.7796 30.1588 70.1503C30.2366 70.1802 30.2885 70.1921 30.3339 70.216C30.5219 70.2997 30.6969 70.3953 30.7812 70.1024C30.8136 69.9889 30.9433 69.9231 31.0924 70.0068C31.1702 70.0486 31.2739 70.0546 31.3647 70.0845C31.5981 70.1622 31.7861 70.2638 31.6629 70.5388C31.624 70.6165 31.6499 70.6524 31.7277 70.6643C31.9092 70.7002 32.0454 70.8138 32.2399 70.8018ZM36.4344 70.2041C36.4603 70.0965 36.4603 70.0606 36.3112 70.0367C35.8768 69.9709 35.4554 69.8633 35.0276 69.7557C34.859 69.7139 34.7877 69.696 34.7488 69.9171C34.6775 70.3834 34.5413 70.8437 34.4246 71.3099C34.4117 71.3637 34.3404 71.4295 34.4311 71.4594C34.5673 71.5072 34.7164 71.549 34.8655 71.555C34.9692 71.561 34.8914 71.4653 34.8979 71.4175C34.9498 70.8855 35.1183 70.7839 35.6499 70.9991C35.812 71.0648 35.8574 71.0409 35.8833 70.8975C35.9092 70.754 35.9741 70.6225 35.7018 70.6464C35.5721 70.6584 35.436 70.5747 35.2998 70.5627C35.1248 70.5388 35.1378 70.4372 35.1507 70.3236C35.1637 70.1742 35.2674 70.1801 35.3776 70.2041C35.6305 70.2579 35.8898 70.2877 36.1232 70.3894C36.376 70.491 36.4408 70.4193 36.4344 70.2041ZM46.8979 70.0666C46.8784 70.3774 46.9562 70.5388 47.3193 70.3475C47.5916 70.2041 47.6629 70.4193 47.6888 70.5926C47.7407 70.9154 47.8833 71.2262 47.8574 71.561C47.8444 71.7284 47.987 71.7403 48.0583 71.6746C48.1556 71.5849 48.4473 71.7284 48.3695 71.4534C48.2917 71.1665 48.2139 70.8736 48.1361 70.5866C48.0389 70.21 48.1102 70.0905 48.5316 70.0785C48.7391 70.0725 48.7391 70.0068 48.6807 69.8693C48.6483 69.7976 48.6224 69.7199 48.6029 69.6661C48.0454 69.8574 47.4749 69.959 46.8979 70.0666ZM29.53 69.8872C29.6985 69.427 29.8347 68.9667 30.0421 68.5363C30.1718 68.2673 30.1264 68.1537 29.8282 68.076C29.718 68.0461 29.6791 68.0162 29.6402 68.1597C29.5105 68.608 29.3744 69.0563 29.1734 69.4748C29.0502 69.7318 29.1345 69.7916 29.3679 69.8334C29.4263 69.8514 29.4846 69.8753 29.53 69.8872ZM65.9384 62.3733C65.8347 62.3972 65.7309 62.4152 65.6272 62.4391C65.4522 62.4749 65.4133 62.5227 65.4846 62.7081C65.6467 63.1444 65.7504 63.6047 65.8736 64.053C65.8865 64.1068 65.8412 64.1845 65.9384 64.1965C66.1005 64.2204 66.2301 64.1367 66.3663 64.0829C66.457 64.0471 66.3598 63.9873 66.3468 63.9395C66.2107 63.4254 65.9773 62.9292 65.9384 62.3733ZM50.1394 71.1007C49.906 70.5268 49.7893 69.947 49.6143 69.3732C49.4976 69.4031 49.3679 69.4389 49.2318 69.4808C49.1799 69.4987 49.0762 69.5286 49.141 69.5884C49.2966 69.7378 49.2707 69.941 49.329 70.1144C49.4522 70.485 49.6078 70.8496 49.6596 71.2501C49.8217 71.2023 49.9838 71.1485 50.1394 71.1007ZM54.1588 67.5679C54.4311 68.0461 54.6515 68.5243 54.8525 69.0205C54.872 69.0743 54.8655 69.1759 54.9368 69.158C55.0794 69.1221 55.2156 69.0563 55.3387 68.9786C55.423 68.9248 55.3193 68.889 55.2934 68.8411C55.0924 68.4347 54.872 68.0401 54.7228 67.6157C54.6256 67.3288 54.5024 67.3587 54.3015 67.4782C54.2626 67.5081 54.2172 67.532 54.1588 67.5679Z" fill="#F9E90A"/>
<path d="M80.7715 68.8651C80.1685 69.0265 79.5786 69.1759 78.9886 69.3373C78.295 69.5226 77.6078 69.7139 76.9141 69.8873C75.6694 70.1981 74.4052 70.4073 73.1151 70.3416C72.3501 70.3057 71.9676 69.7916 71.7277 69.2118C71.3776 68.3689 71.4165 67.4962 71.6564 66.6294C71.6888 66.5099 71.7147 66.4142 71.9092 66.4501C74.2431 66.9462 76.4084 66.4441 78.4894 65.4697C79.6304 64.9318 80.6807 64.2742 81.7245 63.5987C81.8022 63.5509 81.8541 63.4612 81.9903 63.521C81.8736 63.8199 81.7374 64.1068 81.5689 64.3878C80.9984 65.3203 80.3954 66.2349 79.6175 67.0359C79.423 67.2391 79.2155 67.4244 78.9497 67.544C78.7488 67.6337 78.8201 67.6994 78.9303 67.7951C79.423 68.2075 79.9935 68.5004 80.5964 68.7455C80.6483 68.7634 80.7261 68.7634 80.7715 68.8651Z" fill="#F9E90A"/>
<path d="M0.842773 63.2102C1.99026 64.0172 3.08589 64.7345 4.27875 65.3203C5.76984 66.0556 7.32576 66.5756 9.03078 66.6294C9.65963 66.6474 10.282 66.6235 10.8979 66.4919C11.1442 66.4382 11.248 66.486 11.3063 66.743C11.4619 67.4245 11.5138 68.094 11.2869 68.7754C11.034 69.5346 10.1783 70.1264 9.329 70.1324C7.70177 70.1503 6.13289 69.8634 4.58994 69.433C3.7666 69.2058 2.93029 69.0086 2.06157 68.7814C2.31441 68.5901 2.59966 68.5303 2.84602 68.4048C3.23499 68.2075 3.61101 68.0043 3.94812 67.7293C4.02592 67.6636 4.14261 67.5978 3.96757 67.5082C3.39059 67.2152 3.03402 66.7251 2.66449 66.2469C1.99026 65.3622 1.41328 64.4177 0.933535 63.4314C0.907603 63.3836 0.894637 63.3417 0.842773 63.2102Z" fill="#F9E90A"/>
<path d="M41.5364 15.4008C45.2317 15.4008 48.927 15.4067 52.6223 15.3948C52.9011 15.3948 52.9789 15.4785 53.0372 15.7116C53.3484 17.0028 54.282 17.7918 55.5656 18.27C56.8363 18.7483 58.1718 18.8857 59.5267 18.9037C59.8444 18.9096 59.9092 18.9874 59.9092 19.2683C59.8898 23.5543 59.9092 27.8343 59.8768 32.1203C59.8573 34.601 59.7925 37.0818 59.6175 39.5565C59.436 42.1269 59.1961 44.6914 58.6061 47.2199C58.1458 49.1866 57.504 51.0815 56.3889 52.827C55.3257 54.4947 53.906 55.8457 52.188 56.9456C49.8606 58.434 47.2609 59.3964 44.6094 60.2513C43.6693 60.5501 42.7228 60.8251 41.7828 61.1061C41.6531 61.1419 41.5364 61.1479 41.4068 61.112C38.5802 60.2692 35.786 59.3606 33.1669 58.0515C31.2804 57.113 29.5689 55.9653 28.1815 54.435C26.8071 52.9226 25.8865 51.1951 25.2382 49.33C24.4862 47.1601 24.0843 44.9245 23.8249 42.6649C23.6693 41.32 23.5462 39.969 23.4684 38.618C23.2804 35.6053 23.222 32.5866 23.1766 29.5738C23.1248 26.1068 23.1442 22.6397 23.1183 19.1727C23.1183 18.9336 23.2155 18.9037 23.436 18.8977C24.5705 18.8798 25.6985 18.814 26.8006 18.5091C28.3565 18.0788 29.4975 17.2419 29.9513 15.7475C30.0291 15.4964 30.1458 15.4306 30.4181 15.4306C34.1264 15.4366 37.8282 15.4366 41.5364 15.4366C41.5364 15.4187 41.5364 15.4067 41.5364 15.4008ZM27.812 52.9764C27.812 53.0123 27.8314 53.0362 27.8768 53.0362V53.0302C27.9546 53.2992 28.1296 53.4965 28.376 53.6459C28.4019 53.7356 28.564 53.7236 28.5445 53.8432C28.5186 53.9328 28.564 53.9747 28.6548 53.9866V53.9807C28.6548 54.0225 28.6742 54.0464 28.7196 54.0464V54.0404C28.7455 54.2257 28.8752 54.3334 29.0502 54.3991L29.0437 54.3931C29.1086 54.5665 29.2771 54.6561 29.4133 54.7757C29.718 54.9491 29.9513 55.1941 30.1847 55.4392C30.3922 55.5648 30.5219 55.7919 30.7941 55.8278H30.7877C30.8006 56.0011 31.0016 55.9533 31.0924 56.031C31.1183 56.0669 31.1442 56.1027 31.1701 56.1386C31.222 56.2044 31.2804 56.2582 31.3776 56.2522V56.2641C31.4748 56.3956 31.598 56.4853 31.7731 56.5032H31.7666C31.786 56.5272 31.812 56.5511 31.8314 56.575C31.8768 56.6228 31.9416 56.6168 32 56.6049H31.9935C32.0065 56.6228 32.0194 56.6407 32.0389 56.6587C32.2074 56.8918 32.4667 56.9874 32.7455 57.0472H32.739C32.8103 57.2206 33.0113 57.2385 33.1539 57.3282C33.1993 57.3282 33.2512 57.3282 33.2966 57.3282C33.303 57.3401 33.316 57.3521 33.329 57.364C33.3549 57.5015 33.504 57.5075 33.6013 57.5733C33.7569 57.6809 33.9773 57.6689 34.1199 57.8004C34.256 57.8482 34.3727 57.9379 34.5283 57.9498C34.7877 58.189 35.1248 58.2726 35.4684 58.3623H35.4619C35.5202 58.4579 35.624 58.4699 35.7212 58.5058C35.7795 58.5237 35.8379 58.5416 35.9027 58.5536C36.2593 58.7329 36.6094 58.9182 37.0243 58.9601C37.0956 59.0796 37.2253 59.0796 37.3549 59.0796H37.3484C37.3873 59.1693 37.4651 59.1812 37.5559 59.1573C37.7828 59.2769 38.0227 59.3606 38.282 59.4084C38.5348 59.6176 38.8654 59.6296 39.1637 59.7312C39.2026 59.7372 39.2479 59.7431 39.2868 59.7491C39.3452 59.8089 39.423 59.8089 39.4943 59.7969H39.4878C39.5008 59.8866 39.5915 59.8866 39.6564 59.9045C40.2398 60.0839 40.8298 60.2512 41.4133 60.4246C41.517 60.4784 41.6077 60.3828 41.705 60.4007C41.7504 60.4605 41.7893 60.4366 41.8282 60.3887H41.8217C42.4505 60.2692 43.0599 60.0958 43.6499 59.8627C43.7018 59.8507 43.7601 59.8388 43.812 59.8328C44.3889 59.6475 44.9789 59.516 45.53 59.2649C45.7115 59.247 45.8476 59.1394 46.0032 59.0677C46.5996 58.984 47.1313 58.7389 47.6629 58.4878C47.7018 58.4639 47.7471 58.44 47.786 58.4161C48.0842 58.3563 48.3889 58.2965 48.6094 58.0754C48.6742 58.0634 48.739 58.0515 48.8039 58.0395C48.9854 57.9498 49.1928 57.896 49.3549 57.7645H49.3484C49.705 57.645 50.0551 57.5314 50.3144 57.2505C50.5089 57.2325 50.6256 57.0771 50.7877 56.9994C51.1183 56.844 51.4619 56.6945 51.7471 56.4793C52.0713 56.2402 52.4084 56.0191 52.7261 55.7799C53.128 55.4751 53.5105 55.1583 53.9254 54.8713C54.2949 54.6143 54.5024 54.2138 54.8071 53.897C55.7277 52.9465 56.3241 51.8167 56.8946 50.675C57.1086 50.3522 57.2447 49.9995 57.3225 49.6289C57.2966 49.4376 57.4651 49.2942 57.4975 49.1208C57.7698 48.6008 57.9124 48.0508 57.9708 47.477C57.906 47.2139 58.1718 47.0227 58.1718 46.7716C58.3792 46.0961 58.483 45.3967 58.5867 44.7033C58.9238 42.4497 59.1313 40.1782 59.2285 37.9067C59.2998 36.2748 59.3257 34.6429 59.3711 33.011C59.3711 32.9871 59.3711 32.9632 59.3711 32.9393C59.4295 28.6592 59.3841 24.3792 59.4035 20.0992C59.4035 19.4178 59.4035 19.4177 58.658 19.4596C58.4959 19.4118 58.3403 19.5373 58.1783 19.4835C57.9449 19.3161 57.6531 19.3938 57.3938 19.358C56.6288 19.2623 55.8898 19.0591 55.1442 18.8977H55.1507C55.1183 18.826 55.0535 18.8319 54.9821 18.8379H54.9886C54.8784 18.7064 54.7423 18.6466 54.5672 18.6825C54.256 18.4135 53.8022 18.3179 53.5689 17.9652C53.4327 17.7081 53.2771 17.469 53.0437 17.2837V17.2897C52.9789 16.9669 52.7909 16.68 52.765 16.3452C52.7455 16.142 52.6483 16.0822 52.4084 16.0822C45.4522 16.0942 38.5024 16.0942 31.5591 16.0942C31.222 16.0942 30.8914 16.0942 30.5543 16.0942C30.4441 16.0942 30.3274 16.0882 30.3079 16.2257C30.2625 16.5126 30.094 16.7637 30.081 17.0566V17.0506C29.9967 17.0745 29.9838 17.1403 29.9708 17.206C29.9124 17.5288 29.6402 17.7201 29.4327 17.9472C29.1864 18.0728 28.9919 18.2581 28.7974 18.4374C28.7585 18.4793 28.7196 18.5211 28.6742 18.5629C28.6548 18.5749 28.6353 18.5869 28.6159 18.5928C28.3954 18.6048 28.2723 18.7961 28.0648 18.8379C28 18.82 27.9416 18.814 27.9351 18.8977H27.9416C27.8703 18.9096 27.7925 18.9037 27.7212 18.9276C26.5348 19.3102 25.3095 19.4177 24.0713 19.4297C23.6499 19.4357 23.6499 19.4297 23.6499 19.8302C23.6564 24.0265 23.6304 28.2229 23.7277 32.4192C23.7342 32.8197 23.7407 33.2142 23.7471 33.6147C23.7666 34.1228 23.786 34.625 23.799 35.1331C23.8249 35.8803 23.8444 36.6215 23.8768 37.3627C23.8833 37.5241 23.8833 37.6975 23.9805 37.8469C23.987 37.9067 24 37.9605 24.0065 38.0203C23.9676 38.1757 23.9222 38.3251 23.9416 38.4865C24.0065 39.2158 24.0454 39.9511 24.1231 40.6803C24.175 41.1944 24.1815 41.7085 24.3112 42.2106C24.3501 42.2883 24.389 42.3601 24.376 42.4497C24.2658 42.5872 24.3371 42.7426 24.3565 42.8801C24.4797 43.7708 24.5834 44.6674 24.7779 45.5521C24.9984 46.5385 25.1669 47.5367 25.5494 48.4932L25.5429 48.4872C25.5818 48.7741 25.705 49.0371 25.8087 49.3061C25.9189 49.599 25.9643 49.9158 26.1912 50.1669V50.1609C26.2107 50.2207 26.1394 50.3343 26.2949 50.3104C26.3079 50.3522 26.3209 50.3941 26.3338 50.4359C26.4311 50.8962 26.658 51.2967 26.9432 51.6793C26.9627 51.6972 26.9821 51.7151 27.0016 51.739L27.0146 51.745L27.021 51.739C27.0859 51.8108 27.0794 51.9243 27.1896 51.9662C27.1442 52.026 27.1313 52.0857 27.1831 52.1575C27.3193 52.3547 27.423 52.5759 27.611 52.7433C27.6564 52.8031 27.7018 52.8569 27.7471 52.9166C27.7601 52.9525 27.7731 52.9764 27.812 52.9764Z" fill="#C0C2C2"/>
<path d="M15.8509 11.8859C15.8768 11.9156 15.9028 11.9454 15.8639 11.9752C15.8509 11.9871 15.8185 11.9692 15.7925 11.9633C15.812 11.9395 15.8314 11.9156 15.8509 11.8859Z" fill="#FDFDFD"/>
<path d="M74.5802 55.5767C74.5867 55.6006 74.5932 55.6245 74.5997 55.6485C74.5737 55.6485 74.5478 55.6425 74.5154 55.6425C74.5348 55.6245 74.5543 55.6006 74.5802 55.5767Z" fill="#FDFDFD"/>
<path d="M74.1459 54.2966C74.1394 54.279 74.1264 54.2554 74.1199 54.2377C74.1459 54.2436 74.1653 54.2436 74.1912 54.2495C74.1783 54.2672 74.1653 54.2849 74.1459 54.2966Z" fill="#FDFDFD"/>
<path d="M56.8169 66.3605C56.8817 66.6653 56.8298 66.9702 56.8298 67.2691C56.8298 67.4962 56.7131 67.3886 56.6224 67.3169C56.7909 67.3587 56.7909 67.2631 56.7974 67.1555C56.7974 66.8925 56.8104 66.6295 56.8169 66.3605Z" fill="#C0C2C2"/>
<path d="M40.8687 70.7361C40.9595 71.0529 40.9076 71.3757 40.8817 71.6865C40.8687 71.8061 40.8104 71.6686 40.778 71.6387C40.953 71.3518 40.8104 71.035 40.8687 70.7361Z" fill="#C0C2C2"/>
<path d="M25.9644 67.3946C25.9708 67.1853 26.0616 66.9821 25.9838 66.7729C26.1005 66.9821 26.1135 67.1913 25.9644 67.3946Z" fill="#C0C2C2"/>
<path d="M41.3485 72.3919C41.2447 72.0631 41.3225 71.7344 41.3225 71.4056C41.4003 71.7344 41.316 72.0631 41.3485 72.3919Z" fill="#C0C2C2"/>
<path d="M33.2901 57.3222C33.2448 57.3222 33.1929 57.3222 33.1475 57.3222C33.0632 57.1608 32.9141 57.0831 32.7326 57.0413H32.7391C32.5187 56.8858 32.2853 56.7543 32.0324 56.6527C32.0195 56.6348 32.0065 56.6168 31.9871 56.5989H31.9935C31.9352 56.6109 31.8704 56.6168 31.825 56.569C31.825 56.5272 31.8055 56.5033 31.7602 56.4973H31.7666C31.6694 56.3718 31.5397 56.2941 31.3712 56.2582L31.3777 56.2642C31.3128 56.2223 31.2999 56.0968 31.1702 56.1506C31.1443 56.1147 31.1183 56.0789 31.0924 56.049C31.0146 55.9533 30.9303 55.8577 30.7877 55.8457H30.7942C30.5802 55.7262 30.483 55.4572 30.1848 55.4572C29.9514 55.2121 29.718 54.967 29.4133 54.7937C29.3744 54.5964 29.1994 54.5127 29.0438 54.4111L29.0503 54.4171C28.966 54.2736 28.8493 54.16 28.7196 54.0584V54.0644C28.7002 54.0405 28.6743 54.0225 28.6548 53.9986V54.0046C28.6354 53.9448 28.6548 53.8552 28.5446 53.8611C28.5576 53.7416 28.402 53.7476 28.376 53.6639C28.2075 53.4606 28.0454 53.2514 27.8768 53.0482V53.0541C27.8574 53.0302 27.8315 53.0123 27.812 52.9884L27.8185 52.9944C27.799 52.9764 27.7731 52.9585 27.7537 52.9406C27.7083 52.8808 27.6629 52.827 27.6175 52.7672C27.5916 52.4564 27.3128 52.2591 27.1961 51.9901C27.0859 51.9483 27.0924 51.8287 27.0276 51.763H27.0016C26.9822 51.745 26.9627 51.7271 26.9433 51.7092C26.7942 51.2728 26.5478 50.8723 26.3339 50.4658C26.3209 50.424 26.308 50.3821 26.295 50.3403C26.2885 50.2745 26.2496 50.2207 26.1913 50.1908V50.1968C26.1005 49.7784 25.9125 49.3898 25.7634 48.9893C25.705 48.8279 25.7115 48.6307 25.5365 48.5171L25.543 48.5231C25.5559 48.015 25.342 47.5487 25.2123 47.0765C24.9465 46.1141 24.8169 45.1337 24.6224 44.1594C24.5122 43.6034 24.5316 43.0296 24.3696 42.4856C24.389 42.396 24.3501 42.3242 24.3047 42.2465C24.4149 42.1628 24.3501 42.0612 24.3436 41.9715C24.3177 41.7324 24.2723 41.4993 24.2529 41.2662C24.1686 40.1962 24.0908 39.1321 24.0065 38.0621C24 38.0024 23.9871 37.9486 23.9806 37.8888C23.9352 36.5259 23.8898 35.1689 23.8444 33.806C23.8444 33.7403 23.8574 33.6566 23.7407 33.6566C23.7342 33.2561 23.7277 32.8616 23.7213 32.4611C23.825 32.3594 23.7796 32.2339 23.7796 32.1203C23.7601 29.8907 23.7342 27.661 23.7277 25.4313C23.7213 23.5663 23.7342 21.7072 23.7213 19.8422C23.7213 19.6091 23.7926 19.5433 24.0454 19.5433C24.8169 19.5493 25.5948 19.5612 26.3533 19.3998C26.8914 19.2863 27.4555 19.2205 27.9417 18.9455H27.9352C27.9935 18.9455 28.0454 18.9396 28.0649 18.8858C28.2723 18.8439 28.3955 18.6526 28.6159 18.6407C28.6613 18.6706 28.6613 18.6287 28.6743 18.6108C28.7131 18.5689 28.752 18.5271 28.7909 18.4852C29.0956 18.4195 29.2512 18.1983 29.4263 17.9951C29.6337 17.7679 29.906 17.5766 29.9644 17.2538C30.0811 17.2479 30.0746 17.1702 30.0746 17.0984V17.1044C30.2496 16.949 30.2561 16.7338 30.3274 16.5365C30.4117 16.3154 30.5219 16.2018 30.8201 16.2018C33.8671 16.2137 36.9076 16.2078 39.9546 16.2078C44.0454 16.2078 48.1362 16.2078 52.2269 16.1958C52.4992 16.1958 52.6224 16.2496 52.6678 16.5246C52.7196 16.8055 52.7845 17.1164 53.0243 17.3375V17.3316C53.141 17.6006 53.2966 17.8397 53.5495 18.013C53.7828 18.3717 54.2431 18.4613 54.5478 18.7303C54.671 18.82 54.8201 18.8559 54.9692 18.8858H54.9627C55.0016 18.9455 55.0665 18.9515 55.1313 18.9455H55.1248C55.1572 18.9694 55.1832 19.0113 55.2156 19.0232C56.1751 19.3042 57.1281 19.5792 58.1524 19.5254C58.3144 19.5792 58.47 19.4477 58.6321 19.5015C58.6969 19.6688 58.859 19.5851 58.9563 19.5792C59.2221 19.5672 59.2999 19.6509 59.2999 19.902C59.2739 24.0804 59.3582 28.2647 59.248 32.4431C59.2221 33.4294 59.235 34.4098 59.1896 35.3961C59.1378 36.4601 59.1572 37.5241 59.047 38.5822C58.9822 39.1979 59.0341 39.8196 58.9563 40.4293C58.8201 41.4634 58.7877 42.5036 58.6192 43.5317C58.4895 44.3447 58.3922 45.1636 58.2496 45.9766C58.1978 46.2516 58.0486 46.5206 58.1459 46.8135C58.1459 47.0645 57.8801 47.2498 57.9449 47.5188C57.7893 47.6623 57.7958 47.8655 57.7634 48.0389C57.6921 48.4215 57.4781 48.7682 57.4717 49.1627C57.4328 49.336 57.2707 49.4795 57.2966 49.6708C57.0503 49.9816 56.9725 50.3522 56.8687 50.7169C56.2982 51.8586 55.7018 52.9884 54.7812 53.9388C54.4765 54.2557 54.2691 54.6562 53.8995 54.9132C53.4846 55.2001 53.0956 55.5229 52.7002 55.8218C52.3825 56.0669 52.0389 56.2821 51.7213 56.5212C51.436 56.7364 51.0924 56.8858 50.7618 57.0413C50.5997 57.119 50.483 57.2744 50.2885 57.2923C49.9644 57.4537 49.5948 57.5494 49.3225 57.8064H49.329C49.1021 57.8184 48.8947 57.8722 48.778 58.0814C48.7132 58.0933 48.6483 58.1053 48.5835 58.1172C48.2853 58.177 48.013 58.2966 47.7602 58.458C47.7213 58.4819 47.6759 58.5058 47.637 58.5297C47.0535 58.6552 46.5154 58.8824 45.9773 59.1095C45.8217 59.1813 45.6856 59.2948 45.5041 59.3068C45.4457 59.253 45.3874 59.2829 45.329 59.3008C44.9206 59.4323 44.5122 59.5638 44.1102 59.7013C44 59.7432 43.8185 59.6894 43.7926 59.8747C43.7407 59.8866 43.6824 59.8986 43.6305 59.9046C43.5916 59.8926 43.5462 59.8627 43.5138 59.8747C43.0989 59.9942 42.6775 60.1018 42.2755 60.2453C42.12 60.3051 41.8995 60.2513 41.8023 60.4366H41.8088C41.7699 60.4426 41.731 60.4426 41.6856 60.4485C41.5884 60.4366 41.4976 60.5262 41.3939 60.4724C41.3744 60.4426 41.3679 60.3828 41.342 60.3768C40.7132 60.2094 40.1102 59.9643 39.4684 59.8388H39.4749C39.4166 59.779 39.3582 59.7133 39.2674 59.791C39.2285 59.785 39.1832 59.779 39.1443 59.7731C38.9044 59.5399 38.5802 59.516 38.2626 59.4503C38.0033 59.4024 37.7634 59.3188 37.5365 59.1992C37.5041 59.0976 37.4068 59.1334 37.329 59.1215H37.3355C37.2707 58.978 37.1281 59.0199 37.0049 59.0019C36.6548 58.8107 36.2918 58.6493 35.8833 58.5955C35.825 58.5775 35.7666 58.5596 35.7018 58.5476C35.6694 58.4221 35.5592 58.4101 35.4425 58.4042H35.449C35.1637 58.2129 34.8461 58.0874 34.5089 57.9917C34.3533 57.9857 34.2367 57.8901 34.1005 57.8423C33.9125 57.5852 33.5819 57.5374 33.3096 57.3999C33.3161 57.3461 33.3031 57.3342 33.2901 57.3222ZM49.6467 22.9028C49.4457 23.0044 49.2448 23.106 49.0438 23.2016C48.9854 23.2734 49.0049 23.3571 49.0049 23.4348C49.0049 25.9215 49.0049 28.4082 49.0114 30.9009C49.0114 30.9905 48.9854 31.0802 49.0632 31.1579C48.8428 31.4628 48.7261 31.8214 48.4538 32.0964C48.4409 31.9769 48.4214 31.8633 48.4214 31.7437C48.4214 30.8889 48.4214 30.0341 48.4214 29.1793C48.4214 28.5815 48.4084 27.9898 48.402 27.392C48.4149 27.2366 48.2853 27.2784 48.201 27.2784C47.9093 27.2724 47.6175 27.2665 47.3258 27.2844C46.9238 27.3023 46.5154 27.2246 46.1135 27.3262C45.9773 27.3621 45.8542 27.4099 45.7504 27.5056C45.5235 27.5474 45.4263 27.649 45.4328 27.8881C45.4457 30.859 45.4392 33.8299 45.4392 36.8068C45.4392 36.9025 45.4198 37.0041 45.4068 37.0997C45.2123 36.9981 45.0179 36.9324 44.8817 37.1774C44.8752 37.0758 44.8623 36.9802 44.8623 36.8786C44.8623 34.6369 44.8623 32.3953 44.8623 30.1597C44.8623 29.9624 44.8623 29.7591 44.8623 29.5619C44.8623 29.4722 44.8687 29.3766 44.7261 29.3766C44.0195 29.3766 43.3128 29.3766 42.6062 29.3766C42.6062 29.4065 42.6062 29.4304 42.6062 29.4603C43.2156 29.4603 43.825 29.4603 44.4409 29.4603C44.0843 29.6814 43.7018 29.6097 43.3323 29.6037C42.9822 29.5977 42.6256 29.6755 42.282 29.5559C42.2367 29.5679 42.1848 29.5858 42.1394 29.5977C41.8606 29.6157 41.906 29.807 41.906 29.9684C41.906 33.4832 41.906 37.0041 41.8995 40.519C41.6791 40.6684 41.5624 40.9135 41.329 41.045C41.3225 40.9733 41.3161 40.9075 41.3161 40.8358C41.3161 37.6915 41.3096 34.5532 41.3161 31.409C41.3161 31.1639 41.2577 31.0443 40.979 31.1101C40.3307 31.1101 39.6759 31.1101 39.0276 31.1101C39.0276 31.134 39.0276 31.1639 39.0276 31.1878C39.6759 31.1878 40.3242 31.1878 40.9725 31.1878C41.2512 31.2117 41.2383 31.3851 41.2383 31.5823C41.2318 34.5353 41.2383 37.4883 41.2383 40.4413C41.2383 40.6804 41.2512 40.9195 41.2577 41.1586C41.1216 41.302 40.8947 41.4335 40.8687 41.5949C40.8363 41.7922 41.141 41.8819 41.2577 42.0492C41.2512 42.1688 41.2383 42.2884 41.2383 42.4019C41.2383 43.4839 41.2318 44.5659 41.2448 45.6478C41.2448 45.8511 41.1864 45.9467 40.9595 45.9108C40.8947 45.9049 40.8298 45.9108 40.765 45.9049C40.7585 45.7255 40.7456 45.5462 40.7391 45.3728C40.7196 44.5121 40.7715 43.6453 40.7132 42.7845C40.7132 42.7367 40.7132 42.6829 40.7132 42.6351C40.7196 42.5334 40.7391 42.4378 40.7391 42.3362C40.7391 38.8572 40.7456 35.3841 40.7391 31.9051C40.7391 31.8214 40.7974 31.7138 40.6678 31.66C40.6483 31.6541 40.6289 31.7019 40.6418 31.672C40.8428 31.3074 40.564 31.3193 40.3177 31.3133C39.8315 31.3074 39.3452 31.3193 38.859 31.3074C38.3858 31.2954 38.3858 31.2835 38.3858 31.7138C38.3858 35.7308 38.3858 39.7419 38.3858 43.7589C38.1524 43.8246 38.0227 44.0159 37.8217 44.1295C37.8153 44.0518 37.8088 43.9681 37.8088 43.8904C37.8088 40.0288 37.8088 36.1612 37.8088 32.2997C37.8088 32.0725 37.8023 31.8394 37.8088 31.6122C37.8088 31.5046 37.7764 31.4449 37.6467 31.4449C36.9595 31.4508 36.2723 31.4329 35.5851 31.4568C35.1313 31.4747 34.8914 31.672 34.8914 31.941C34.8914 36.5797 34.8914 41.2243 34.8914 45.863C34.8914 46.2575 34.9238 46.658 34.8655 47.0526C34.7358 47.0107 34.7034 46.8852 34.6256 46.8015C34.5478 46.7118 34.5025 46.5923 34.3339 46.6401C34.3274 46.5325 34.3209 46.4189 34.3209 46.3113C34.3209 42.8861 34.3209 39.4669 34.3209 36.0417C34.3209 35.97 34.3209 35.9042 34.3209 35.8325C34.3209 35.7308 34.2755 35.689 34.1653 35.689C33.4652 35.689 32.765 35.689 32.0649 35.689C32.59 35.7548 33.1151 35.7607 33.6467 35.7548C33.8542 35.7548 34.0292 35.8683 34.2107 35.9221C34.3209 35.952 34.2496 36.1971 34.2496 36.3406C34.2561 39.6761 34.2496 43.0057 34.2561 46.3412C34.2561 46.4608 34.2691 46.5803 34.282 46.6939C34.1264 46.8194 33.9708 46.945 33.7634 47.0047C33.7569 46.12 33.7504 45.2353 33.7504 44.3447C33.7504 41.5651 33.7504 38.7854 33.7634 36.0118C33.7634 35.8145 33.6597 35.8564 33.5559 35.8564C33.0373 35.8564 32.5187 35.8803 32 35.8504C31.3906 35.8205 31.3906 35.7966 31.3906 36.3585C31.3906 39.975 31.3906 43.5915 31.3906 47.202C31.3906 47.3275 31.436 47.465 31.3128 47.5726C31.0081 47.5487 30.8396 47.746 30.6516 47.9133C30.5025 47.9253 30.4571 48.009 30.5025 48.1345C30.4895 48.4693 30.2302 48.7323 30.2042 49.0611C30.0486 49.0431 29.9449 49.1388 29.8217 49.1926C29.4846 49.3301 29.1799 49.5453 28.8104 49.617C28.6743 49.3958 28.7909 49.1687 28.7909 48.9415C28.7715 40.1185 28.8234 31.3014 28.765 22.4783C28.765 22.4006 28.7585 22.3289 28.8558 22.3169C29.0438 22.2871 28.979 22.1735 28.9271 22.0958C28.765 21.8507 28.59 21.6176 28.4214 21.3784C28.3825 21.3426 28.3371 21.3127 28.3112 21.2768C28.2658 21.1931 28.2853 21.0557 28.1362 21.0676C28.013 21.0796 27.9741 21.1931 27.9157 21.2888C27.7602 21.5518 27.6046 21.8208 27.3906 22.0599C27.3388 22.1197 27.3063 22.2153 27.4295 22.2631C27.5332 22.3947 27.4943 22.5501 27.4943 22.6995C27.4943 32.1084 27.4943 41.5232 27.4943 50.9321C27.4943 51.5836 27.4166 51.476 28.0649 51.476C36.9076 51.476 45.7569 51.476 54.5997 51.476C54.7358 51.5717 54.8785 51.5896 55.0276 51.488C55.1248 51.4222 55.235 51.3625 55.3452 51.3027C55.6175 51.3565 55.7472 51.0875 55.9871 51.0576C56.0778 51.0457 56.1102 50.9859 56.1297 50.9201C56.1556 50.8245 56.0519 50.8125 55.9935 50.7826C55.6888 50.6212 55.3841 50.4479 55.0665 50.2984C54.9109 50.2267 54.7229 49.9876 54.5673 50.3164C54.5543 50.3463 54.4247 50.3343 54.3533 50.3343C46.2107 50.3343 38.0681 50.3343 29.9255 50.3343C29.7439 50.3343 29.5624 50.3224 29.3744 50.3164C29.718 50.0593 30.1589 49.9458 30.5219 49.7246C30.5413 49.7306 30.5608 49.7306 30.5802 49.7365C34.2626 49.7365 37.9384 49.7365 41.6208 49.7365C45.3096 49.7365 49.0049 49.7246 52.6937 49.7246C52.9141 49.7246 53.1021 49.7066 53.1994 49.4974C53.3744 49.3839 53.4911 49.1985 53.6986 49.1089C53.9125 49.0192 53.919 48.8937 53.7893 48.7263C53.6856 48.5948 53.6337 48.4334 53.5365 48.2959C53.3744 48.0867 53.3614 47.7818 53.0697 47.6563C53.1605 47.471 52.9984 47.5248 52.9076 47.5128C52.6224 47.471 52.3307 47.5786 52.0584 47.4531C52.0584 47.3455 52.0649 47.2319 52.0649 47.1243C52.0649 40.6923 52.0649 34.2663 52.0713 27.8343C52.0713 27.3561 52.0389 26.8779 52.0973 26.4057C52.2269 26.4176 52.2529 26.3399 52.2853 26.2443C52.3631 25.9872 52.4603 25.7362 52.5381 25.4791C52.7196 24.8873 52.7196 24.8873 52.0713 24.72C52.0778 24.4569 52.0843 24.1939 52.0973 23.9309C52.3047 23.9847 52.5187 24.0266 52.7132 24.0923C52.8947 24.1581 52.966 24.0744 52.966 23.9429C52.966 23.7934 53.2123 23.5842 52.8947 23.4945C52.6937 23.4348 52.4603 23.375 52.2658 23.4109C52.0713 23.4467 52.2075 23.7038 52.0973 23.8293C52.0843 23.5782 52.0713 23.3331 52.0584 23.0821C52.1038 22.8908 52.0324 22.825 51.812 22.831C51.2869 22.843 50.7618 22.831 50.2367 22.837C50.0227 22.8549 49.8282 22.8011 49.6467 22.9028Z" fill="#66C3CF"/>
<path d="M59.3647 33.011C59.3582 32.9931 59.3517 32.9811 59.3452 32.9632C59.3452 32.9572 59.3582 32.9512 59.3647 32.9393C59.3647 32.9692 59.3647 32.9931 59.3647 33.011Z" fill="#66C3CF"/>
<path d="M11.6175 63.0189C11.2026 63.0189 10.8979 62.6902 10.9109 62.2538C10.9173 61.8413 11.2545 61.5425 11.6953 61.5484C12.1102 61.5544 12.4279 61.8832 12.4344 62.3016C12.4344 62.7141 12.0843 63.0189 11.6175 63.0189Z" fill="#F9E90A"/>
<path d="M64.3112 63.4912C64.3241 63.6227 64.2204 63.6765 64.1297 63.7183C63.9935 63.7781 63.8444 63.808 63.7083 63.8618C63.5656 63.9216 63.4878 63.8917 63.4425 63.7542C63.3971 63.6287 63.4165 63.539 63.5656 63.5031C63.7407 63.4553 63.9157 63.4015 64.0908 63.3597C64.2075 63.3238 64.2982 63.3597 64.3112 63.4912Z" fill="#F9E90A"/>
<path d="M43.3452 71.0171C43.6175 71.2382 43.7342 71.573 43.5851 71.8001C43.3647 72.1229 43.0081 72.111 42.6516 72.0632C42.6516 71.9257 42.6516 71.7882 42.6516 71.6507C42.6516 70.9991 42.6515 70.9991 43.3452 71.0171Z" fill="#F9E90A"/>
<path d="M43.3452 71.0171C42.6515 70.9991 42.6515 70.9991 42.6451 71.6507C42.6451 71.7882 42.6451 71.9257 42.6451 72.0631C42.5673 71.7463 42.6126 71.4235 42.5997 71.1067C42.5932 71.029 42.6256 70.9692 42.7229 70.9752C42.9303 70.9872 43.1442 70.9214 43.3452 71.0171Z" fill="#C0C2C2"/>
<path d="M20.5251 64.7405C20.5186 65.0513 20.2593 65.3203 19.9611 65.3203C19.611 65.3203 19.3258 65.0513 19.3323 64.7285C19.3387 64.4177 19.5981 64.1487 19.8963 64.1427C20.2139 64.1367 20.5316 64.4356 20.5251 64.7405Z" fill="#F9E90A"/>
<path d="M25.5883 66.9941C25.5883 67.3229 25.329 67.5978 25.0113 67.5919C24.6937 67.5919 24.389 67.3109 24.389 67.024C24.3825 66.7072 24.6613 66.4262 24.966 66.4262C25.2901 66.4322 25.5883 66.7012 25.5883 66.9941Z" fill="#F9E90A"/>
<path d="M51.436 70.2399C51.1378 70.234 50.9044 69.9769 50.9109 69.6482C50.9174 69.3373 51.1896 69.1042 51.5462 69.1042C51.8639 69.1042 52.1167 69.3612 52.1167 69.6661C52.1037 70.0008 51.8185 70.2459 51.436 70.2399Z" fill="#F9E90A"/>
<path d="M58.8979 66.0018C58.7618 66.0018 58.7488 65.924 58.7293 65.8583C58.7099 65.7925 58.6191 65.7148 58.7358 65.655C58.9109 65.5654 59.0924 65.4757 59.2739 65.404C59.3582 65.3681 59.4684 65.3621 59.5268 65.4578C59.5916 65.5654 59.5462 65.655 59.449 65.7148C59.2674 65.8224 59.0665 65.9181 58.8979 66.0018Z" fill="#F9E90A"/>
<path d="M45.8087 71.3637C45.6596 71.3697 45.4781 71.5132 45.4003 71.3936C45.316 71.2741 45.4327 71.0948 45.5365 70.9393C45.6531 71.0649 45.7634 71.1844 45.8087 71.3637Z" fill="#F9E90A"/>
<path d="M31.5397 69.3134C31.5721 69.5226 31.7018 69.69 31.5527 69.8335C31.5073 69.8753 31.2804 69.8394 31.248 69.7438C31.1637 69.5406 31.4036 69.4808 31.5397 69.3134Z" fill="#F9E90A"/>
<path d="M27.41 22.2631C27.2804 22.2153 27.3193 22.1196 27.3711 22.0599C27.5786 21.8207 27.7342 21.5577 27.8963 21.2887C27.9481 21.1991 27.9935 21.0795 28.1167 21.0676C28.2593 21.0556 28.2463 21.1931 28.2917 21.2768C28.3176 21.3186 28.363 21.3485 28.4019 21.3784C28.3695 21.5458 28.5251 21.6414 28.5899 21.7729C28.6483 21.8925 28.8233 22.0419 28.752 22.1316C28.5964 22.3289 28.6548 22.5321 28.6548 22.7353C28.6483 31.5106 28.6483 40.2798 28.6483 49.055C28.6483 49.4316 28.6548 49.8142 28.6418 50.1908C28.6353 50.3761 28.6872 50.4598 28.9141 50.4478C29.2253 50.4299 29.5429 50.4419 29.8541 50.4419C37.8541 50.4419 45.8606 50.4419 53.8606 50.4359C54.1653 50.4359 54.5024 50.5674 54.7747 50.3104C54.8006 50.2864 54.8979 50.3163 54.9562 50.3462C55.2285 50.4837 55.5008 50.6212 55.7666 50.7647C55.9546 50.8603 55.9805 50.9619 55.7601 51.0456C55.598 51.1054 55.4619 51.195 55.3387 51.2967C55.235 51.3564 55.1248 51.4102 55.0211 51.482C54.8719 51.5836 54.7358 51.5657 54.5932 51.47C54.4959 51.3445 54.3533 51.4102 54.2366 51.4102C45.517 51.4043 36.7974 51.4043 28.0778 51.4043C27.9157 51.4043 27.7601 51.3863 27.598 51.3804C27.6045 51.3505 27.6045 51.3206 27.6045 51.2907C27.6045 41.7563 27.6045 32.2219 27.598 22.6875C27.598 22.55 27.5851 22.4125 27.5786 22.2751C27.5267 22.2511 27.4749 22.2332 27.41 22.2631Z" fill="#F9E90A"/>
<path d="M49.0632 31.1579C48.9854 31.0802 49.0114 30.9906 49.0114 30.9009C49.0114 28.4142 49.0049 25.9275 49.0049 23.4348C49.0049 23.3571 48.9854 23.2734 49.0438 23.2016C49.1605 23.1957 49.2836 23.1897 49.4003 23.1777C50.0292 23.1777 50.658 23.1777 51.2804 23.1777C51.4295 23.5484 51.2934 23.9369 51.3647 24.3135C51.3582 25.1922 51.3452 26.065 51.3388 26.9437C51.2285 26.9198 51.1248 26.86 51.0665 27.0274C50.9238 27.4099 50.7488 27.7805 50.5932 28.1512C50.5608 28.2229 50.5284 28.3066 50.6451 28.3424C50.872 28.4202 51.0665 28.5756 51.3258 28.5636C51.3388 28.6712 51.3647 28.7788 51.3647 28.8864C51.3647 34.9239 51.3647 40.9673 51.3647 47.0047C51.3647 47.1542 51.3712 47.3036 51.3777 47.4531C51.3582 47.4949 51.3388 47.5368 51.3258 47.5786C50.3015 47.5786 49.2836 47.5786 48.2593 47.5786C48.2723 47.5427 48.2853 47.5069 48.2982 47.471C48.3177 47.465 48.3306 47.4591 48.3501 47.4591C48.376 47.471 48.402 47.483 48.4214 47.5009C48.966 47.5846 49.0114 47.5667 49.0114 47.2199C49.0114 42.4199 49.0049 37.6258 49.0049 32.8257C49.2512 32.4192 49.5041 32.0187 49.7504 31.6122C49.7828 31.5525 49.8541 31.4688 49.7634 31.4329C49.53 31.3432 49.355 31.1221 49.0632 31.1579ZM50.2755 29.0538C50.1524 29.0538 50.1329 29.1435 50.094 29.2092C49.9773 29.4423 49.8671 29.6755 49.7439 29.9086C49.4717 30.4227 49.4717 30.4167 50.0357 30.6737C50.1977 30.7455 50.2561 30.7156 50.3274 30.5781C50.5089 30.2075 50.7034 29.8488 50.8914 29.4782C50.9174 29.4304 50.9822 29.3586 50.9044 29.3228C50.6969 29.2271 50.4765 29.1375 50.2755 29.0538ZM49.8477 24.6662C49.8801 24.7439 49.705 24.977 50.0551 24.989C50.3404 25.0009 50.4376 24.9172 50.4182 24.6542C50.4117 24.5287 50.3209 24.3195 50.483 24.2776C50.7488 24.2059 50.6256 24.1342 50.5284 24.0325C50.4182 23.913 50.308 23.7934 50.2042 23.6679C50.1459 23.6022 50.1005 23.5782 50.0357 23.6679C49.906 23.8353 49.7699 23.9967 49.6337 24.1641C49.6078 24.1999 49.5754 24.2477 49.6402 24.2477C49.9319 24.2657 49.7958 24.4749 49.8477 24.6662Z" fill="#049646"/>
<path d="M48.2594 47.5906C49.2837 47.5906 50.3015 47.5906 51.3258 47.5906C51.5333 47.5965 51.7342 47.5906 51.9417 47.6025C52.3112 47.6264 52.6937 47.5368 53.0568 47.6683C53.3485 47.7938 53.3679 48.0987 53.53 48.3079C53.6337 48.4394 53.6856 48.6008 53.7828 48.7383C53.9125 48.9056 53.906 49.0312 53.6921 49.1208C53.4846 49.2045 53.3744 49.3898 53.1929 49.5094C53.0503 49.5213 52.966 49.5034 52.9336 49.336C52.8299 48.8758 52.7002 48.4155 52.577 47.9612C52.5835 47.9612 52.5965 47.9552 52.6029 47.9552C52.5965 47.9492 52.59 47.9432 52.5835 47.9313C52.577 47.9373 52.577 47.9492 52.5705 47.9552C52.3631 47.9552 52.1621 47.9552 51.9547 47.9612C50.3793 48.003 48.8039 47.8655 47.2286 47.9432C47.1961 47.9432 47.1443 47.8476 47.1378 47.9612C47.1378 48.003 47.1313 48.0449 47.1508 48.0747C47.1767 48.1106 47.2221 48.1106 47.261 48.0807C47.3452 48.009 47.4555 48.003 47.5657 48.003C49.1216 48.009 50.6775 48.009 52.2269 48.015C52.3825 48.015 52.4798 48.015 52.5381 48.2122C52.6354 48.5709 52.7391 48.9296 52.8493 49.2882C52.9401 49.5751 52.8169 49.6289 52.5446 49.6289C48.9725 49.6289 45.3939 49.6349 41.8217 49.6409C41.5948 49.6409 41.5235 49.5692 41.5884 49.3779C41.7115 49.0192 41.8412 48.6665 41.9514 48.3079C41.9968 48.1465 42.0876 48.1106 42.2561 48.1106C42.6645 48.1166 43.073 48.1106 43.4879 48.1106C42.5738 48.0867 41.6597 48.0867 40.7456 48.0867C38.6062 48.0867 36.4603 48.1106 34.3209 47.9552C34.1589 47.9432 33.9968 47.9432 33.8347 47.9373C34.0098 47.8177 34.1848 47.6981 34.3663 47.5846C34.5284 47.5846 34.684 47.5846 34.8461 47.5846C35.1313 47.5906 35.423 47.5965 35.7083 47.6025C35.825 47.6085 35.8833 47.5726 35.9158 47.471C36.0324 47.0825 36.1621 46.6999 36.2853 46.3173C36.3242 46.2874 36.3631 46.2516 36.402 46.2217C36.4344 46.1978 36.4668 46.1798 36.4992 46.1559H36.4927C36.6094 46.1679 36.6743 46.1081 36.7132 46.0184L36.7326 46.0065C36.8493 46.0124 36.966 46.0244 37.0892 46.0244C40.3047 46.0244 43.5203 46.0244 46.7359 46.0304C46.8396 46.0304 46.9692 45.9766 47.0665 46.1021C46.9044 46.2276 46.8007 46.3831 46.5349 46.3831C45.1734 46.3651 43.8185 46.3651 42.4571 46.3651C42.2431 46.3651 42.0357 46.395 41.8217 46.413C43.2804 46.4608 44.7391 46.4488 46.1913 46.4608C46.5543 46.4667 46.8979 46.4727 47.1313 46.1559C47.1702 46.1021 47.2415 46.0603 47.3323 46.0961C47.5008 46.3771 47.6694 46.6521 47.8444 46.933C47.825 47.0227 47.9611 47.0107 47.9676 47.0884C47.9547 47.2558 48.0843 47.459 47.825 47.5906C47.9676 47.5906 48.1167 47.5906 48.2594 47.5906Z" fill="#F9E90A"/>
<path d="M47.8444 46.939C47.6758 46.658 47.5073 46.3831 47.3322 46.1021C47.3322 45.9048 47.1767 45.9347 47.0405 45.9287C46.5089 45.9168 45.9708 45.9706 45.4392 45.8989C45.4392 43.5257 45.4392 41.1466 45.4392 38.7735C45.4392 38.4865 45.4716 38.1996 45.4133 37.9127C45.4198 37.8948 45.4198 37.8649 45.4327 37.8529C45.718 37.5959 45.7763 37.3388 45.4068 37.0997C45.4198 37.0041 45.4392 36.9025 45.4392 36.8068C45.4392 33.8359 45.4457 30.865 45.4327 27.8881C45.4327 27.649 45.5235 27.5474 45.7504 27.5056C45.8282 27.6072 45.9449 27.5773 46.0421 27.5773C46.6321 27.5833 47.222 27.5833 47.812 27.5892C47.8055 27.6909 47.7925 27.7865 47.7925 27.8881C47.7925 29.6456 47.7925 31.397 47.7925 33.1545C47.7861 33.268 47.7342 33.3577 47.6629 33.4533C47.4814 33.7104 47.3063 33.9674 47.1313 34.2245C47.0924 34.2902 47.0211 34.35 47.047 34.4397C47.0859 34.5532 47.6175 34.7864 47.7666 34.7684C47.7731 34.9358 47.7796 35.1032 47.7796 35.2765C47.7796 38.887 47.7861 42.4916 47.7731 46.1021C47.7861 46.3651 47.8768 46.6461 47.8444 46.939ZM47.1896 35.5336C47.1896 35.4499 47.1442 35.426 47.0989 35.4021C46.9627 35.3184 46.8201 35.2466 46.6969 35.151C46.5802 35.0673 46.5154 35.0852 46.4441 35.1928C46.2755 35.426 46.1005 35.6471 45.9254 35.8803C45.5624 36.3585 45.5624 36.3525 46.1005 36.6693C46.2431 36.753 46.3274 36.7291 46.4181 36.6096C46.6386 36.3047 46.8655 36.0058 47.0924 35.7009C47.1248 35.6412 47.1637 35.5754 47.1896 35.5336ZM46.6386 29.6217C46.8914 29.6695 46.9303 29.5439 46.9238 29.3527C46.9238 29.2092 46.846 28.982 46.9692 28.9282C47.2869 28.7967 47.047 28.7071 46.9692 28.6174C46.6061 28.199 46.6061 28.2049 46.2561 28.6652C46.2107 28.725 46.1005 28.8326 46.1653 28.8565C46.4635 28.9701 46.3209 29.2092 46.3274 29.3766C46.3339 29.5977 46.4246 29.6515 46.6386 29.6217Z" fill="#049646"/>
<path d="M41.8866 40.5129C41.8866 36.9981 41.8866 33.4772 41.893 29.9624C41.893 29.801 41.8412 29.6037 42.1264 29.5917C42.2042 29.6874 42.3209 29.6575 42.4246 29.6575C42.9044 29.6575 43.3841 29.6694 43.8639 29.6515C44.0843 29.6455 44.2269 29.6993 44.2723 29.9026C44.2788 30.0102 44.2853 30.1237 44.2853 30.2313C44.2853 32.3415 44.2853 34.4516 44.2853 36.5617C44.2853 36.9981 44.2982 37.4404 44.3047 37.8768C44.188 38.0501 43.9741 38.2355 44.3436 38.3729C44.2917 38.4028 44.2853 38.4507 44.2853 38.5045C44.2853 38.9767 44.2853 39.4489 44.2853 39.9212C44.2853 41.6965 44.2853 43.4659 44.2853 45.2413C44.2853 45.4625 44.3955 45.6896 44.2528 45.8988C43.4619 45.9467 42.6775 45.9287 41.8866 45.9108C41.893 45.2054 41.8995 44.5001 41.893 43.7887C41.8866 43.1013 41.9255 42.4139 41.8736 41.7324C41.8736 41.6427 41.9449 41.5949 42.0033 41.5351C42.5543 40.9792 42.5543 40.9792 41.8866 40.5129ZM42.7877 30.8769C42.7877 30.9845 42.7812 31.0981 42.7877 31.2057C42.7877 31.6241 42.8396 31.654 43.2999 31.5345C43.3063 31.5285 43.3128 31.5225 43.3193 31.5106C43.4814 31.2954 43.1443 30.9248 43.5851 30.7992C43.5721 30.7634 43.5657 30.7275 43.5462 30.6916C43.2221 30.1297 43.1183 30.1178 42.7099 30.6199C42.7034 30.6259 42.6969 30.6378 42.6905 30.6438C42.4765 30.8112 42.5997 30.853 42.7877 30.8769ZM43.5527 38.7436C43.5008 38.8093 43.4619 38.8571 43.423 38.899C43.235 39.1022 43.047 39.3055 42.8655 39.5087C42.4765 39.9451 42.483 39.9391 42.9368 40.3157C43.0729 40.4293 43.1378 40.3994 43.2415 40.2858C43.4879 40.0108 43.7472 39.7478 43.9806 39.4669C44.0389 39.3951 44.2334 39.3353 44.1232 39.2158C43.9611 39.0544 43.7601 38.9229 43.5527 38.7436Z" fill="#049646"/>
<path d="M36.2852 46.3173C36.1621 46.6999 36.0324 47.0884 35.9157 47.471C35.8833 47.5786 35.8185 47.6085 35.7082 47.6025C35.423 47.5906 35.1313 47.5906 34.846 47.5846C34.8849 47.4889 34.8784 47.3933 34.859 47.2977C34.8525 47.2199 34.8525 47.1422 34.846 47.0645C34.9044 46.67 34.8719 46.2695 34.8719 45.875C34.8719 41.2363 34.8719 36.5916 34.8719 31.953C34.8719 31.684 35.1118 31.4867 35.5656 31.4688C36.2528 31.4389 36.94 31.4568 37.6272 31.4568C37.7569 31.4568 37.7893 31.5166 37.7893 31.6242C37.7828 31.8513 37.7893 32.0845 37.7893 32.3116C37.7893 36.1732 37.7893 40.0408 37.7893 43.9023C37.7893 43.98 37.8022 44.0637 37.8022 44.1414C37.7828 44.1653 37.7569 44.1893 37.7374 44.2132C37.7309 44.1116 37.718 44.0159 37.718 43.9143C37.718 39.9212 37.718 35.9281 37.718 31.941C37.718 31.5525 37.6856 31.5345 37.3225 31.7019C37.1604 31.7736 37.2317 31.8872 37.2317 31.9828C37.2253 36.1911 37.2253 40.4054 37.2253 44.6137C37.0178 44.7332 37.2188 44.8408 37.2382 44.9484C37.2382 45.2652 37.2382 45.588 37.2382 45.9049C37.1086 45.8989 36.9789 45.8989 36.8493 45.8929C36.94 45.8212 36.8946 45.7554 36.8363 45.6897C36.7326 45.5761 36.6288 45.4625 36.5446 45.337C36.4668 45.2234 36.4084 45.2174 36.2982 45.3011C36.0324 45.5043 35.7536 45.6897 35.4813 45.8809C35.0664 46.1798 35.034 46.0423 35.3711 46.4907C35.5332 46.7118 35.6629 46.7955 35.8963 46.5624C36 46.4727 36.1556 46.401 36.2852 46.3173ZM35.5851 33.1545C35.5851 33.1963 35.5851 33.2262 35.5851 33.2561C35.5591 33.4713 35.6369 33.5729 35.9027 33.5789C36.188 33.5849 36.1815 33.4474 36.175 33.268C36.175 33.1425 36.1102 32.9393 36.2139 32.9094C36.5705 32.8018 36.3047 32.7061 36.2334 32.6045C36.1556 32.4969 36.0713 32.3953 35.9805 32.2997C35.9481 32.2698 35.8963 32.1861 35.8638 32.2279C35.7018 32.4073 35.5527 32.5985 35.3971 32.7898C35.3841 32.8018 35.41 32.8616 35.423 32.8616C35.6758 32.8735 35.5721 33.0469 35.5851 33.1545ZM35.3193 31.6421C35.987 31.6063 36.6742 31.8035 37.3225 31.5345C36.6548 31.5883 35.974 31.4329 35.3193 31.6421Z" fill="#049646"/>
<path d="M40.7001 42.7905C40.7585 43.6512 40.7066 44.512 40.7261 45.3788C40.7326 45.5581 40.739 45.7375 40.752 45.9108C39.9546 45.9407 39.1572 45.9407 38.3663 45.9108C38.3728 45.5163 38.3792 45.1277 38.3857 44.7332C38.9433 44.3028 38.9433 44.3028 38.4117 43.8186C38.3987 43.8067 38.3857 43.7887 38.3728 43.7708C38.3728 39.7538 38.3728 35.7428 38.3728 31.7258C38.3728 31.2954 38.3728 31.3073 38.846 31.3193C39.3322 31.3313 39.8185 31.3193 40.3047 31.3253C40.551 31.3253 40.8298 31.3193 40.6288 31.6839C40.6159 31.7138 40.6353 31.66 40.6548 31.672C40.7844 31.7258 40.7261 31.8334 40.7261 31.9171C40.7261 35.3961 40.7261 38.8691 40.7261 42.3481C40.7261 42.4497 40.7066 42.5454 40.7001 42.647C40.5835 42.5454 40.4538 42.4497 40.3501 42.3362C40.2269 42.2046 40.1426 42.1807 40 42.3242C39.812 42.5155 39.5916 42.6769 39.3971 42.8562C38.9757 43.2328 38.9822 43.2328 39.3647 43.6393C39.5008 43.7828 39.5786 43.7708 39.7147 43.6453C40.0324 43.3464 40.3695 43.0714 40.7001 42.7905ZM39.5591 33.4653C39.7212 33.5011 39.8185 33.4653 39.8314 33.268C39.8444 33.0708 39.6758 32.8018 40.0324 32.6942C40.0454 32.6942 40.0518 32.6344 40.0324 32.6165C39.9027 32.4491 39.7666 32.2877 39.624 32.1263C39.5721 32.0725 39.5073 32.0844 39.4619 32.1442C39.3322 32.2996 39.2026 32.4551 39.0794 32.6165C39.06 32.6463 39.0275 32.7001 39.0859 32.7121C39.436 32.7898 39.2544 33.0528 39.2674 33.2262C39.2869 33.4115 39.3193 33.5071 39.5591 33.4653Z" fill="#049646"/>
<path d="M31.2869 47.5846C31.41 47.477 31.3647 47.3395 31.3647 47.214C31.3647 43.5975 31.3647 39.981 31.3647 36.3705C31.3647 35.8086 31.3647 35.8325 31.9741 35.8624C32.4927 35.8922 33.0113 35.8624 33.53 35.8683C33.6337 35.8683 33.7374 35.8325 33.7374 36.0238C33.7245 38.8034 33.7245 41.583 33.7245 44.3566C33.7245 45.2413 33.731 46.126 33.7374 47.0167C33.5624 47.1303 33.3938 47.2498 33.2123 47.3574C33.1021 47.4172 33.0502 47.483 33.1215 47.5965C32.5057 47.5906 31.8963 47.5846 31.2869 47.5846ZM32.4733 37.9067C32.7261 37.9665 32.778 37.8649 32.7974 37.6497C32.8104 37.4943 32.6029 37.2312 32.966 37.1715C33.0049 37.1655 33.0049 37.1296 32.9789 37.0997C32.8298 36.9204 32.6807 36.7411 32.5186 36.5737C32.4279 36.484 32.376 36.6155 32.363 36.6514C32.2723 36.8427 31.9157 37.0579 32.0324 37.1535C32.2399 37.3209 32.175 37.4823 32.188 37.6437C32.1945 37.835 32.2204 37.9665 32.4733 37.9067Z" fill="#049646"/>
<path d="M30.1848 49.073C30.2042 48.7442 30.4635 48.4753 30.4765 48.1465C30.5478 48.0747 30.6191 48.021 30.7488 48.0269C31.1766 48.0389 31.6045 48.0329 32.0324 48.0329C31.7083 48.2063 31.3906 48.3975 31.0535 48.553C30.9108 48.6187 30.9108 48.6904 30.9627 48.7801C31.047 48.9355 31.1572 49.073 31.2544 49.2225C31.3063 49.3062 31.3906 49.2882 31.4489 49.2583C31.7407 49.1089 32.0324 48.9654 32.3047 48.7921C32.7909 48.4872 32.7844 48.4753 32.4538 48.0269C32.765 47.9672 33.0956 48.0987 33.4003 47.9492C33.4846 48.0568 33.5689 48.1285 33.6985 47.997C34.4376 48.0688 35.1896 48.0449 35.9287 48.0927C37.3873 48.1823 38.859 48.1166 40.3306 48.1106C40.9854 48.1106 40.9984 48.1046 41.1799 48.6964C41.2771 49.0013 41.4133 49.3121 41.3679 49.6409C41.2707 49.6349 41.1734 49.6349 41.0762 49.6349C37.5624 49.6349 34.0486 49.6409 30.5348 49.6409C30.4117 49.4556 30.3533 49.2344 30.1848 49.073Z" fill="#F9E90A"/>
<path d="M52.0713 26.4176C52.013 26.8958 52.0518 27.3741 52.0454 27.8463C52.0389 34.2783 52.0454 40.7043 52.0389 47.1362C52.0389 47.2438 52.0324 47.3574 52.0324 47.465C51.987 47.465 51.9416 47.465 51.9027 47.465C51.9092 47.3096 51.9222 47.1482 51.9222 46.9928C51.9222 40.6206 51.9222 34.2484 51.9222 27.8702C51.9222 27.661 51.9092 27.4518 51.9027 27.2425C51.9287 27.1887 51.9157 27.1469 51.8574 27.117C51.9546 27.0154 51.9027 26.8899 51.9222 26.7763C51.9481 26.6388 51.8574 26.4774 52.0065 26.3578C52.0324 26.3818 52.0518 26.3997 52.0713 26.4176Z" fill="#049646"/>
<path d="M44.7391 37.3627C44.8039 37.3089 44.8622 37.2492 44.8752 37.1655C45.0113 36.9204 45.2058 36.9921 45.4003 37.0878C45.7698 37.3329 45.7115 37.5839 45.4263 37.841C45.4133 37.8529 45.4133 37.8768 45.4068 37.9007C45.1734 38.0681 45.0308 38.3132 44.8493 38.5224C44.8169 38.5344 44.7844 38.5523 44.752 38.5643C44.5446 38.6181 44.4927 38.3909 44.3306 38.367C43.9546 38.2235 44.175 38.0442 44.2917 37.8708C44.4862 37.7334 44.6094 37.5421 44.7391 37.3627Z" fill="#FDFDFD"/>
<path d="M40.7002 42.7905C40.3695 43.0714 40.0324 43.3524 39.7148 43.6453C39.5786 43.7708 39.5008 43.7828 39.3647 43.6393C38.9822 43.2328 38.9757 43.2328 39.3971 42.8562C39.5981 42.6769 39.8185 42.5155 40 42.3242C40.1426 42.1748 40.2334 42.2046 40.3501 42.3362C40.4538 42.4497 40.5835 42.5394 40.7002 42.647C40.7002 42.6888 40.7002 42.7367 40.7002 42.7905Z" fill="#FDFDFD"/>
<path d="M29.3614 50.3223C28.9335 50.3941 28.6288 50.0234 28.7844 49.6229C29.1539 49.5512 29.4586 49.336 29.7958 49.1985C29.9189 49.1507 30.0291 49.0491 30.1783 49.073C30.3468 49.2344 30.4052 49.4556 30.5283 49.6468C30.5218 49.6767 30.5154 49.7066 30.5089 49.7365C30.1458 49.9577 29.705 50.0653 29.3614 50.3223Z" fill="#FDFDFD"/>
<path d="M49.0632 31.1579C49.3549 31.122 49.53 31.3432 49.7634 31.4388C49.8541 31.4747 49.7893 31.5644 49.7504 31.6182C49.504 32.0246 49.2512 32.4252 49.0049 32.8316C48.8104 32.73 48.6159 32.6224 48.4214 32.5208C48.4084 32.5088 48.389 32.4909 48.376 32.473C48.3306 32.4192 48.376 32.3654 48.3695 32.3116C48.3955 32.2398 48.4214 32.1621 48.4473 32.0904C48.7326 31.8214 48.8428 31.4568 49.0632 31.1579Z" fill="#FDFDFD"/>
<path d="M52.0713 26.4176C52.0519 26.3997 52.0324 26.3818 52.0065 26.3578C51.9417 26.2801 51.8314 26.2861 51.7407 26.2682C51.4554 26.2084 51.41 26.0888 51.5203 25.8318C51.6758 25.4672 51.7666 25.0786 51.8898 24.702C51.9417 24.714 51.9935 24.72 52.0389 24.7319C52.6872 24.8993 52.6872 24.8993 52.5057 25.4911C52.4279 25.7481 52.3306 25.9992 52.2528 26.2562C52.2269 26.3578 52.201 26.4296 52.0713 26.4176Z" fill="#FDFDFD"/>
<path d="M41.3096 42.1389C41.2901 42.109 41.2642 42.0791 41.2447 42.0492C41.128 41.8818 40.8169 41.7922 40.8558 41.5949C40.8817 41.4335 41.1086 41.302 41.2447 41.1585C41.2707 41.1167 41.2966 41.0808 41.3225 41.039C41.5624 40.9075 41.6726 40.6624 41.893 40.5129C42.5608 40.9852 42.5608 40.9792 42.0032 41.5351C41.9449 41.5889 41.8736 41.6427 41.8736 41.7324C41.6402 41.8161 41.5689 42.0851 41.3096 42.1389Z" fill="#FDFDFD"/>
<path d="M38.3663 43.7708C38.3793 43.7887 38.3922 43.8067 38.4052 43.8186C38.9303 44.3088 38.9303 44.3088 38.3793 44.7332C38.3015 44.799 38.2237 44.8647 38.1394 44.9305C37.9903 45.05 37.8541 45.2413 37.6791 45.2772C37.4652 45.325 37.4327 45.0082 37.2383 44.9484C37.2123 44.8348 37.0114 44.7332 37.2253 44.6137C37.4198 44.5061 37.5948 44.3746 37.7439 44.2132C37.7634 44.1893 37.7893 44.1653 37.8088 44.1414C38.0032 44.0279 38.1329 43.8366 38.3663 43.7708Z" fill="#FDFDFD"/>
<path d="M33.8347 47.9372C33.7828 47.9492 33.718 47.9372 33.6921 48.003C33.5689 48.1345 33.4781 48.0628 33.3938 47.9552C33.3744 47.9492 33.3614 47.9432 33.342 47.9372C33.3225 47.7878 33.2253 47.6862 33.1151 47.5905C33.0438 47.4769 33.1021 47.4172 33.2058 47.3514C33.3874 47.2498 33.5559 47.1243 33.731 47.0107C33.9384 46.9569 34.0875 46.8254 34.2496 46.6998C34.269 46.6819 34.2885 46.664 34.3079 46.646C34.47 46.5982 34.5219 46.7238 34.5997 46.8074C34.6775 46.8971 34.7099 47.0167 34.8396 47.0585C34.846 47.1362 34.846 47.2139 34.8525 47.2916C34.6904 47.3873 34.5219 47.4829 34.3598 47.5726C34.1913 47.7041 34.0097 47.8177 33.8347 47.9372Z" fill="#FDFDFD"/>
<path d="M33.1151 47.5905C33.2253 47.6862 33.3225 47.7938 33.342 47.9372C33.0308 47.9492 32.7196 47.9552 32.4084 47.9671C32.3047 47.9253 32.2139 47.9372 32.1232 47.997C32.0195 47.9193 31.8963 47.9552 31.7796 47.9552C31.3971 47.9432 31.0081 47.9851 30.6256 47.9193C30.8136 47.7519 30.9822 47.5547 31.2869 47.5786C31.8963 47.5846 32.5057 47.5905 33.1151 47.5905Z" fill="#F9E90A"/>
<path d="M30.5089 49.7362C30.5154 49.7064 30.5219 49.6766 30.5284 49.6468C34.0421 49.6468 37.5559 49.6409 41.0697 49.6409C41.1669 49.6409 41.2642 49.6468 41.3614 49.6468C41.0438 49.6528 40.7196 49.6647 40.4019 49.6647C37.2901 49.6647 34.1718 49.6647 31.06 49.6707C30.8979 49.6707 30.7164 49.6111 30.5673 49.7421C30.5478 49.7421 30.5284 49.7362 30.5089 49.7362Z" fill="#C0C2C2"/>
<path d="M52.0778 23.8472C52.188 23.7217 52.0519 23.4647 52.2464 23.4288C52.4408 23.3929 52.6742 23.4527 52.8752 23.5125C53.1929 23.6021 52.9465 23.8114 52.9465 23.9608C52.9465 24.0923 52.8752 24.176 52.6937 24.1103C52.4927 24.0385 52.2788 23.9967 52.0778 23.9489C52.0713 23.913 52.0713 23.8771 52.0778 23.8472Z" fill="#FDFDFD"/>
<path d="M52.0324 23.0991C51.9027 22.9978 51.7407 23.0455 51.598 23.0276C51.6045 23.0097 51.6175 22.9919 51.6305 22.974C51.6434 22.9621 51.6629 22.9502 51.6758 22.9383C51.6758 22.9383 51.6694 22.9204 51.6629 22.9204C51.047 22.9264 50.4246 22.8668 49.8087 22.9502C49.7569 22.9621 49.705 22.98 49.6467 22.9919C49.6467 22.9621 49.6467 22.9383 49.6467 22.9085C49.8217 22.8072 50.0227 22.8608 50.2107 22.8549C50.7358 22.8489 51.2609 22.8608 51.7861 22.8489C52.013 22.837 52.0843 22.9025 52.0324 23.0991Z" fill="#049646"/>
<path d="M48.4019 27.3915C48.389 27.3975 48.3695 27.4094 48.3566 27.4153C48.2723 27.4273 48.1945 27.4451 48.1102 27.457C48.1686 27.2545 47.9935 27.3439 47.9222 27.3379C47.3193 27.326 46.7164 27.326 46.1199 27.32C46.5219 27.2188 46.9303 27.2962 47.3322 27.2784C47.624 27.2664 47.9157 27.2724 48.2075 27.2724C48.2852 27.2784 48.4149 27.2307 48.4019 27.3915Z" fill="#049646"/>
<path d="M40.966 31.1041C40.966 31.128 40.9595 31.1579 40.9595 31.1818C40.3112 31.1818 39.6629 31.1818 39.0146 31.1818C39.0146 31.1579 39.0146 31.128 39.0146 31.1041C39.6629 31.1041 40.3112 31.1041 40.966 31.1041Z" fill="#049646"/>
<path d="M27.5981 51.3864C27.5397 51.213 27.5786 51.0277 27.5786 50.8544C27.5786 41.4395 27.5786 32.0307 27.5786 22.6158C27.5786 22.5082 27.5851 22.3946 27.5851 22.287C27.5916 22.4245 27.6046 22.562 27.6046 22.6995C27.6046 32.2339 27.6046 41.7683 27.611 51.3027C27.6046 51.3266 27.5981 51.3565 27.5981 51.3864Z" fill="#C0C2C2"/>
<path d="M51.9092 47.465C51.7342 47.465 51.5527 47.465 51.3776 47.4591C51.3712 47.3096 51.3647 47.1602 51.3647 47.0107C51.3647 40.9733 51.3647 34.9298 51.3647 28.8924C51.3647 28.7848 51.3387 28.6772 51.3258 28.5696C51.4878 28.1153 51.6694 27.667 51.9028 27.2426C51.9092 27.4518 51.9222 27.661 51.9222 27.8702C51.9222 34.2424 51.9222 40.6146 51.9222 46.9928C51.9287 47.1542 51.9157 47.3096 51.9092 47.465Z" fill="#66C3CF"/>
<path d="M48.4279 32.5208C48.6224 32.6224 48.8168 32.73 49.0113 32.8317C49.0113 37.6317 49.0178 42.4258 49.0178 47.2259C49.0178 47.5726 48.9724 47.5905 48.4279 47.5068C48.4279 42.9519 48.4214 38.3969 48.4214 33.8419C48.4473 33.6984 48.7196 33.555 48.4343 33.3995C48.4279 33.1066 48.4279 32.8137 48.4279 32.5208Z" fill="#66C3CF"/>
<path d="M47.8444 46.939C47.8768 46.652 47.7861 46.3711 47.7861 46.0782C47.7925 42.4676 47.7925 38.8631 47.7925 35.2526C47.7925 35.0852 47.7796 34.9178 47.7796 34.7445C47.9092 34.4516 48.1167 34.2065 48.3112 33.9495C48.3955 34.081 48.363 34.2244 48.363 34.3559C48.363 36.6035 48.363 38.8512 48.363 41.0988C48.363 43.2208 48.3566 45.3369 48.3566 47.459C48.3371 47.459 48.3177 47.465 48.3047 47.471C48.1945 47.471 48.1232 47.4411 48.1297 47.3155C48.1361 47.2139 48.0972 47.1183 47.9805 47.0764C47.9611 47.0167 47.825 47.0286 47.8444 46.939Z" fill="#66C3CF"/>
<path d="M51.3711 24.3194C51.4489 24.0863 51.3906 23.8472 51.4036 23.6081C51.41 23.4766 51.4165 23.3391 51.5008 23.2375C51.5656 23.1598 51.6564 23.0522 51.7925 23.094C51.9157 23.1359 51.8639 23.2435 51.8703 23.3271C51.8833 23.7814 51.8898 24.2417 51.8963 24.696C51.7731 25.0726 51.6823 25.4612 51.5267 25.8258C51.423 26.0769 51.4684 26.1964 51.7472 26.2622C51.8379 26.2801 51.9416 26.2741 52.013 26.3518C51.8639 26.4714 51.9546 26.6328 51.9287 26.7703C51.9092 26.8839 51.9611 27.0094 51.8639 27.111C51.6694 27.105 51.5073 27.0333 51.3452 26.9377C51.3517 26.0709 51.3582 25.1982 51.3711 24.3194Z" fill="#66C3CF"/>
<path d="M50.2755 29.0538C50.483 29.1434 50.6969 29.2271 50.9044 29.3287C50.9822 29.3646 50.9173 29.4363 50.8914 29.4842C50.7034 29.8488 50.5089 30.2134 50.3274 30.5841C50.2626 30.7215 50.1977 30.7514 50.0357 30.6797C49.4716 30.4227 49.4716 30.4286 49.7439 29.9146C49.8671 29.6814 49.9708 29.4483 50.094 29.2152C50.1264 29.1434 50.1524 29.0538 50.2755 29.0538Z" fill="#FDFDFD"/>
<path d="M51.3452 26.9496C51.5008 27.0393 51.6694 27.117 51.8639 27.123C51.9157 27.1529 51.9287 27.1947 51.9092 27.2485C51.6759 27.6729 51.4943 28.1212 51.3323 28.5756C51.0729 28.5935 50.8785 28.4321 50.6515 28.3544C50.5349 28.3125 50.5673 28.2348 50.5997 28.1631C50.7618 27.7865 50.9303 27.4159 51.0729 27.0393C51.1313 26.8659 51.235 26.9257 51.3452 26.9496Z" fill="#FDFDFD"/>
<path d="M49.8477 24.6661C49.7958 24.4689 49.9319 24.2656 49.6402 24.2477C49.5754 24.2417 49.6078 24.1999 49.6337 24.164C49.7699 24.0026 49.906 23.8412 50.0357 23.6679C50.1005 23.5782 50.1459 23.6021 50.2042 23.6679C50.3144 23.7934 50.4182 23.913 50.5284 24.0325C50.6256 24.1341 50.7488 24.2059 50.483 24.2776C50.3209 24.3194 50.4117 24.5287 50.4182 24.6542C50.4376 24.9172 50.3404 25.0009 50.0551 24.9889C49.6985 24.983 49.8801 24.7439 49.8477 24.6661Z" fill="#F9E90A"/>
<path d="M49.4068 23.1828C49.4262 23.0518 49.6143 23.0994 49.6532 22.9863C49.705 22.9744 49.7569 22.9565 49.8152 22.9446C50.4246 22.9565 51.0275 22.9624 51.6369 22.9744C51.624 22.9922 51.6175 23.0101 51.6045 23.028C51.4814 23.0577 51.3711 23.0935 51.2869 23.1888C50.658 23.1828 50.0292 23.1828 49.4068 23.1828Z" fill="#66C3CF"/>
<path d="M36.8493 45.8988C36.7844 45.9108 36.7391 45.9407 36.7391 46.0064L36.7196 46.0184C36.6288 46.0423 36.5446 46.0782 36.4992 46.1559C36.4992 46.1559 36.5057 46.1559 36.5057 46.1499C36.4732 46.1738 36.4408 46.1918 36.4084 46.2157C36.3695 46.2456 36.3306 46.2814 36.2917 46.3113C36.1621 46.395 36.0065 46.4607 35.9027 46.5683C35.6694 46.8015 35.5397 46.7118 35.3776 46.4966C35.047 46.0483 35.0729 46.1858 35.4878 45.8869C35.7601 45.6956 36.0389 45.5043 36.3047 45.3071C36.4149 45.2234 36.4732 45.2293 36.551 45.3429C36.6353 45.4685 36.7455 45.582 36.8428 45.6956C36.8946 45.7673 36.9335 45.8271 36.8493 45.8988Z" fill="#FDFDFD"/>
<path d="M34.3663 47.5845C34.5283 47.4889 34.6969 47.3933 34.859 47.3036C34.8784 47.3992 34.8784 47.4949 34.846 47.5905C34.6839 47.5845 34.5219 47.5845 34.3663 47.5845Z" fill="#66C3CF"/>
<path d="M44.8557 38.5284C45.0373 38.3191 45.1734 38.0741 45.4133 37.9067C45.4716 38.1936 45.4327 38.4805 45.4392 38.7675C45.4457 41.1406 45.4392 43.5197 45.4392 45.8928C45.4262 45.8928 45.4198 45.8988 45.4068 45.9048C44.8557 45.9586 44.8557 45.9586 44.8557 45.4565C44.8557 43.1431 44.8557 40.8357 44.8557 38.5284Z" fill="#66C3CF"/>
<path d="M48.1102 27.4577C48.1945 27.4458 48.2723 27.4278 48.3566 27.4159C48.3566 28.9402 48.3566 30.4645 48.363 31.9948C48.363 32.1024 48.376 32.21 48.3825 32.3176C48.389 32.3714 48.3371 32.4252 48.389 32.479C48.3436 32.7779 48.363 33.0768 48.376 33.3756C48.1686 33.3398 48.0389 33.1186 47.8055 33.1425C47.8055 31.3851 47.8055 29.6336 47.8055 27.8762C47.8055 27.7746 47.8185 27.6789 47.825 27.5773L47.8314 27.5713C47.8963 27.5833 47.9546 27.5892 47.9805 27.5175H47.987C48.0454 27.5295 48.0908 27.5175 48.1102 27.4637V27.4577Z" fill="#66C3CF"/>
<path d="M47.1896 35.5335C47.1637 35.5754 47.1248 35.6352 47.0859 35.6949C46.859 35.9998 46.6321 36.2987 46.4117 36.6035C46.3209 36.7291 46.2366 36.753 46.094 36.6633C45.5624 36.3465 45.5559 36.3525 45.919 35.8743C46.094 35.6471 46.269 35.42 46.4376 35.1868C46.5154 35.0792 46.5802 35.0553 46.6904 35.145C46.8136 35.2406 46.9562 35.3124 47.0924 35.3961C47.1442 35.4319 47.1896 35.4558 47.1896 35.5335Z" fill="#FDFDFD"/>
<path d="M47.7925 33.1425C48.0324 33.1186 48.1556 33.3338 48.363 33.3756C48.3825 33.3816 48.4019 33.3935 48.4279 33.3995C48.7131 33.5549 48.4408 33.6924 48.4149 33.8419C48.376 33.8777 48.3436 33.9196 48.3047 33.9554C48.1167 34.2125 47.9092 34.4635 47.7731 34.7505C47.624 34.7744 47.0924 34.5353 47.0535 34.4217C47.0211 34.332 47.0924 34.2723 47.1377 34.2065C47.3128 33.9495 47.4878 33.6864 47.6694 33.4354C47.7342 33.3457 47.786 33.256 47.7925 33.1425Z" fill="#FDFDFD"/>
<path d="M46.6386 29.6216C46.4311 29.6575 46.3339 29.5977 46.3274 29.3765C46.3209 29.2092 46.4635 28.976 46.1653 28.8565C46.1005 28.8326 46.2107 28.725 46.2561 28.6652C46.6062 28.2049 46.6126 28.1989 46.9692 28.6174C47.047 28.707 47.2804 28.7967 46.9692 28.9282C46.846 28.982 46.9238 29.2032 46.9238 29.3526C46.9303 29.5379 46.8914 29.6695 46.6386 29.6216Z" fill="#F9E90A"/>
<path d="M44.739 37.3628C44.6029 37.5421 44.4862 37.7334 44.2982 37.8768C44.2917 37.4405 44.2788 37.0041 44.2788 36.5617C44.2788 34.4516 44.2788 32.3415 44.2788 30.2314C44.2788 30.1238 44.2723 30.0102 44.2658 29.9026C44.2463 29.6635 44.4862 29.6695 44.6224 29.5918C44.7391 29.532 44.7261 29.6516 44.7326 29.7054C44.7391 29.8727 44.7326 30.0401 44.7326 30.2135C44.7391 32.5985 44.739 34.9777 44.739 37.3628Z" fill="#66C3CF"/>
<path d="M44.3436 38.373C44.5057 38.3969 44.564 38.624 44.765 38.5702C44.7585 38.6778 44.7391 38.7854 44.7391 38.893C44.7391 41.0869 44.7391 43.2807 44.7391 45.4745C44.7391 45.9168 44.7391 45.9168 44.2528 45.8989C44.3955 45.6837 44.2853 45.4625 44.2853 45.2413C44.2853 43.466 44.2853 41.6966 44.2853 39.9212C44.2853 39.449 44.2853 38.9767 44.2853 38.5045C44.2788 38.4507 44.2917 38.4089 44.3436 38.373Z" fill="#66C3CF"/>
<path d="M41.3096 42.1389C41.5689 42.0911 41.6402 41.8161 41.8671 41.7324C41.9254 42.4199 41.8866 43.1073 41.8866 43.7887C41.893 44.4941 41.8801 45.1995 41.8801 45.9108C41.3031 45.9287 41.2966 45.9287 41.2966 45.3908C41.3031 44.3088 41.3031 43.2209 41.3096 42.1389Z" fill="#66C3CF"/>
<path d="M43.5527 38.7436C43.7666 38.9169 43.9676 39.0544 44.1232 39.2218C44.2334 39.3414 44.0389 39.4011 43.9805 39.4729C43.7472 39.7538 43.4814 40.0168 43.2415 40.2918C43.1442 40.4054 43.0794 40.4353 42.9368 40.3217C42.483 39.9391 42.4765 39.9451 42.8655 39.5147C43.047 39.3115 43.2415 39.1082 43.423 38.905C43.4619 38.8572 43.4943 38.8093 43.5527 38.7436Z" fill="#FDFDFD"/>
<path d="M42.7877 30.877C42.5997 30.859 42.4765 30.8112 42.6839 30.6438C42.6904 30.6379 42.6969 30.6259 42.7034 30.6199C43.1118 30.1238 43.2155 30.1298 43.5397 30.6917C43.5591 30.7275 43.5656 30.7634 43.5786 30.7993C43.1377 30.9248 43.4749 31.2954 43.3128 31.5106C43.3063 31.5166 43.2998 31.5225 43.2933 31.5345C42.8395 31.5285 42.846 31.5285 42.833 31.0922C42.8395 31.0144 42.8784 30.9308 42.7877 30.877Z" fill="#F9E90A"/>
<path d="M37.7374 44.2131C37.5948 44.3745 37.4133 44.506 37.2188 44.6136C37.2188 40.4054 37.2188 36.1911 37.2253 31.9828C37.2253 31.8872 37.154 31.7736 37.316 31.7019C37.6791 31.5345 37.7115 31.5524 37.7115 31.941C37.7115 35.9341 37.7115 39.9271 37.7115 43.9143C37.718 44.0159 37.731 44.1115 37.7374 44.2131Z" fill="#66C3CF"/>
<path d="M37.2383 44.9484C37.4392 45.0082 37.4652 45.325 37.6791 45.2772C37.8541 45.2353 37.9903 45.05 38.1394 44.9305C38.2172 44.8647 38.295 44.799 38.3793 44.7332C38.3728 45.1277 38.3663 45.5163 38.3598 45.9108C37.9838 45.9108 37.6143 45.9108 37.2383 45.9108C37.2383 45.588 37.2383 45.2712 37.2383 44.9484Z" fill="#66C3CF"/>
<path d="M35.5851 33.1545C35.5721 33.0469 35.6759 32.8735 35.423 32.8556C35.4101 32.8556 35.3906 32.7958 35.3971 32.7838C35.5462 32.5926 35.6953 32.4013 35.8639 32.2219C35.9028 32.1801 35.9546 32.2638 35.9806 32.2937C36.0713 32.3893 36.1556 32.4909 36.2334 32.5985C36.3047 32.7002 36.5705 32.7958 36.214 32.9034C36.1102 32.9333 36.1751 33.1425 36.1751 33.2621C36.1751 33.4414 36.188 33.5789 35.9028 33.5729C35.637 33.5669 35.5592 33.4653 35.5851 33.2501C35.5851 33.2262 35.5851 33.1963 35.5851 33.1545Z" fill="#F9E90A"/>
<path d="M35.3193 31.6417C35.9741 31.4332 36.6548 31.5881 37.3225 31.5345C36.6742 31.8025 35.987 31.6059 35.3193 31.6417Z" fill="#66C3CF"/>
<path d="M39.5592 33.4653C39.3193 33.5071 39.2869 33.4115 39.2674 33.2202C39.248 33.0528 39.436 32.7898 39.0859 32.7061C39.0276 32.6942 39.06 32.6344 39.0794 32.6105C39.2026 32.455 39.3323 32.2996 39.4619 32.1382C39.5073 32.0785 39.5721 32.0665 39.624 32.1203C39.7666 32.2817 39.8963 32.4431 40.0324 32.6105C40.0454 32.6284 40.0389 32.6882 40.0324 32.6882C39.6759 32.7898 39.8444 33.0588 39.8315 33.262C39.8185 33.4712 39.7212 33.5071 39.5592 33.4653Z" fill="#F9E90A"/>
<path d="M32.4733 37.9067C32.2204 37.9665 32.201 37.835 32.188 37.6437C32.1815 37.4823 32.2399 37.3149 32.0324 37.1535C31.9157 37.0639 32.2788 36.8487 32.3631 36.6514C32.376 36.6156 32.4279 36.484 32.5186 36.5737C32.6807 36.7411 32.8298 36.9264 32.9789 37.0997C33.0049 37.1296 32.9984 37.1655 32.966 37.1715C32.6029 37.2312 32.8104 37.4883 32.7974 37.6497C32.7715 37.8709 32.7196 37.9725 32.4733 37.9067Z" fill="#F9E90A"/>
<path d="M32.0259 48.0329C32.0583 48.0209 32.0907 48.0089 32.1232 48.003C32.2139 47.9432 32.3047 47.9312 32.4084 47.9731C32.4214 47.991 32.4343 48.0149 32.4538 48.0329C32.7844 48.4812 32.7909 48.4931 32.3047 48.798C32.0324 48.9713 31.7407 49.1148 31.4489 49.2643C31.3906 49.2941 31.3063 49.3121 31.2544 49.2284C31.1637 49.0789 31.047 48.9355 30.9627 48.786C30.9108 48.6964 30.9108 48.6246 31.0535 48.5589C31.3906 48.3975 31.7018 48.2062 32.0259 48.0329Z" fill="#FDFDFD"/>
<path d="M41.4587 49.3719C41.342 48.9475 41.2447 48.5888 41.1475 48.2302C41.1281 48.1704 41.1605 48.1345 41.2188 48.1286C41.2383 48.1226 41.2642 48.1226 41.2836 48.1226C41.8477 48.0389 41.9319 48.1226 41.7569 48.6247C41.6856 48.8518 41.6337 49.085 41.4587 49.3719Z" fill="#F9E90A"/>
<path d="M47.7277 27.4991C47.1702 27.4991 46.6191 27.4991 46.0616 27.4991C46.0616 27.4634 46.0616 27.4336 46.0616 27.3979C46.6191 27.386 47.1702 27.3681 47.7277 27.4098C47.7277 27.4396 47.7277 27.4693 47.7277 27.4991Z" fill="#66C3CF"/>
<path d="M47.9741 27.5175C47.9481 27.5941 47.8898 27.5882 47.825 27.5705C47.8574 27.5292 47.9092 27.5116 47.9741 27.5175Z" fill="#049646"/>
<path d="M48.1037 27.4577C48.0843 27.5166 48.0389 27.5225 47.9806 27.5107C48 27.4636 48.0454 27.4577 48.1037 27.4577Z" fill="#049646"/>
</g>
<rect x="0.5" y="0.992432" width="81.9822" height="72.7645" stroke="#7D2020"/>
<defs>
<clipPath id="clip0_17_1272">
<rect y="0.492432" width="82.9822" height="73.7645" fill="white"/>
</clipPath>
</defs>
</svg>
