<svg width="62" height="51" viewBox="0 0 62 51" fill="none" xmlns="http://www.w3.org/2000/svg">
<g clip-path="url(#clip0_17_1027)">
<path d="M31.5122 50.9563C31.5073 50.9709 31.5024 50.9806 31.5073 50.9952C31.1183 50.9952 30.7294 50.9952 30.3404 50.9952C30.3452 50.9806 30.3452 50.966 30.3355 50.9563C30.7294 50.9563 31.1183 50.9563 31.5122 50.9563Z" fill="#C0C2C2"/>
<path d="M30.9238 50.6012C29.7131 50.5915 28.3517 50.3873 27 50.0712C24.5737 49.5024 22.2739 48.5737 20.0129 47.5477C18.8946 47.0421 17.7909 46.5072 16.6774 45.9918C15.0826 45.2479 13.4975 44.4797 11.8152 43.94C11.0761 43.7017 10.3176 43.5218 9.52995 43.5315C9.13611 43.5364 8.75686 43.5947 8.39705 43.7552C8.30953 43.7941 8.23174 43.8281 8.17339 43.7114C7.57047 42.5737 7.05507 41.4116 7.10856 40.0842C7.12315 39.7682 7.19608 39.4618 7.38571 39.1944C7.54616 38.9708 7.73579 38.8492 8.03238 38.8152C10.1134 38.5623 12.0097 39.1264 13.8379 40.0453C15.2917 40.7746 16.6191 41.7131 17.9757 42.598C19.1864 43.3857 20.4068 44.1539 21.705 44.7957C23.4554 45.6612 25.2836 46.2787 27.2139 46.5947C28.833 46.8573 30.4667 46.9205 32.1053 46.8281C33.3598 46.7552 34.6045 46.5947 35.8249 46.3079C37.2058 45.987 38.5381 45.5202 39.8265 44.9221C41.6207 44.0907 43.269 43.0161 44.927 41.9513C46.2641 41.0956 47.611 40.2495 49.1037 39.6709C50.188 39.2479 51.3063 38.9853 52.4732 38.927C53.0178 38.8978 53.5575 38.927 54.1021 38.9416C54.2577 38.9464 54.3792 39.0048 54.4911 39.1069C55.1086 39.6855 55.1086 40.3857 54.8995 41.1247C54.6953 41.8541 54.3452 42.5202 54.0291 43.2009C53.9659 43.337 53.9902 43.5461 53.8444 43.6045C53.7082 43.658 53.5526 43.5413 53.4068 43.5072C52.4489 43.3079 51.5202 43.4878 50.6061 43.7455C48.8265 44.2512 47.1782 45.0777 45.5154 45.8703C43.6434 46.7649 41.7909 47.6985 39.8703 48.491C38.1831 49.1912 36.4619 49.8038 34.6677 50.1831C33.4959 50.4408 32.3095 50.6012 30.9238 50.6012ZM19.4878 44.9124C19.3711 44.5477 19.094 44.3776 18.739 44.3289C18.4716 44.29 18.2431 44.3776 18.0972 44.6158C17.9222 44.9075 17.893 45.209 18.0972 45.4959C18.2966 45.7779 18.5786 45.9238 18.9287 45.8849C19.2058 45.8557 19.4003 45.6952 19.4781 45.4132C19.5851 45.2528 19.5753 45.0826 19.4878 44.9124ZM30.6515 48.1361C30.6029 48.3792 30.7147 48.6369 30.5834 48.8751C30.3841 48.6077 30.0972 48.4181 29.9708 48.0923C29.927 47.9805 29.7325 48.0437 29.611 48.0437C29.4797 48.0486 29.5624 48.1555 29.5624 48.2139C29.5429 48.5931 29.5526 48.9772 29.5089 49.3516C29.4894 49.5169 29.5624 49.5121 29.6596 49.5024C29.7423 49.4975 29.8784 49.5802 29.859 49.3711C29.8347 49.1231 29.8541 48.8703 29.8541 48.5591C30.1215 48.8654 30.3549 49.1037 30.5494 49.3662C30.6904 49.551 30.7828 49.5996 31.0162 49.4829C30.9919 49.2155 31.0551 48.9432 30.9967 48.6806C30.9724 48.4862 30.9481 48.2917 31.0599 48.0826C30.9043 48.102 30.7682 48.0145 30.6515 48.1361ZM42.4667 45.3549C42.3063 45.2236 42.0972 45.1361 41.9951 44.9562C41.927 44.8395 41.8784 44.8541 41.7909 44.9027C41.7131 44.9464 41.6353 44.9902 41.5624 45.034C41.5186 45.0583 41.4797 45.0777 41.5235 45.1409C41.7569 45.491 41.8881 45.8897 42.0486 46.2738C42.1167 46.444 42.2188 46.3273 42.2479 46.2982C42.2917 46.2593 42.457 46.2787 42.3549 46.1085C42.2479 45.9335 42.1361 45.7439 42.1069 45.4716C42.3111 45.6223 42.4813 45.739 42.6369 45.8703C42.7779 45.987 42.8217 45.9481 42.8363 45.7779C42.8509 45.5396 42.88 45.3063 42.9141 45.0097C43.0502 45.243 43.1426 45.4278 43.1961 45.6272C43.2058 45.6709 43.1961 45.7439 43.2593 45.739C43.376 45.7341 43.4635 45.6515 43.5607 45.598C43.6142 45.5688 43.5607 45.5202 43.5413 45.4764C43.3857 45.1604 43.2155 44.8443 43.0988 44.5137C43.0308 44.3144 42.987 44.2317 42.7877 44.3678C42.705 44.4213 42.5397 44.3873 42.6223 44.5672C42.6175 44.7811 42.6077 44.9999 42.6077 45.2139C42.5932 45.3111 42.5883 45.3938 42.4667 45.3549ZM20.1588 44.9951C20.0859 45.3792 19.9351 45.7293 19.7844 46.0696C19.6823 46.303 19.6823 46.4197 19.9449 46.4781C19.9692 46.4829 19.9886 46.4878 20.0227 46.4926C20.0324 46.2155 20.1734 45.9967 20.2901 45.6904C20.3436 46.0502 20.3825 46.337 20.4262 46.6336C20.6888 46.5364 20.8152 46.2593 21.1264 46.1766C21.0486 46.3954 21.0048 46.5753 20.9222 46.7309C20.7958 46.9594 21.0194 46.9157 21.0972 46.974C21.2042 47.0567 21.2334 46.9789 21.2674 46.8768C21.3695 46.5558 21.4862 46.2398 21.6029 45.9238C21.705 45.6466 21.7001 45.6272 21.3938 45.5299C21.3501 45.5153 21.282 45.4375 21.2625 45.5396C21.2285 45.705 21.0778 45.7584 20.9757 45.8508C20.8881 45.9335 20.8006 46.0939 20.6693 46.0307C20.5575 45.9772 20.6207 45.8119 20.6061 45.6952C20.577 45.3938 20.645 45.0437 20.1928 44.9951C20.188 44.9951 20.1783 44.9951 20.1588 44.9951ZM7.82817 41.2706C7.82817 41.82 8.17825 42.1944 8.68879 42.1896C9.28198 42.1847 9.68554 41.8006 9.68554 41.2511C9.68554 40.726 9.36464 40.3857 8.87355 40.3808C8.15394 40.3808 7.82817 40.658 7.82817 41.2706ZM53.047 41.4602C52.9303 41.1393 52.6726 40.974 52.6483 40.6774C52.6434 40.6288 52.6094 40.6045 52.5656 40.6093C52.444 40.6191 52.3225 40.6336 52.2058 40.6531C52.1377 40.6628 52.1523 40.6969 52.162 40.7552C52.2155 41.1636 52.2593 41.5672 52.303 41.9756C52.3079 42.0437 52.2398 42.1652 52.3954 42.1118C52.4781 42.0826 52.6677 42.175 52.6191 41.9367C52.5802 41.7276 52.5802 41.5137 52.5656 41.2755C52.7212 41.3824 52.7601 41.5429 52.8573 41.6547C52.9449 41.752 52.9546 41.9659 53.1005 41.9464C53.222 41.927 53.2171 41.7179 53.2901 41.6061C53.363 41.4894 53.3484 41.3095 53.5332 41.2366C53.4992 41.4456 53.5915 41.6207 53.5867 41.8054C53.5867 41.8492 53.5186 41.9319 53.611 41.9416C53.7131 41.9513 53.8249 41.9464 53.9222 41.9221C54.0097 41.9027 53.9416 41.8298 53.9368 41.7811C53.8979 41.4067 53.859 41.0275 53.8103 40.6531C53.8055 40.5996 53.8979 40.4635 53.7763 40.4926C53.645 40.5267 53.4311 40.4392 53.3825 40.6093C53.3047 40.8913 53.1831 41.1393 53.047 41.4602ZM48.8995 43.021C48.7731 42.9286 48.6661 42.846 48.5543 42.773C48.423 42.6855 48.3452 42.6174 48.5008 42.4667C48.6515 42.316 48.6077 42.1166 48.5008 41.9513C48.4035 41.8006 48.2479 41.7665 48.0729 41.8298C47.7812 41.9367 47.4846 42.0437 47.1928 42.1507C47.1005 42.1847 47.1345 42.2139 47.1588 42.2868C47.3047 42.7001 47.436 43.1231 47.5721 43.5413C47.9465 43.4343 47.9416 43.4829 47.7958 43.1134C47.786 43.0891 47.7714 43.0696 47.7666 43.0453C47.7617 42.9772 47.7034 42.8849 47.786 42.8508C47.8638 42.8168 47.9562 42.7244 48.0535 42.8071C48.1799 42.9189 48.3501 42.9821 48.423 43.1377C48.457 43.2106 48.4911 43.2252 48.5445 43.1912C48.6466 43.1231 48.7925 43.1328 48.8995 43.021ZM16.4975 43.8476C16.7018 44.2317 16.8233 44.5769 16.8914 44.9319C16.9254 45.1166 17.0907 45.0875 17.1928 45.1555C17.2512 45.1944 17.2804 45.1312 17.2949 45.068C17.3776 44.6693 17.5867 44.3192 17.7325 43.9448C17.7471 43.9059 17.8298 43.8768 17.7617 43.833C17.6742 43.7795 17.577 43.7406 17.4748 43.7163C17.4068 43.7017 17.4262 43.7795 17.4116 43.8184C17.3338 44.0372 17.2512 44.2512 17.1491 44.5234C17.0032 44.1539 16.8282 43.8524 16.8087 43.5072C16.7941 43.2738 16.6094 43.2884 16.4927 43.2349C16.3322 43.162 16.3808 43.3516 16.3468 43.4197C16.1718 43.7746 16.1134 44.1734 15.8703 44.4991C16.1134 44.6499 16.2204 44.6304 16.2836 44.3824C16.3322 44.2074 16.4732 44.0956 16.4975 43.8476ZM31.5996 48.846C31.6045 48.846 31.6142 48.846 31.6191 48.846C31.6191 49.0259 31.6288 49.2009 31.6142 49.3808C31.6045 49.4975 31.624 49.5461 31.7504 49.5364C32.0129 49.517 32.2755 49.551 32.5429 49.4829C32.9222 49.3857 33.0924 49.1571 33.068 48.6904C33.0535 48.3111 32.8249 48.068 32.4554 48.0486C32.2317 48.0388 32.0032 48.0729 31.7795 48.068C31.624 48.0631 31.5559 48.0777 31.5948 48.2722C31.6288 48.4473 31.5996 48.6515 31.5996 48.846ZM11.859 41.4554C11.893 41.3241 11.9951 41.222 11.9416 41.115C11.9124 41.0567 11.786 41.1101 11.7034 41.0858C11.4165 40.9983 11.1296 40.9302 10.8428 40.8524C10.7358 40.8233 10.7066 40.8427 10.6823 40.9643C10.6094 41.3338 10.5218 41.7033 10.41 42.068C10.3663 42.209 10.3954 42.2236 10.517 42.2674C10.8865 42.3938 11.2804 42.4327 11.6499 42.6126C11.6742 42.491 11.6936 42.3743 11.718 42.2528C11.4457 42.2528 11.2074 42.1458 10.9546 42.0972C10.833 42.0729 10.7795 42.0097 10.8136 41.8735C10.8525 41.7131 10.9643 41.7471 11.0616 41.7714C11.1928 41.8054 11.3241 41.8638 11.4554 41.9124C11.5235 41.7131 11.5721 41.538 11.2609 41.5526C11.1783 41.5575 11.0956 41.504 11.0129 41.4748C10.9206 41.4456 10.9449 41.3776 10.9643 41.3144C10.9838 41.2609 10.9838 41.1588 11.0761 41.1928C11.3193 41.29 11.5964 41.3095 11.859 41.4554ZM14.8444 42.4813C14.4554 42.4813 14.1539 42.8022 14.1539 43.2204C14.1539 43.6531 14.5624 44.0372 15.0291 44.0469C15.4084 44.0518 15.739 43.7114 15.739 43.3079C15.7439 42.8606 15.3355 42.4862 14.8444 42.4813ZM37.8719 47.3144C37.8136 47.7617 38.2123 48.0534 38.5235 48.0631C38.9805 48.0729 39.4181 47.6693 39.4133 47.2463C39.4133 46.8087 39.1118 46.4829 38.7082 46.4829C38.2317 46.4829 37.8671 46.8427 37.8719 47.3144ZM46.9303 43.5169C46.692 43.6969 46.4246 43.7892 46.1718 43.9108C46.0453 43.974 46.021 43.867 45.9773 43.799C45.9141 43.7066 45.9578 43.6482 46.0453 43.6093C46.1475 43.5607 46.2447 43.4926 46.3517 43.4732C46.5024 43.444 46.5218 43.3954 46.4635 43.2544C46.3954 43.0939 46.3274 43.162 46.2398 43.2204C46.1669 43.269 46.0794 43.2933 45.9967 43.3322C45.9141 43.3759 45.8509 43.4246 45.7877 43.2933C45.7293 43.1669 45.7682 43.1182 45.8752 43.0793C46.0842 42.9967 46.2641 42.846 46.4878 42.8119C46.5753 42.7973 46.5802 42.7584 46.5607 42.7001C46.5316 42.6174 46.4927 42.5396 46.4586 42.4667C46.3419 42.5299 46.2398 42.5931 46.1329 42.6466C45.88 42.773 45.6272 42.8946 45.3744 43.021C45.3306 43.0453 45.2577 43.0453 45.3063 43.128C45.5348 43.5218 45.6758 43.9497 45.8411 44.3824C46.2253 44.2025 46.5996 44.0275 46.9838 43.8573C47.0567 43.8233 47.0616 43.7844 47.0324 43.726C47.0081 43.658 46.9692 43.5947 46.9303 43.5169ZM50.8784 42.4667C50.9611 42.457 51.0486 42.4473 51.1361 42.4278C51.5397 42.3451 51.6807 42.1312 51.6418 41.7228C51.6175 41.4554 51.5154 41.2025 51.5251 40.9302C51.5299 40.8573 51.5056 40.8087 51.4327 40.8476C51.3403 40.8913 51.1312 40.867 51.1701 40.9351C51.2966 41.1831 51.2382 41.4554 51.3403 41.6985C51.4035 41.8443 51.3112 42.0583 51.1458 42.1215C50.9222 42.2139 50.7082 42.1458 50.6645 41.961C50.6061 41.7082 50.5283 41.4554 50.5332 41.2025C50.5332 40.9934 50.4262 41.0664 50.3436 41.0761C50.2512 41.0858 50.115 41.0567 50.1637 41.2414C50.2269 41.4845 50.2658 41.7325 50.2998 41.9805C50.3436 42.3452 50.5186 42.4764 50.8784 42.4667ZM28.3517 49.2981C28.765 49.2981 28.9206 49.2058 28.9643 48.88C28.9984 48.598 29.047 48.3208 29.0956 48.0437C29.1248 47.8784 28.9838 47.9221 28.906 47.9027C28.8428 47.8881 28.7601 47.8541 28.7601 48.0048C28.7601 48.243 28.7115 48.4862 28.6726 48.7244C28.6337 48.9529 28.4635 49.0696 28.2593 49.0307C28.021 48.9821 27.9238 48.8411 27.9578 48.5931C27.9821 48.4035 28.0162 48.209 28.0356 48.0194C28.0405 47.9416 28.162 47.8589 28.0745 47.7957C28.0065 47.7422 27.8898 47.7422 27.7974 47.7179C27.739 47.7033 27.7001 47.7228 27.7099 47.7909C27.7439 48.0923 27.6126 48.3792 27.6077 48.6806C27.6029 49.0405 27.6855 49.1571 28.0453 49.269C28.1475 49.2982 28.2447 49.2981 28.3517 49.2981ZM44.9805 43.8622C44.9757 43.5218 44.7617 43.3711 44.4262 43.5072C44.1539 43.6191 43.8962 43.7746 43.6288 43.9011C43.5462 43.94 43.551 43.974 43.5948 44.0469C43.8087 44.3873 43.9449 44.7665 44.0956 45.1361C44.1394 45.2382 44.1685 45.2868 44.2463 45.2041C44.3144 45.1361 44.5429 45.1944 44.4262 44.9659C44.2171 44.5429 44.1296 44.6158 44.6158 44.3581C44.6596 44.3338 44.6985 44.3095 44.7423 44.2852C44.9076 44.1977 44.9902 44.0567 44.9805 43.8622ZM13.4975 42.8217C13.4295 42.8508 13.3663 42.8849 13.2982 42.8994C13.0599 42.9578 12.7293 42.7828 12.6466 42.5542C12.5591 42.3208 12.6321 42.1069 12.8363 41.9902C13.0599 41.8638 13.4295 41.9853 13.5851 42.2528C13.6385 42.3403 13.658 42.4181 13.765 42.3257C13.8379 42.2625 13.9449 42.2041 13.8087 42.0923C13.7115 42.0097 13.6385 41.8978 13.5413 41.82C13.1572 41.504 12.6272 41.5477 12.3938 41.9319C12.2285 42.2041 12.2285 42.5202 12.3889 42.7828C12.5834 43.0988 12.9141 43.2301 13.2836 43.1912C13.6191 43.1571 13.6142 43.1426 13.4975 42.8217ZM35.1005 49.1085C34.8768 48.6563 34.4489 48.3354 34.3176 47.8298C34.3079 47.7909 34.269 47.7909 34.2398 47.7957C34.128 47.8103 34.0113 47.8152 33.9092 47.8541C33.7925 47.8978 33.9335 47.9951 33.8898 48.0631C33.8752 48.0923 33.8703 48.1215 33.8606 48.1555C33.7488 48.5591 33.6418 48.9675 33.53 49.3759C33.8314 49.337 33.8314 49.337 33.9092 49.0793C33.9335 49.0064 33.9627 48.9529 34.0551 48.9432C34.1426 48.9383 34.2301 48.9189 34.3176 48.8897C34.5024 48.8265 34.6191 48.88 34.6385 49.0842C34.6434 49.1523 34.6531 49.1912 34.7358 49.1669C34.8525 49.1377 34.9838 49.1717 35.1005 49.1085ZM24.1799 48.1896C24.1264 47.8589 24.0729 47.538 24.0194 47.222C23.9951 47.081 23.9368 46.9205 23.9757 46.7941C24.0194 46.6336 23.9465 46.6045 23.8395 46.5607C23.6985 46.5024 23.5526 46.4148 23.5235 46.6725C23.5235 46.6871 23.4894 46.7017 23.47 46.7163C23.1977 47.0372 22.9303 47.3581 22.6191 47.6596C22.6774 47.6839 22.7163 47.6936 22.7504 47.7131C22.8914 47.7811 23.0227 47.8589 23.0859 47.6207C23.1102 47.5283 23.2074 47.4748 23.3193 47.5429C23.3776 47.5769 23.4554 47.5818 23.5235 47.6061C23.6985 47.6693 23.8395 47.752 23.7471 47.9756C23.718 48.0388 23.7374 48.068 23.7958 48.0777C23.9319 48.1069 24.034 48.1993 24.1799 48.1896ZM27.3257 47.7033C27.3452 47.6158 27.3452 47.5866 27.2334 47.5672C26.9076 47.5137 26.5915 47.4262 26.2706 47.3387C26.1442 47.3046 26.0907 47.29 26.0616 47.4699C26.0081 47.8492 25.906 48.2236 25.8184 48.6028C25.8087 48.6466 25.7552 48.7001 25.8233 48.7244C25.9254 48.7633 26.0372 48.7973 26.1491 48.8022C26.2269 48.8071 26.1685 48.7293 26.1734 48.6904C26.2123 48.2576 26.3387 48.175 26.7374 48.35C26.859 48.4035 26.893 48.3841 26.9124 48.2674C26.9319 48.1507 26.9805 48.0437 26.7763 48.0631C26.6791 48.0729 26.577 48.0048 26.4748 47.9951C26.3436 47.9756 26.3533 47.893 26.363 47.8006C26.3727 47.679 26.4505 47.6839 26.5332 47.7033C26.7228 47.7471 26.9173 47.7714 27.0924 47.8541C27.282 47.9367 27.3306 47.8784 27.3257 47.7033ZM35.1734 47.5915C35.1588 47.8443 35.2171 47.9756 35.4894 47.82C35.6936 47.7033 35.7471 47.8784 35.7666 48.0194C35.8055 48.2819 35.9124 48.5348 35.893 48.8071C35.8833 48.9432 35.9902 48.9529 36.0437 48.8994C36.1167 48.8265 36.3355 48.9432 36.2771 48.7195C36.2188 48.4862 36.1604 48.2479 36.1021 48.0145C36.0291 47.7082 36.0826 47.611 36.3987 47.6012C36.5543 47.5964 36.5543 47.5429 36.5105 47.431C36.4862 47.3727 36.4667 47.3095 36.4522 47.2657C36.034 47.4213 35.6061 47.504 35.1734 47.5915ZM22.1475 47.4456C22.2739 47.0712 22.376 46.6969 22.5316 46.3468C22.6288 46.128 22.5948 46.0356 22.3711 45.9724C22.2885 45.9481 22.2593 45.9238 22.2301 46.0405C22.1329 46.4051 22.0308 46.7698 21.88 47.1101C21.7877 47.3192 21.8509 47.3678 22.0259 47.4019C22.0697 47.4165 22.1134 47.4359 22.1475 47.4456ZM49.4538 41.3338C49.376 41.3533 49.2982 41.3678 49.2204 41.3873C49.0891 41.4165 49.0599 41.4554 49.1134 41.6061C49.235 41.961 49.3128 42.3354 49.4052 42.7001C49.4149 42.7439 49.3808 42.8071 49.4538 42.8168C49.5753 42.8362 49.6726 42.7682 49.7747 42.7244C49.8428 42.6952 49.7698 42.6466 49.7601 42.6077C49.658 42.1896 49.4829 41.786 49.4538 41.3338ZM37.6045 48.4327C37.4295 47.9659 37.3419 47.4943 37.2107 47.0275C37.1231 47.0518 37.0259 47.081 36.9238 47.115C36.8849 47.1296 36.8071 47.1539 36.8557 47.2025C36.9724 47.3241 36.953 47.4894 36.9967 47.6304C37.0891 47.9319 37.2058 48.2285 37.2447 48.5542C37.3663 48.5153 37.4878 48.4716 37.6045 48.4327ZM40.6191 45.5591C40.8233 45.9481 40.9886 46.337 41.1394 46.7406C41.1539 46.7844 41.1491 46.867 41.2026 46.8524C41.3095 46.8233 41.4116 46.7698 41.504 46.7066C41.5672 46.6628 41.4894 46.6336 41.47 46.5947C41.3193 46.2641 41.1539 45.9432 41.0421 45.598C40.9692 45.3646 40.8768 45.3889 40.7261 45.4862C40.6969 45.5105 40.6629 45.5299 40.6191 45.5591Z" fill="#F9E90A"/>
<path d="M60.5786 46.6142C60.1265 46.7455 59.684 46.8671 59.2415 46.9983C58.7213 47.1491 58.2059 47.3047 57.6856 47.4457C56.7521 47.6985 55.8039 47.8687 54.8363 47.8152C54.2626 47.786 53.9757 47.3679 53.7958 46.8962C53.5333 46.2107 53.5624 45.5008 53.7423 44.7957C53.7666 44.6985 53.7861 44.6207 53.932 44.6499C55.6824 45.0534 57.3064 44.645 58.8671 43.8525C59.7229 43.4149 60.5106 42.88 61.2934 42.3306C61.3517 42.2917 61.3906 42.2188 61.4927 42.2674C61.4052 42.5105 61.3031 42.7439 61.1767 42.9724C60.7488 43.7309 60.2966 44.4748 59.7132 45.1264C59.5673 45.2917 59.4117 45.4424 59.2124 45.5397C59.0616 45.6126 59.1151 45.6661 59.1978 45.7439C59.5673 46.0794 59.9952 46.3176 60.4474 46.517C60.4863 46.5316 60.5446 46.5316 60.5786 46.6142Z" fill="#F9E90A"/>
<path d="M0.63208 42.0146C1.4927 42.6711 2.31441 43.2545 3.20907 43.731C4.32738 44.3291 5.49432 44.7521 6.77309 44.7959C7.24472 44.8104 7.7115 44.791 8.17341 44.684C8.35817 44.6403 8.43597 44.6792 8.47973 44.8882C8.59642 45.4425 8.63532 45.9871 8.46514 46.5414C8.27552 47.1589 7.6337 47.6403 6.99675 47.6451C5.77633 47.6597 4.59967 47.4263 3.44245 47.0762C2.82495 46.8915 2.19772 46.731 1.54618 46.5463C1.73581 46.3907 1.94975 46.342 2.13451 46.2399C2.42625 46.0795 2.70826 45.9142 2.96109 45.6905C3.01944 45.637 3.10696 45.5835 2.97568 45.5106C2.54294 45.2723 2.27552 44.8736 1.99837 44.4847C1.4927 43.7651 1.05996 42.9968 0.700151 42.1946C0.680702 42.1557 0.670978 42.1216 0.63208 42.0146Z" fill="#F9E90A"/>
<path d="M31.1524 3.12644C33.9238 3.12644 36.6953 3.13131 39.4668 3.12158C39.6759 3.12158 39.7342 3.18965 39.778 3.37928C40.0114 4.42952 40.7115 5.07134 41.6742 5.46032C42.6272 5.8493 43.6289 5.96113 44.6451 5.97571C44.8833 5.98058 44.9319 6.04379 44.9319 6.27231C44.9174 9.75853 44.9319 13.2399 44.9076 16.7261C44.893 18.7439 44.8444 20.7618 44.7131 22.7747C44.577 24.8655 44.3971 26.9514 43.9546 29.0081C43.6094 30.6078 43.128 32.1491 42.2917 33.5689C41.4943 34.9255 40.4295 36.0243 39.141 36.919C37.3955 38.1297 35.4457 38.9125 33.4571 39.6078C32.752 39.8509 32.0421 40.0746 31.3371 40.3031C31.2399 40.3323 31.1524 40.3371 31.0551 40.308C28.9352 39.6224 26.8396 38.8833 24.8752 37.8185C23.4603 37.0551 22.1767 36.1216 21.1362 34.8769C20.1054 33.6467 19.4149 32.2415 18.9287 30.7245C18.3647 28.9595 18.0632 27.141 17.8687 25.3031C17.752 24.2091 17.6597 23.1102 17.6013 22.0114C17.4603 19.5608 17.4165 17.1054 17.3825 14.6548C17.3436 11.8347 17.3582 9.01461 17.3387 6.19452C17.3387 6.00003 17.4117 5.97571 17.577 5.97085C18.4279 5.95627 19.2739 5.90278 20.1005 5.65481C21.2674 5.30473 22.1232 4.62401 22.4635 3.40845C22.5219 3.20424 22.6094 3.15076 22.8136 3.15076C25.5948 3.15562 28.3712 3.15562 31.1524 3.15562C31.1524 3.14103 31.1524 3.13131 31.1524 3.12644ZM20.859 33.6905C20.859 33.7196 20.8736 33.7391 20.9076 33.7391V33.7342C20.966 33.953 21.0973 34.1135 21.282 34.235C21.3015 34.308 21.423 34.2982 21.4084 34.3955C21.389 34.4684 21.423 34.5025 21.4911 34.5122V34.5073C21.4911 34.5414 21.5057 34.5608 21.5397 34.5608V34.5559C21.5592 34.7067 21.6564 34.7942 21.7877 34.8477L21.7828 34.8428C21.8315 34.9838 21.9579 35.0568 22.06 35.154C22.2885 35.295 22.4635 35.4944 22.6386 35.6937C22.7942 35.7958 22.8914 35.9806 23.0956 36.0098H23.0908C23.1005 36.1508 23.2512 36.1119 23.3193 36.1751C23.3387 36.2042 23.3582 36.2334 23.3776 36.2626C23.4165 36.3161 23.4603 36.3598 23.5332 36.355V36.3647C23.6062 36.4717 23.6986 36.5446 23.8298 36.5592H23.825C23.8396 36.5786 23.859 36.5981 23.8736 36.6175C23.9076 36.6564 23.9562 36.6516 24 36.6418H23.9951C24.0049 36.6564 24.0146 36.671 24.0292 36.6856C24.1556 36.8752 24.3501 36.953 24.5592 37.0016H24.5543C24.6078 37.1427 24.7585 37.1572 24.8655 37.2302C24.8995 37.2302 24.9384 37.2302 24.9725 37.2302C24.9773 37.2399 24.987 37.2496 24.9968 37.2593C25.0162 37.3712 25.128 37.376 25.201 37.4295C25.3177 37.517 25.483 37.5073 25.59 37.6143C25.6921 37.6532 25.7796 37.7261 25.8963 37.7358C26.0908 37.9303 26.3436 37.9984 26.6013 38.0713H26.5964C26.6402 38.1491 26.718 38.1589 26.7909 38.188C26.8347 38.2026 26.8785 38.2172 26.9271 38.2269C27.1945 38.3728 27.4571 38.5235 27.7682 38.5576C27.8217 38.6548 27.919 38.6548 28.0162 38.6548H28.0114C28.0405 38.7277 28.0989 38.7375 28.1669 38.718C28.3371 38.8153 28.517 38.8833 28.7115 38.9222C28.9011 39.0924 29.1491 39.1021 29.3728 39.1848C29.402 39.1897 29.436 39.1945 29.4652 39.1994C29.5089 39.248 29.5673 39.248 29.6208 39.2383H29.6159C29.6256 39.3112 29.6937 39.3112 29.7423 39.3258C30.1799 39.4717 30.6224 39.6078 31.06 39.7488C31.1378 39.7926 31.2058 39.7148 31.2788 39.7294C31.3128 39.778 31.342 39.7585 31.3712 39.7196H31.3663C31.8379 39.6224 32.295 39.4814 32.7374 39.2918C32.7763 39.282 32.8201 39.2723 32.859 39.2674C33.2917 39.1167 33.7342 39.0098 34.1475 38.8055C34.2836 38.791 34.3857 38.7034 34.5024 38.6451C34.9498 38.577 35.3485 38.3777 35.7472 38.1734C35.7763 38.154 35.8104 38.1345 35.8396 38.1151C36.0632 38.0665 36.2917 38.0179 36.4571 37.838C36.5057 37.8282 36.5543 37.8185 36.6029 37.8088C36.7391 37.7358 36.8947 37.6921 37.0162 37.5851H37.0114C37.2788 37.4879 37.5413 37.3955 37.7358 37.167C37.8817 37.1524 37.9692 37.026 38.0908 36.9627C38.3387 36.8363 38.5964 36.7148 38.8104 36.5397C39.0535 36.3452 39.3063 36.1653 39.5446 35.9709C39.846 35.7229 40.1329 35.4652 40.4441 35.2318C40.7212 35.0227 40.8768 34.6969 41.1054 34.4392C41.7958 33.6662 42.2431 32.7472 42.671 31.8185C42.8315 31.5559 42.9336 31.2691 42.9919 30.9676C42.9725 30.812 43.0989 30.6953 43.1232 30.5543C43.3274 30.1313 43.4344 29.684 43.4781 29.2172C43.4295 29.0033 43.6289 28.8477 43.6289 28.6435C43.7844 28.094 43.8622 27.5251 43.94 26.9611C44.1929 25.1281 44.3485 23.2804 44.4214 21.4328C44.4749 20.1054 44.4943 18.778 44.5284 17.4506C44.5284 17.4311 44.5284 17.4117 44.5284 17.3922C44.5721 13.9109 44.5381 10.4295 44.5527 6.94816C44.5527 6.39387 44.5527 6.39387 43.9935 6.4279C43.872 6.389 43.7553 6.49111 43.6337 6.44735C43.4587 6.31121 43.2399 6.37442 43.0454 6.34525C42.4716 6.26745 41.9173 6.10213 41.3582 5.97085H41.3631C41.3387 5.91251 41.2901 5.91737 41.2366 5.92223H41.2415C41.1588 5.81526 41.0567 5.76664 40.9255 5.79581C40.6921 5.57701 40.3517 5.49921 40.1767 5.21234C40.0746 5.00327 39.9579 4.80878 39.7828 4.65805V4.66291C39.7342 4.40035 39.5932 4.16696 39.5738 3.89468C39.5592 3.72936 39.4862 3.68074 39.3063 3.68074C34.0892 3.69046 28.8768 3.69046 23.6694 3.69046C23.4165 3.69046 23.1686 3.69046 22.9157 3.69046C22.8331 3.69046 22.7456 3.6856 22.731 3.79743C22.6969 4.03082 22.5705 4.23503 22.5608 4.47328V4.46842C22.4976 4.48787 22.4879 4.54136 22.4781 4.59484C22.4344 4.8574 22.2302 5.01299 22.0746 5.19776C21.8898 5.29986 21.7439 5.45059 21.5981 5.59646C21.5689 5.6305 21.5397 5.66453 21.5057 5.69857C21.4911 5.70829 21.4765 5.71802 21.4619 5.72288C21.2966 5.7326 21.2042 5.88819 21.0486 5.92223C21 5.90764 20.9562 5.90278 20.9514 5.97085H20.9562C20.9028 5.98058 20.8444 5.97571 20.7909 5.99516C19.9011 6.30635 18.9822 6.39387 18.0535 6.40359C17.7374 6.40845 17.7374 6.40359 17.7374 6.72936C17.7423 10.1427 17.7229 13.5559 17.7958 16.9692C17.8007 17.295 17.8055 17.6159 17.8104 17.9417C17.825 18.355 17.8396 18.7634 17.8493 19.1767C17.8687 19.7845 17.8833 20.3874 17.9076 20.9903C17.9125 21.1216 17.9125 21.2626 17.9854 21.3841C17.9903 21.4328 18 21.4765 18.0049 21.5251C17.9757 21.6516 17.9417 21.7731 17.9562 21.9044C18.0049 22.4976 18.034 23.0956 18.0924 23.6888C18.1313 24.107 18.1362 24.5252 18.2334 24.9336C18.2626 24.9968 18.2917 25.0551 18.282 25.1281C18.1994 25.2399 18.2528 25.3663 18.2674 25.4781C18.3598 26.2026 18.4376 26.932 18.5835 27.6516C18.7488 28.4538 18.8752 29.2658 19.1621 30.0438L19.1572 30.0389C19.1864 30.2723 19.2788 30.4862 19.3566 30.705C19.4392 30.9433 19.4733 31.201 19.6434 31.4052V31.4004C19.658 31.449 19.6045 31.5414 19.7212 31.5219C19.731 31.5559 19.7407 31.59 19.7504 31.624C19.8233 31.9984 19.9935 32.3242 20.2075 32.6354C20.2221 32.6499 20.2366 32.6645 20.2512 32.684L20.2609 32.6888L20.2658 32.684C20.3144 32.7423 20.3096 32.8347 20.3922 32.8687C20.3582 32.9174 20.3485 32.966 20.3874 33.0243C20.4895 33.1848 20.5673 33.3647 20.7083 33.5008C20.7423 33.5495 20.7763 33.5932 20.8104 33.6418C20.8201 33.671 20.8298 33.6905 20.859 33.6905Z" fill="#C0C2C2"/>
<path d="M11.8882 0.267334C11.9076 0.291645 11.9271 0.315956 11.8979 0.340268C11.8882 0.349992 11.8639 0.335405 11.8444 0.330542C11.859 0.311094 11.8736 0.291645 11.8882 0.267334Z" fill="#FDFDFD"/>
<path d="M55.9352 35.8054C55.94 35.8249 55.9449 35.8443 55.9497 35.8638C55.9303 35.8638 55.9108 35.8589 55.8865 35.8589C55.9011 35.8443 55.9157 35.8249 55.9352 35.8054Z" fill="#FDFDFD"/>
<path d="M55.6094 34.7649C55.6045 34.7503 55.5948 34.7309 55.59 34.7163C55.6094 34.7212 55.624 34.7212 55.6434 34.726C55.6337 34.7406 55.624 34.7552 55.6094 34.7649Z" fill="#FDFDFD"/>
<path d="M42.6127 44.5769C42.6613 44.8249 42.6224 45.0729 42.6224 45.316C42.6224 45.5007 42.5349 45.4132 42.4668 45.3549C42.5932 45.3889 42.5932 45.3111 42.5981 45.2236C42.5981 45.0096 42.6078 44.7957 42.6127 44.5769Z" fill="#C0C2C2"/>
<path d="M30.6516 48.1362C30.7196 48.3939 30.6807 48.6565 30.6613 48.9093C30.6516 49.0066 30.6078 48.8947 30.5835 48.8704C30.7148 48.637 30.6078 48.3793 30.6516 48.1362Z" fill="#C0C2C2"/>
<path d="M19.4733 45.4183C19.4781 45.2481 19.5462 45.0828 19.4879 44.9126C19.5754 45.0828 19.5851 45.2529 19.4733 45.4183Z" fill="#C0C2C2"/>
<path d="M31.0113 49.4829C30.9335 49.2155 30.9919 48.9481 30.9919 48.6807C31.0502 48.9481 30.987 49.2155 31.0113 49.4829Z" fill="#C0C2C2"/>
<path d="M24.9676 37.2254C24.9335 37.2254 24.8946 37.2254 24.8606 37.2254C24.7974 37.0941 24.6855 37.0309 24.5494 36.9969H24.5543C24.3889 36.8704 24.2139 36.7635 24.0243 36.6808C24.0146 36.6662 24.0048 36.6516 23.9902 36.6371H23.9951C23.9513 36.6468 23.9027 36.6516 23.8687 36.6127C23.8687 36.5787 23.8541 36.5593 23.8201 36.5544H23.8249C23.752 36.4523 23.6548 36.3891 23.5283 36.3599L23.5332 36.3648C23.4846 36.3307 23.4748 36.2286 23.3776 36.2724C23.3582 36.2432 23.3387 36.214 23.3193 36.1897C23.2609 36.1119 23.1977 36.0341 23.0907 36.0244H23.0956C22.9351 35.9272 22.8622 35.7084 22.6385 35.7084C22.4635 35.509 22.2885 35.3097 22.0599 35.1687C22.0308 35.0082 21.8995 34.9401 21.7828 34.8575L21.7877 34.8623C21.7244 34.7456 21.6369 34.6533 21.5397 34.5706V34.5755C21.5251 34.556 21.5056 34.5414 21.4911 34.522V34.5268C21.4765 34.4782 21.4911 34.4053 21.4084 34.4101C21.4181 34.3129 21.3014 34.3178 21.282 34.2497C21.1556 34.0844 21.034 33.9142 20.9076 33.7489V33.7537C20.893 33.7343 20.8736 33.7197 20.859 33.7003L20.8638 33.7051C20.8492 33.6905 20.8298 33.676 20.8152 33.6614C20.7812 33.6127 20.7471 33.569 20.7131 33.5204C20.6936 33.2675 20.4846 33.1071 20.3971 32.8883C20.3144 32.8542 20.3193 32.757 20.2706 32.7035H20.2512C20.2366 32.6889 20.222 32.6743 20.2074 32.6597C20.0956 32.3048 19.9108 31.979 19.7504 31.6484C19.7407 31.6144 19.7309 31.5803 19.7212 31.5463C19.7163 31.4928 19.6872 31.449 19.6434 31.4247V31.4296C19.5753 31.0892 19.4343 30.7732 19.3225 30.4474C19.2787 30.3161 19.2836 30.1557 19.1523 30.0633L19.1572 30.0682C19.1669 29.6549 19.0065 29.2756 18.9092 28.8915C18.7099 28.1087 18.6126 27.3113 18.4667 26.5187C18.3841 26.0665 18.3987 25.5998 18.2771 25.1573C18.2917 25.0844 18.2625 25.026 18.2285 24.9628C18.3112 24.8948 18.2625 24.8121 18.2577 24.7392C18.2382 24.5447 18.2042 24.355 18.1896 24.1654C18.1264 23.2951 18.068 22.4296 18.0048 21.5593C18 21.5106 17.9902 21.4669 17.9854 21.4182C17.9513 20.3097 17.9173 19.2059 17.8833 18.0973C17.8833 18.0439 17.893 17.9758 17.8055 17.9758C17.8006 17.65 17.7958 17.3291 17.7909 17.0033C17.8687 16.9207 17.8347 16.8186 17.8347 16.7262C17.8201 14.9126 17.8006 13.099 17.7958 11.2853C17.7909 9.76833 17.8006 8.25618 17.7909 6.73916C17.7909 6.54953 17.8444 6.49605 18.034 6.49605C18.6126 6.50091 19.1961 6.51063 19.765 6.37935C20.1685 6.28697 20.5915 6.23349 20.9562 6.00982H20.9513C20.9951 6.00982 21.034 6.00496 21.0486 5.9612C21.2042 5.92716 21.2966 5.77157 21.4619 5.76185C21.4959 5.78616 21.4959 5.75212 21.5056 5.73754C21.5348 5.7035 21.564 5.66947 21.5932 5.63543C21.8217 5.58194 21.9384 5.40204 22.0697 5.23673C22.2253 5.05196 22.4295 4.89637 22.4732 4.63381C22.5607 4.62895 22.5559 4.56574 22.5559 4.50739V4.51225C22.6872 4.38583 22.692 4.21079 22.7455 4.05034C22.8087 3.87044 22.8914 3.77805 23.115 3.77805C25.4003 3.78778 27.6807 3.78292 29.9659 3.78292C33.034 3.78292 36.1021 3.78292 39.1701 3.77319C39.3744 3.77319 39.4667 3.81695 39.5008 4.04062C39.5397 4.26914 39.5883 4.52198 39.7682 4.70188V4.69702C39.8557 4.91582 39.9724 5.11031 40.162 5.25131C40.3371 5.54305 40.6823 5.61598 40.9108 5.83478C41.0032 5.90772 41.115 5.93689 41.2269 5.9612H41.222C41.2512 6.00982 41.2998 6.01468 41.3484 6.00982H41.3436C41.3679 6.02927 41.3873 6.06331 41.4116 6.07303C42.1313 6.30156 42.846 6.52522 43.6142 6.48146C43.7358 6.52522 43.8525 6.41825 43.974 6.46201C44.0227 6.59815 44.1442 6.53008 44.2172 6.52522C44.4165 6.51549 44.4749 6.58357 44.4749 6.78778C44.4554 10.1865 44.5186 13.59 44.436 16.9888C44.4165 17.791 44.4262 18.5884 44.3922 19.3907C44.3533 20.2562 44.3679 21.1217 44.2852 21.9823C44.2366 22.4831 44.2755 22.9888 44.2172 23.4847C44.115 24.3259 44.0907 25.1719 43.9643 26.0082C43.8671 26.6695 43.7941 27.3356 43.6872 27.9969C43.6483 28.2205 43.5364 28.4393 43.6094 28.6776C43.6094 28.8818 43.41 29.0325 43.4586 29.2513C43.3419 29.368 43.3468 29.5333 43.3225 29.6743C43.269 29.9855 43.1086 30.2675 43.1037 30.5884C43.0745 30.7294 42.953 30.8461 42.9724 31.0017C42.7877 31.2546 42.7293 31.556 42.6515 31.8526C42.2236 32.7813 41.7763 33.7003 41.0859 34.4734C40.8573 34.7311 40.7018 35.0568 40.4246 35.2659C40.1134 35.4993 39.8217 35.7618 39.5251 36.005C39.2868 36.2043 39.0291 36.3794 38.7909 36.5738C38.577 36.7489 38.3193 36.8704 38.0713 36.9969C37.9497 37.0601 37.8622 37.1865 37.7163 37.2011C37.4732 37.3324 37.1961 37.4101 36.9919 37.6192H36.9967C36.8266 37.6289 36.671 37.6727 36.5834 37.8429C36.5348 37.8526 36.4862 37.8623 36.4376 37.8721C36.2139 37.9207 36.0097 38.0179 35.8201 38.1492C35.7909 38.1687 35.7569 38.1881 35.7277 38.2076C35.2901 38.3097 34.8865 38.4944 34.483 38.6792C34.3663 38.7375 34.2642 38.8299 34.128 38.8396C34.0843 38.7959 34.0405 38.8202 33.9967 38.8348C33.6904 38.9418 33.3841 39.0487 33.0826 39.1606C33 39.1946 32.8638 39.1508 32.8444 39.3016C32.8055 39.3113 32.7617 39.321 32.7228 39.3259C32.6937 39.3161 32.6596 39.2918 32.6353 39.3016C32.3241 39.3988 32.0081 39.4863 31.7066 39.603C31.5899 39.6516 31.4246 39.6079 31.3517 39.7586H31.3565C31.3274 39.7635 31.2982 39.7635 31.2642 39.7683C31.1912 39.7586 31.1231 39.8315 31.0454 39.7878C31.0308 39.7635 31.0259 39.7148 31.0065 39.71C30.5348 39.5738 30.0826 39.3745 29.6013 39.2724H29.6061C29.5624 39.2238 29.5186 39.1703 29.4505 39.2335C29.4214 39.2286 29.3873 39.2238 29.3582 39.2189C29.1783 39.0293 28.9351 39.0098 28.6969 38.9563C28.5024 38.9174 28.3225 38.8494 28.1523 38.7521C28.128 38.6695 28.0551 38.6986 27.9967 38.6889H28.0016C27.953 38.5722 27.846 38.6063 27.7536 38.5917C27.4911 38.4361 27.2188 38.3048 26.9125 38.261C26.8687 38.2465 26.8249 38.2319 26.7763 38.2221C26.752 38.12 26.6693 38.1103 26.5818 38.1054H26.5867C26.3727 37.9499 26.1345 37.8478 25.8817 37.77C25.765 37.7651 25.6774 37.6873 25.5753 37.6484C25.4343 37.4393 25.1864 37.4004 24.9821 37.2886C24.987 37.2448 24.9773 37.2351 24.9676 37.2254ZM37.235 9.22862C37.0842 9.31128 36.9335 9.39394 36.7828 9.47173C36.739 9.53008 36.7536 9.59815 36.7536 9.66136C36.7536 11.6841 36.7536 13.7067 36.7585 15.7343C36.7585 15.8072 36.739 15.8802 36.7974 15.9434C36.6321 16.1913 36.5445 16.4831 36.3403 16.7067C36.3306 16.6095 36.316 16.5171 36.316 16.4199C36.316 15.7246 36.316 15.0293 36.316 14.334C36.316 13.8477 36.3063 13.3664 36.3014 12.8802C36.3112 12.7537 36.2139 12.7878 36.1507 12.7878C35.9319 12.7829 35.7131 12.7781 35.4943 12.7926C35.1928 12.8072 34.8865 12.744 34.5851 12.8267C34.483 12.8559 34.3906 12.8947 34.3128 12.9725C34.1426 13.0066 34.0697 13.0892 34.0745 13.2837C34.0842 15.7003 34.0794 18.1168 34.0794 20.5382C34.0794 20.616 34.0648 20.6986 34.0551 20.7764C33.9092 20.6938 33.7633 20.6403 33.6612 20.8396C33.6564 20.757 33.6466 20.6792 33.6466 20.5965C33.6466 18.7732 33.6466 16.9499 33.6466 15.1314C33.6466 14.9709 33.6466 14.8056 33.6466 14.6452C33.6466 14.5722 33.6515 14.4944 33.5445 14.4944C33.0146 14.4944 32.4846 14.4944 31.9546 14.4944C31.9546 14.5187 31.9546 14.5382 31.9546 14.5625C32.4116 14.5625 32.8687 14.5625 33.3306 14.5625C33.0632 14.7424 32.7763 14.6841 32.4992 14.6792C32.2366 14.6743 31.9692 14.7375 31.7115 14.6403C31.6774 14.65 31.6385 14.6646 31.6045 14.6743C31.3954 14.6889 31.4295 14.8445 31.4295 14.9758C31.4295 17.8348 31.4295 20.6986 31.4246 23.5576C31.2593 23.6792 31.1718 23.8785 30.9967 23.9855C30.9919 23.9272 30.987 23.8737 30.987 23.8153C30.987 21.2578 30.9821 18.7051 30.987 16.1476C30.987 15.9482 30.9432 15.851 30.7342 15.9045C30.2479 15.9045 29.7569 15.9045 29.2706 15.9045C29.2706 15.9239 29.2706 15.9482 29.2706 15.9677C29.7569 15.9677 30.2431 15.9677 30.7293 15.9677C30.9384 15.9871 30.9287 16.1281 30.9287 16.2886C30.9238 18.6905 30.9287 21.0925 30.9287 23.4944C30.9287 23.6889 30.9384 23.8834 30.9432 24.0779C30.8411 24.1946 30.671 24.3016 30.6515 24.4328C30.6272 24.5933 30.8557 24.6662 30.9432 24.8024C30.9384 24.8996 30.9287 24.9969 30.9287 25.0892C30.9287 25.9693 30.9238 26.8494 30.9335 27.7294C30.9335 27.8948 30.8898 27.9725 30.7196 27.9434C30.671 27.9385 30.6223 27.9434 30.5737 27.9385C30.5689 27.7926 30.5591 27.6468 30.5543 27.5058C30.5397 26.8056 30.5786 26.1006 30.5348 25.4004C30.5348 25.3615 30.5348 25.3178 30.5348 25.2789C30.5397 25.1962 30.5543 25.1184 30.5543 25.0358C30.5543 22.2059 30.5591 19.381 30.5543 16.5512C30.5543 16.4831 30.598 16.3956 30.5008 16.3518C30.4862 16.3469 30.4716 16.3858 30.4813 16.3615C30.6321 16.0649 30.423 16.0747 30.2382 16.0698C29.8736 16.0649 29.5089 16.0747 29.1442 16.0649C28.7893 16.0552 28.7893 16.0455 28.7893 16.3956C28.7893 19.663 28.7893 22.9255 28.7893 26.193C28.6142 26.2465 28.517 26.402 28.3663 26.4944C28.3614 26.4312 28.3565 26.3631 28.3565 26.2999C28.3565 23.1589 28.3565 20.0131 28.3565 16.8721C28.3565 16.6873 28.3517 16.4977 28.3565 16.3129C28.3565 16.2254 28.3322 16.1768 28.235 16.1768C27.7196 16.1816 27.2042 16.167 26.6888 16.1865C26.3484 16.2011 26.1685 16.3615 26.1685 16.5803C26.1685 20.3534 26.1685 24.1314 26.1685 27.9045C26.1685 28.2254 26.1928 28.5512 26.1491 28.8721C26.0518 28.838 26.0275 28.7359 25.9692 28.6678C25.9108 28.5949 25.8768 28.4977 25.7504 28.5366C25.7455 28.449 25.7407 28.3567 25.7407 28.2691C25.7407 25.4831 25.7407 22.7019 25.7407 19.9158C25.7407 19.8575 25.7407 19.804 25.7407 19.7456C25.7407 19.663 25.7066 19.6289 25.624 19.6289C25.0988 19.6289 24.5737 19.6289 24.0486 19.6289C24.4424 19.6824 24.8363 19.6873 25.235 19.6824C25.3906 19.6824 25.5219 19.7748 25.658 19.8186C25.7407 19.8429 25.6872 20.0422 25.6872 20.1589C25.692 22.8721 25.6872 25.5803 25.692 28.2935C25.692 28.3907 25.7018 28.4879 25.7115 28.5803C25.5948 28.6824 25.4781 28.7845 25.3225 28.8332C25.3176 28.1136 25.3128 27.3939 25.3128 26.6695C25.3128 24.4085 25.3128 22.1476 25.3225 19.8915C25.3225 19.7311 25.2447 19.7651 25.1669 19.7651C24.7779 19.7651 24.3889 19.7845 24 19.7602C23.5429 19.7359 23.5429 19.7165 23.5429 20.1735C23.5429 23.1152 23.5429 26.0568 23.5429 28.9936C23.5429 29.0957 23.577 29.2076 23.4846 29.2951C23.256 29.2756 23.1296 29.4361 22.9886 29.5722C22.8768 29.5819 22.8428 29.65 22.8768 29.7521C22.8671 30.0244 22.6726 30.2383 22.6531 30.5058C22.5364 30.4912 22.4586 30.569 22.3663 30.6127C22.1134 30.7246 21.8849 30.8996 21.6077 30.958C21.5056 30.7781 21.5932 30.5933 21.5932 30.4085C21.5786 23.2319 21.6175 16.0601 21.5737 8.8834C21.5737 8.82019 21.5689 8.76185 21.6418 8.75212C21.7828 8.72781 21.7342 8.63543 21.6953 8.57222C21.5737 8.37287 21.4424 8.18324 21.316 7.98875C21.2868 7.95958 21.2528 7.93527 21.2334 7.90609C21.1993 7.83802 21.2139 7.72619 21.1021 7.73592C21.0097 7.74564 20.9805 7.83802 20.9368 7.91582C20.8201 8.12976 20.7034 8.34856 20.5429 8.54305C20.504 8.59167 20.4797 8.66947 20.5721 8.70836C20.6499 8.81533 20.6207 8.94175 20.6207 9.06331C20.6207 16.7165 20.6207 24.3745 20.6207 32.0277C20.6207 32.5576 20.5624 32.4701 21.0486 32.4701C27.6807 32.4701 34.3176 32.4701 40.9497 32.4701C41.0518 32.5479 41.1588 32.5625 41.2706 32.4798C41.3436 32.4264 41.4262 32.3777 41.5089 32.3291C41.7131 32.3729 41.8103 32.1541 41.9902 32.1298C42.0583 32.12 42.0826 32.0714 42.0972 32.0179C42.1167 31.9401 42.0389 31.9304 41.9951 31.9061C41.7666 31.7748 41.5381 31.6338 41.2998 31.5123C41.1831 31.4539 41.0421 31.2594 40.9254 31.5268C40.9157 31.5512 40.8184 31.5414 40.765 31.5414C34.658 31.5414 28.551 31.5414 22.4441 31.5414C22.3079 31.5414 22.1718 31.5317 22.0308 31.5268C22.2885 31.3178 22.6191 31.2254 22.8914 31.0455C22.906 31.0503 22.9206 31.0503 22.9351 31.0552C25.6969 31.0552 28.4538 31.0552 31.2155 31.0552C33.9821 31.0552 36.7536 31.0455 39.5202 31.0455C39.6855 31.0455 39.8266 31.0309 39.8995 30.8607C40.0308 30.7683 40.1183 30.6176 40.2739 30.5447C40.4343 30.4717 40.4392 30.3696 40.3419 30.2335C40.2642 30.1265 40.2253 29.9952 40.1523 29.8834C40.0308 29.7132 40.021 29.4653 39.8022 29.3631C39.8703 29.2124 39.7488 29.2562 39.6807 29.2465C39.4667 29.2124 39.2479 29.2999 39.0437 29.1978C39.0437 29.1103 39.0486 29.0179 39.0486 28.9304C39.0486 23.6986 39.0486 18.4717 39.0535 13.24C39.0535 12.851 39.0291 12.462 39.0729 12.0779C39.1701 12.0876 39.1896 12.0244 39.2139 11.9466C39.2723 11.7375 39.3452 11.5333 39.4035 11.3242C39.5397 10.8429 39.5397 10.8429 39.0535 10.7067C39.0583 10.4928 39.0632 10.2789 39.0729 10.0649C39.2285 10.1087 39.3889 10.1427 39.5348 10.1962C39.671 10.2497 39.7244 10.1816 39.7244 10.0747C39.7244 9.9531 39.9092 9.78292 39.671 9.70998C39.5202 9.66136 39.3452 9.61274 39.1993 9.64191C39.0535 9.67109 39.1556 9.88016 39.0729 9.98227C39.0632 9.77806 39.0535 9.5787 39.0437 9.37449C39.0778 9.2189 39.0243 9.16541 38.859 9.17028C38.4651 9.18 38.0713 9.17028 37.6774 9.17514C37.517 9.18972 37.3711 9.14596 37.235 9.22862Z" fill="#66C3CF"/>
<path d="M44.5235 17.4507C44.5186 17.4361 44.5138 17.4264 44.5089 17.4118C44.5089 17.4069 44.5186 17.4021 44.5235 17.3923C44.5235 17.4166 44.5235 17.4361 44.5235 17.4507Z" fill="#66C3CF"/>
<path d="M8.71314 41.859C8.40196 41.859 8.17344 41.5916 8.18316 41.2367C8.18802 40.9012 8.44086 40.6581 8.77149 40.6629C9.08267 40.6678 9.32092 40.9352 9.32579 41.2756C9.32579 41.611 9.06322 41.859 8.71314 41.859Z" fill="#F9E90A"/>
<path d="M48.2334 42.2431C48.2431 42.3501 48.1653 42.3938 48.0973 42.4279C47.9952 42.4765 47.8833 42.5008 47.7812 42.5446C47.6743 42.5932 47.6159 42.5689 47.5819 42.4571C47.5478 42.3549 47.5624 42.282 47.6743 42.2528C47.8055 42.2139 47.9368 42.1702 48.0681 42.1361C48.1556 42.107 48.2237 42.1361 48.2334 42.2431Z" fill="#F9E90A"/>
<path d="M32.5089 48.3647C32.7131 48.5446 32.8006 48.8169 32.6888 49.0016C32.5235 49.2642 32.2561 49.2545 31.9886 49.2156C31.9886 49.1038 31.9886 48.9919 31.9886 48.8801C31.9886 48.3501 31.9886 48.3501 32.5089 48.3647Z" fill="#F9E90A"/>
<path d="M32.5089 48.3648C31.9887 48.3502 31.9887 48.3502 31.9838 48.8802C31.9838 48.992 31.9838 49.1038 31.9838 49.2157C31.9255 48.958 31.9595 48.6954 31.9498 48.4377C31.9449 48.3745 31.9692 48.3259 32.0421 48.3307C32.1977 48.3405 32.3582 48.287 32.5089 48.3648Z" fill="#C0C2C2"/>
<path d="M15.3938 43.2592C15.389 43.5121 15.1945 43.7309 14.9708 43.7309C14.7082 43.7309 14.4943 43.5121 14.4992 43.2495C14.504 42.9967 14.6985 42.7779 14.9222 42.773C15.1604 42.7682 15.3987 43.0113 15.3938 43.2592Z" fill="#F9E90A"/>
<path d="M19.1912 45.0923C19.1912 45.3597 18.9967 45.5834 18.7585 45.5785C18.5202 45.5785 18.2917 45.35 18.2917 45.1166C18.2868 44.8589 18.4959 44.6304 18.7244 44.6304C18.9676 44.6352 19.1912 44.854 19.1912 45.0923Z" fill="#F9E90A"/>
<path d="M38.577 47.7327C38.3533 47.7278 38.1783 47.5187 38.1831 47.2513C38.188 46.9985 38.3922 46.8088 38.6596 46.8088C38.8979 46.8088 39.0875 47.0179 39.0875 47.2659C39.0778 47.5382 38.8639 47.7375 38.577 47.7327Z" fill="#F9E90A"/>
<path d="M44.1734 44.2854C44.0713 44.2854 44.0616 44.2222 44.047 44.1687C44.0324 44.1152 43.9643 44.052 44.0518 44.0034C44.1831 43.9304 44.3193 43.8575 44.4554 43.7991C44.5186 43.77 44.6013 43.7651 44.645 43.8429C44.6937 43.9304 44.6596 44.0034 44.5867 44.052C44.4505 44.1395 44.2998 44.2173 44.1734 44.2854Z" fill="#F9E90A"/>
<path d="M34.3566 48.6467C34.2447 48.6516 34.1086 48.7683 34.0502 48.671C33.987 48.5738 34.0746 48.4279 34.1524 48.3015C34.2399 48.4036 34.3225 48.5009 34.3566 48.6467Z" fill="#F9E90A"/>
<path d="M23.6548 46.979C23.6791 47.1492 23.7763 47.2853 23.6645 47.402C23.6305 47.4361 23.4603 47.4069 23.436 47.3291C23.3728 47.1638 23.5527 47.1151 23.6548 46.979Z" fill="#F9E90A"/>
<path d="M20.5575 8.70815C20.4603 8.66925 20.4895 8.59145 20.5283 8.54283C20.6839 8.34834 20.8006 8.1344 20.9222 7.9156C20.9611 7.84267 20.9951 7.74543 21.0875 7.7357C21.1945 7.72598 21.1848 7.83781 21.2188 7.90588C21.2382 7.93992 21.2723 7.96423 21.3014 7.98854C21.2771 8.12468 21.3938 8.20248 21.4424 8.30945C21.4862 8.40669 21.6175 8.52825 21.564 8.60118C21.4473 8.76163 21.4911 8.92695 21.4911 9.09227C21.4862 16.23 21.4862 23.3629 21.4862 30.5007C21.4862 30.807 21.4911 31.1182 21.4813 31.4245C21.4765 31.5752 21.5154 31.6433 21.6856 31.6336C21.9189 31.619 22.1572 31.6287 22.3906 31.6287C28.3906 31.6287 34.3954 31.6287 40.3954 31.6239C40.624 31.6239 40.8768 31.7308 41.081 31.5218C41.1005 31.5023 41.1734 31.5266 41.2172 31.5509C41.4214 31.6628 41.6256 31.7746 41.8249 31.8913C41.966 31.9691 41.9854 32.0517 41.8201 32.1198C41.6985 32.1684 41.5964 32.2414 41.504 32.324C41.4262 32.3727 41.3436 32.4164 41.2658 32.4748C41.154 32.5574 41.0518 32.5428 40.9449 32.465C40.8719 32.3629 40.765 32.4164 40.6775 32.4164C34.1377 32.4116 27.598 32.4116 21.0583 32.4116C20.9368 32.4116 20.8201 32.397 20.6985 32.3921C20.7034 32.3678 20.7034 32.3435 20.7034 32.3192C20.7034 24.5639 20.7034 16.8086 20.6985 9.05337C20.6985 8.94154 20.6888 8.8297 20.6839 8.71787C20.645 8.69842 20.6061 8.68384 20.5575 8.70815Z" fill="#F9E90A"/>
<path d="M36.7974 15.9432C36.7391 15.88 36.7585 15.8071 36.7585 15.7342C36.7585 13.7115 36.7537 11.6888 36.7537 9.66122C36.7537 9.59801 36.7391 9.52994 36.7828 9.4716C36.8704 9.46673 36.9628 9.46187 37.0503 9.45215C37.5219 9.45215 37.9935 9.45215 38.4603 9.45215C38.5722 9.75361 38.47 10.0697 38.5235 10.376C38.5187 11.0907 38.5089 11.8006 38.5041 12.5154C38.4214 12.4959 38.3436 12.4473 38.2999 12.5834C38.1929 12.8946 38.0616 13.1961 37.9449 13.4975C37.9206 13.5559 37.8963 13.6239 37.9838 13.6531C38.154 13.7163 38.2999 13.8427 38.4944 13.833C38.5041 13.9205 38.5235 14.0081 38.5235 14.0956C38.5235 19.0064 38.5235 23.9222 38.5235 28.833C38.5235 28.9546 38.5284 29.0761 38.5333 29.1977C38.5187 29.2317 38.5041 29.2658 38.4944 29.2998C37.7261 29.2998 36.9628 29.2998 36.1945 29.2998C36.2042 29.2706 36.214 29.2415 36.2237 29.2123C36.2383 29.2074 36.248 29.2026 36.2626 29.2026C36.282 29.2123 36.3015 29.222 36.3161 29.2366C36.7245 29.3047 36.7585 29.2901 36.7585 29.0081C36.7585 25.1037 36.7537 21.2042 36.7537 17.2998C36.9384 16.9692 37.1281 16.6434 37.3128 16.3128C37.3371 16.2641 37.3906 16.1961 37.3226 16.1669C37.1475 16.094 37.0162 15.9141 36.7974 15.9432ZM37.7067 14.2317C37.6143 14.2317 37.5997 14.3047 37.5705 14.3581C37.483 14.5478 37.4004 14.7374 37.308 14.927C37.1038 15.3452 37.1038 15.3403 37.5268 15.5494C37.6483 15.6077 37.6921 15.5834 37.7456 15.4716C37.8817 15.1701 38.0276 14.8784 38.1686 14.5769C38.188 14.538 38.2367 14.4797 38.1783 14.4505C38.0227 14.3727 37.8574 14.2998 37.7067 14.2317ZM37.3858 10.6628C37.4101 10.7261 37.2788 10.9157 37.5414 10.9254C37.7553 10.9351 37.8282 10.8671 37.8136 10.6531C37.8088 10.551 37.7407 10.3808 37.8623 10.3468C38.0616 10.2885 37.9692 10.2301 37.8963 10.1474C37.8136 10.0502 37.731 9.95296 37.6532 9.85085C37.6094 9.79737 37.5754 9.77792 37.5268 9.85085C37.4295 9.987 37.3274 10.1183 37.2253 10.2544C37.2059 10.2836 37.1816 10.3225 37.2302 10.3225C37.449 10.3371 37.3469 10.5073 37.3858 10.6628Z" fill="#049646"/>
<path d="M36.1945 29.3095C36.9627 29.3095 37.7261 29.3095 38.4944 29.3095C38.6499 29.3144 38.8007 29.3095 38.9563 29.3192C39.2334 29.3387 39.5203 29.2657 39.7926 29.3727C40.0114 29.4748 40.026 29.7228 40.1475 29.893C40.2253 29.9999 40.2642 30.1312 40.3371 30.243C40.4344 30.3792 40.4295 30.4813 40.2691 30.5542C40.1135 30.6223 40.0308 30.773 39.8947 30.8703C39.7877 30.88 39.7245 30.8654 39.7002 30.7293C39.6224 30.3549 39.5251 29.9805 39.4328 29.6109C39.4376 29.6109 39.4474 29.6061 39.4522 29.6061C39.4474 29.6012 39.4425 29.5964 39.4376 29.5866C39.4328 29.5915 39.4328 29.6012 39.4279 29.6061C39.2723 29.6061 39.1216 29.6061 38.966 29.6109C37.7845 29.645 36.6029 29.5331 35.4214 29.5964C35.3971 29.5964 35.3582 29.5186 35.3533 29.6109C35.3533 29.645 35.3485 29.679 35.3631 29.7033C35.3825 29.7325 35.4166 29.7325 35.4457 29.7082C35.5089 29.6498 35.5916 29.645 35.6743 29.645C36.8412 29.6498 38.0081 29.6498 39.1702 29.6547C39.2869 29.6547 39.3598 29.6547 39.4036 29.8152C39.4765 30.1069 39.5543 30.3986 39.637 30.6904C39.705 30.9237 39.6127 30.9675 39.4085 30.9675C36.7294 30.9675 34.0454 30.9724 31.3663 30.9772C31.1961 30.9772 31.1426 30.9189 31.1913 30.7633C31.2837 30.4716 31.3809 30.1847 31.4636 29.893C31.4976 29.7617 31.5657 29.7325 31.6921 29.7325C31.9984 29.7374 32.3047 29.7325 32.6159 29.7325C31.9303 29.7131 31.2448 29.7131 30.5592 29.7131C28.9546 29.7131 27.3452 29.7325 25.7407 29.6061C25.6191 29.5964 25.4976 29.5964 25.376 29.5915C25.5073 29.4943 25.6386 29.397 25.7747 29.3046C25.8963 29.3046 26.013 29.3046 26.1345 29.3046C26.3485 29.3095 26.5673 29.3143 26.7812 29.3192C26.8687 29.3241 26.9125 29.2949 26.9368 29.2122C27.0243 28.8962 27.1216 28.585 27.214 28.2738C27.2431 28.2495 27.2723 28.2203 27.3015 28.196C27.3258 28.1766 27.3501 28.162 27.3744 28.1426H27.3696C27.4571 28.1523 27.5057 28.1037 27.5349 28.0307L27.5495 28.021C27.637 28.0259 27.7245 28.0356 27.8169 28.0356C30.2285 28.0356 32.6402 28.0356 35.0519 28.0404C35.1297 28.0404 35.2269 27.9967 35.2999 28.0988C35.1783 28.2009 35.1005 28.3273 34.9012 28.3273C33.8801 28.3127 32.8639 28.3127 31.8428 28.3127C31.6824 28.3127 31.5268 28.337 31.3663 28.3516C32.4603 28.3905 33.5543 28.3808 34.6435 28.3905C34.9157 28.3954 35.1734 28.4003 35.3485 28.1426C35.3777 28.0988 35.4311 28.0648 35.4992 28.0939C35.6256 28.3225 35.752 28.5461 35.8833 28.7746C35.8687 28.8476 35.9709 28.8379 35.9757 28.9011C35.966 29.0372 36.0632 29.2025 35.8687 29.3095C35.9757 29.3095 36.0875 29.3095 36.1945 29.3095Z" fill="#F9E90A"/>
<path d="M35.8833 28.7795C35.7569 28.551 35.6305 28.3274 35.4992 28.0988C35.4992 27.9384 35.3825 27.9627 35.2804 27.9578C34.8817 27.9481 34.4781 27.9919 34.0794 27.9335C34.0794 26.0032 34.0794 24.068 34.0794 22.1377C34.0794 21.9043 34.1037 21.671 34.06 21.4376C34.0648 21.423 34.0648 21.3987 34.0746 21.3889C34.2885 21.1799 34.3323 20.9708 34.0551 20.7763C34.0648 20.6985 34.0794 20.6158 34.0794 20.5381C34.0794 18.1215 34.0843 15.705 34.0746 13.2836C34.0746 13.0891 34.1426 13.0064 34.3128 12.9724C34.3712 13.0551 34.4587 13.0308 34.5316 13.0308C34.9741 13.0356 35.4165 13.0356 35.859 13.0405C35.8541 13.1231 35.8444 13.2009 35.8444 13.2836C35.8444 14.7131 35.8444 16.1377 35.8444 17.5672C35.8396 17.6596 35.8007 17.7325 35.7472 17.8103C35.611 18.0194 35.4797 18.2285 35.3485 18.4376C35.3193 18.4911 35.2658 18.5397 35.2853 18.6126C35.3144 18.705 35.7131 18.8946 35.825 18.88C35.8298 19.0162 35.8347 19.1523 35.8347 19.2933C35.8347 22.2301 35.8396 25.162 35.8298 28.0988C35.8396 28.3128 35.9076 28.5413 35.8833 28.7795ZM35.3922 19.5024C35.3922 19.4343 35.3582 19.4149 35.3242 19.3954C35.2221 19.3274 35.1151 19.269 35.0227 19.1912C34.9352 19.1231 34.8866 19.1377 34.8331 19.2252C34.7067 19.4149 34.5754 19.5948 34.4441 19.7844C34.1718 20.1734 34.1718 20.1685 34.5754 20.4262C34.6823 20.4943 34.7456 20.4748 34.8136 20.3776C34.9789 20.1296 35.1491 19.8865 35.3193 19.6385C35.3436 19.5899 35.3728 19.5364 35.3922 19.5024ZM34.9789 14.6936C35.1686 14.7325 35.1977 14.6304 35.1929 14.4748C35.1929 14.3581 35.1345 14.1734 35.2269 14.1296C35.4652 14.0227 35.2853 13.9497 35.2269 13.8768C34.9546 13.5364 34.9546 13.5413 34.6921 13.9157C34.658 13.9643 34.5754 14.0518 34.624 14.0713C34.8477 14.1637 34.7407 14.3582 34.7455 14.4943C34.7504 14.6742 34.8185 14.718 34.9789 14.6936Z" fill="#049646"/>
<path d="M31.4149 23.5527C31.4149 20.6937 31.4149 17.8299 31.4198 14.9709C31.4198 14.8396 31.3809 14.6792 31.5948 14.6694C31.6532 14.7472 31.7407 14.7229 31.8185 14.7229C32.1783 14.7229 32.5381 14.7326 32.8979 14.7181C33.0632 14.7132 33.1702 14.757 33.2042 14.9223C33.2091 15.0098 33.214 15.1022 33.214 15.1897C33.214 16.9061 33.214 18.6224 33.214 20.3388C33.214 20.6937 33.2237 21.0536 33.2286 21.4085C33.141 21.5495 32.9806 21.7002 33.2577 21.8121C33.2188 21.8364 33.214 21.8753 33.214 21.919C33.214 22.3031 33.214 22.6873 33.214 23.0714C33.214 24.5155 33.214 25.9547 33.214 27.3988C33.214 27.5787 33.2966 27.7634 33.1897 27.9336C32.5965 27.9725 32.0081 27.9579 31.4149 27.9433C31.4198 27.3696 31.4247 26.7959 31.4198 26.2172C31.4149 25.6581 31.4441 25.0989 31.4052 24.5446C31.4052 24.4717 31.4587 24.4328 31.5025 24.3842C31.9157 23.932 31.9157 23.932 31.4149 23.5527ZM32.0908 15.7148C32.0908 15.8023 32.0859 15.8947 32.0908 15.9822C32.0908 16.3226 32.1297 16.3469 32.4749 16.2497C32.4798 16.2448 32.4846 16.2399 32.4895 16.2302C32.611 16.0552 32.3582 15.7537 32.6888 15.6516C32.6791 15.6224 32.6743 15.5933 32.6597 15.5641C32.4166 15.107 32.3388 15.0973 32.0324 15.5057C32.0276 15.5106 32.0227 15.5203 32.0179 15.5252C31.8574 15.6613 31.9498 15.6954 32.0908 15.7148ZM32.6645 22.1135C32.6256 22.167 32.5965 22.2059 32.5673 22.2399C32.4263 22.4053 32.2853 22.5706 32.1491 22.7359C31.8574 23.0908 31.8623 23.086 32.2026 23.3923C32.3047 23.4847 32.3533 23.4604 32.4311 23.368C32.6159 23.1443 32.8104 22.9304 32.9854 22.7018C33.0292 22.6435 33.1751 22.5949 33.0924 22.4976C32.9709 22.3664 32.8201 22.2594 32.6645 22.1135Z" fill="#049646"/>
<path d="M27.2139 28.274C27.1216 28.5852 27.0243 28.9012 26.9368 29.2124C26.9125 29.2999 26.8639 29.3242 26.7812 29.3194C26.5673 29.3096 26.3485 29.3096 26.1345 29.3048C26.1637 29.227 26.1588 29.1492 26.1442 29.0714C26.1394 29.0082 26.1394 28.945 26.1345 28.8818C26.1783 28.5609 26.154 28.2351 26.154 27.9142C26.154 24.1411 26.154 20.3631 26.154 16.59C26.154 16.3712 26.3339 16.2108 26.6742 16.1962C27.1896 16.1719 27.705 16.1865 28.2204 16.1865C28.3177 16.1865 28.342 16.2351 28.342 16.3226C28.3371 16.5074 28.342 16.697 28.342 16.8818C28.342 20.0228 28.342 23.1686 28.342 26.3096C28.342 26.3729 28.3517 26.4409 28.3517 26.5041C28.3371 26.5236 28.3177 26.543 28.3031 26.5625C28.2982 26.4798 28.2885 26.402 28.2885 26.3194C28.2885 23.0714 28.2885 19.8234 28.2885 16.5803C28.2885 16.2643 28.2642 16.2497 27.9919 16.3858C27.8703 16.4442 27.9238 16.5365 27.9238 16.6143C27.919 20.0374 27.919 23.4652 27.919 26.8883C27.7634 26.9855 27.9141 27.073 27.9287 27.1605C27.9287 27.4182 27.9287 27.6808 27.9287 27.9385C27.8314 27.9336 27.7342 27.9336 27.637 27.9288C27.705 27.8704 27.671 27.8169 27.6272 27.7635C27.5494 27.6711 27.4716 27.5787 27.4084 27.4766C27.3501 27.3842 27.3063 27.3793 27.2237 27.4474C27.0243 27.6127 26.8152 27.7635 26.611 27.919C26.2998 28.1622 26.2755 28.0503 26.5284 28.415C26.6499 28.5949 26.7472 28.663 26.9222 28.4733C27 28.4004 27.1167 28.3421 27.2139 28.274ZM26.6888 17.5673C26.6888 17.6014 26.6888 17.6257 26.6888 17.65C26.6694 17.825 26.7277 17.9077 26.9271 17.9126C27.141 17.9174 27.1361 17.8056 27.1313 17.6597C27.1313 17.5576 27.0827 17.3923 27.1605 17.368C27.4279 17.2805 27.2285 17.2027 27.175 17.12C27.1167 17.0325 27.0535 16.9498 26.9854 16.872C26.9611 16.8477 26.9222 16.7797 26.8979 16.8137C26.7763 16.9596 26.6645 17.1152 26.5478 17.2707C26.5381 17.2805 26.5575 17.3291 26.5673 17.3291C26.7569 17.3388 26.6791 17.4798 26.6888 17.5673ZM26.4895 16.3372C26.9903 16.308 27.5057 16.4685 27.9919 16.2497C27.4911 16.2934 26.9806 16.167 26.4895 16.3372Z" fill="#049646"/>
<path d="M30.5251 25.4051C30.5689 26.1053 30.53 26.8054 30.5446 27.5105C30.5494 27.6563 30.5543 27.8022 30.564 27.9432C29.966 27.9675 29.3679 27.9675 28.7747 27.9432C28.7796 27.6223 28.7844 27.3063 28.7893 26.9853C29.2075 26.6353 29.2075 26.6353 28.8088 26.2414C28.799 26.2317 28.7893 26.2171 28.7796 26.2025C28.7796 22.9351 28.7796 19.6725 28.7796 16.4051C28.7796 16.055 28.7796 16.0648 29.1345 16.0745C29.4992 16.0842 29.8639 16.0745 30.2285 16.0793C30.4133 16.0793 30.6224 16.0745 30.4716 16.3711C30.4619 16.3954 30.4765 16.3516 30.4911 16.3614C30.5883 16.4051 30.5446 16.4926 30.5446 16.5607C30.5446 19.3905 30.5446 22.2155 30.5446 25.0453C30.5446 25.128 30.53 25.2058 30.5251 25.2884C30.4376 25.2058 30.3404 25.128 30.2626 25.0356C30.1702 24.9286 30.107 24.9092 30 25.0259C29.859 25.1815 29.6937 25.3127 29.5478 25.4586C29.2318 25.7649 29.2366 25.7649 29.5235 26.0956C29.6256 26.2122 29.684 26.2025 29.7861 26.1004C30.0243 25.8573 30.2772 25.6336 30.5251 25.4051ZM29.6694 17.82C29.7909 17.8492 29.8639 17.82 29.8736 17.6596C29.8833 17.4991 29.7569 17.2803 30.0243 17.1928C30.034 17.1928 30.0389 17.1442 30.0243 17.1296C29.9271 16.9934 29.825 16.8622 29.718 16.7309C29.6791 16.6871 29.6305 16.6969 29.5964 16.7455C29.4992 16.8719 29.4019 16.9983 29.3096 17.1296C29.295 17.1539 29.2707 17.1977 29.3144 17.2074C29.577 17.2706 29.4408 17.4845 29.4506 17.6255C29.4652 17.7763 29.4895 17.8541 29.6694 17.82Z" fill="#049646"/>
<path d="M23.4651 29.3047C23.5575 29.2172 23.5235 29.1053 23.5235 29.0032C23.5235 26.0616 23.5235 23.1199 23.5235 20.1831C23.5235 19.7261 23.5235 19.7455 23.9805 19.7698C24.3695 19.7942 24.7585 19.7698 25.1475 19.7747C25.2253 19.7747 25.3031 19.7455 25.3031 19.9011C25.2934 22.1621 25.2934 24.423 25.2934 26.6791C25.2934 27.3987 25.2982 28.1183 25.3031 28.8428C25.1718 28.9352 25.0454 29.0324 24.9092 29.1199C24.8266 29.1685 24.7877 29.222 24.8412 29.3144C24.3792 29.3095 23.9222 29.3047 23.4651 29.3047ZM24.3549 21.4327C24.5446 21.4813 24.5835 21.3987 24.598 21.2236C24.6078 21.0972 24.4522 20.8833 24.7245 20.8347C24.7536 20.8298 24.7536 20.8006 24.7342 20.7763C24.6224 20.6305 24.5105 20.4846 24.389 20.3484C24.3209 20.2755 24.282 20.3825 24.2723 20.4117C24.2042 20.5672 23.9368 20.7423 24.0243 20.8201C24.1799 20.9562 24.1313 21.0875 24.141 21.2188C24.1459 21.3744 24.1653 21.4813 24.3549 21.4327Z" fill="#049646"/>
<path d="M22.6385 30.5154C22.6531 30.248 22.8476 30.0292 22.8574 29.7618C22.9108 29.7034 22.9643 29.6597 23.0616 29.6645C23.3825 29.6743 23.7034 29.6694 24.0243 29.6694C23.7812 29.8104 23.5429 29.966 23.2901 30.0924C23.1831 30.1459 23.1831 30.2042 23.222 30.2772C23.2852 30.4036 23.3679 30.5154 23.4408 30.637C23.4797 30.705 23.5429 30.6905 23.5867 30.6661C23.8055 30.5446 24.0243 30.4279 24.2285 30.2869C24.5932 30.0389 24.5883 30.0292 24.3403 29.6645C24.5737 29.6159 24.8217 29.7229 25.0502 29.6013C25.1134 29.6888 25.1766 29.7472 25.2739 29.6402C25.8282 29.6986 26.3922 29.6791 26.9465 29.718C28.0405 29.7909 29.1442 29.7375 30.2479 29.7326C30.739 29.7326 30.7488 29.7277 30.8849 30.2091C30.9578 30.4571 31.0599 30.7099 31.0259 30.9773C30.953 30.9725 30.88 30.9725 30.8071 30.9725C28.1718 30.9725 25.5364 30.9773 22.9011 30.9773C22.8087 30.8266 22.765 30.6467 22.6385 30.5154Z" fill="#F9E90A"/>
<path d="M39.0535 12.0874C39.0097 12.4764 39.0389 12.8654 39.034 13.2495C39.0291 18.4813 39.034 23.7082 39.0291 28.94C39.0291 29.0275 39.0243 29.1199 39.0243 29.2074C38.9902 29.2074 38.9562 29.2074 38.927 29.2074C38.9319 29.081 38.9416 28.9497 38.9416 28.8233C38.9416 23.6401 38.9416 18.457 38.9416 13.269C38.9416 13.0988 38.9319 12.9286 38.927 12.7584C38.9465 12.7147 38.9368 12.6806 38.893 12.6563C38.9659 12.5737 38.927 12.4716 38.9416 12.3792C38.9611 12.2673 38.893 12.1361 39.0048 12.0388C39.0243 12.0583 39.0389 12.0729 39.0535 12.0874Z" fill="#049646"/>
<path d="M33.5543 20.9903C33.6029 20.9466 33.6467 20.8979 33.6564 20.8299C33.7585 20.6305 33.9044 20.6889 34.0502 20.7667C34.3274 20.966 34.2836 21.1702 34.0697 21.3793C34.06 21.389 34.06 21.4085 34.0551 21.4279C33.8801 21.5641 33.7731 21.7634 33.6369 21.9336C33.6126 21.9433 33.5883 21.9579 33.564 21.9676C33.4084 22.0114 33.3695 21.8266 33.248 21.8072C32.966 21.6905 33.1313 21.5446 33.2188 21.4036C33.3647 21.2918 33.457 21.1362 33.5543 20.9903Z" fill="#FDFDFD"/>
<path d="M30.5251 25.4051C30.2772 25.6337 30.0243 25.8622 29.7861 26.1004C29.684 26.2025 29.6256 26.2123 29.5235 26.0956C29.2366 25.7649 29.2318 25.7649 29.5478 25.4586C29.6985 25.3128 29.8639 25.1815 30 25.0259C30.107 24.9043 30.175 24.9286 30.2626 25.0356C30.3404 25.128 30.4376 25.2009 30.5251 25.2884C30.5251 25.3225 30.5251 25.3614 30.5251 25.4051Z" fill="#FDFDFD"/>
<path d="M22.021 31.5316C21.7001 31.5899 21.4716 31.2885 21.5883 30.9627C21.8655 30.9044 22.094 30.7293 22.3468 30.6175C22.4392 30.5786 22.5219 30.4959 22.6337 30.5154C22.7601 30.6467 22.8039 30.8266 22.8962 30.9821C22.8914 31.0065 22.8865 31.0308 22.8817 31.0551C22.6094 31.235 22.2787 31.3225 22.021 31.5316Z" fill="#FDFDFD"/>
<path d="M36.7974 15.9434C37.0162 15.9142 37.1475 16.0941 37.3226 16.1719C37.3906 16.2011 37.342 16.274 37.3128 16.3177C37.1281 16.6484 36.9384 16.9741 36.7537 17.3048C36.6078 17.2221 36.4619 17.1346 36.3161 17.0519C36.3063 17.0422 36.2918 17.0276 36.282 17.013C36.248 16.9693 36.282 16.9255 36.2772 16.8818C36.2966 16.8234 36.3161 16.7602 36.3355 16.7019C36.5495 16.4831 36.6321 16.1865 36.7974 15.9434Z" fill="#FDFDFD"/>
<path d="M39.0535 12.0876C39.0389 12.073 39.0243 12.0584 39.0049 12.039C38.9562 11.9758 38.8736 11.9806 38.8055 11.966C38.5916 11.9174 38.5575 11.8202 38.6402 11.6111C38.7569 11.3145 38.825 10.9985 38.9173 10.6921C38.9562 10.7019 38.9951 10.7067 39.0292 10.7164C39.5154 10.8526 39.5154 10.8526 39.3793 11.334C39.3209 11.543 39.248 11.7472 39.1896 11.9563C39.1702 12.039 39.1507 12.0973 39.0535 12.0876Z" fill="#FDFDFD"/>
<path d="M30.9821 24.8753C30.9676 24.851 30.9481 24.8266 30.9335 24.8023C30.846 24.6662 30.6126 24.5933 30.6418 24.4328C30.6612 24.3015 30.8314 24.1945 30.9335 24.0779C30.953 24.0438 30.9724 24.0146 30.9919 23.9806C31.1718 23.8736 31.2544 23.6743 31.4197 23.5527C31.9206 23.9369 31.9206 23.932 31.5024 24.3842C31.4586 24.4279 31.4052 24.4717 31.4052 24.5446C31.2301 24.6127 31.1766 24.8315 30.9821 24.8753Z" fill="#FDFDFD"/>
<path d="M28.7747 26.2026C28.7844 26.2172 28.7942 26.2318 28.8039 26.2415C29.1977 26.6402 29.1977 26.6402 28.7844 26.9855C28.7261 27.0389 28.6677 27.0924 28.6045 27.1459C28.4927 27.2432 28.3906 27.3987 28.2593 27.4279C28.0989 27.4668 28.0746 27.2091 27.9287 27.1605C27.9092 27.0681 27.7585 26.9855 27.919 26.8882C28.0648 26.8007 28.1961 26.6937 28.3079 26.5624C28.3225 26.543 28.342 26.5235 28.3566 26.5041C28.5024 26.4117 28.5997 26.2561 28.7747 26.2026Z" fill="#FDFDFD"/>
<path d="M25.376 29.5915C25.3371 29.6013 25.2885 29.5915 25.269 29.645C25.1766 29.752 25.1086 29.6936 25.0454 29.6061C25.0308 29.6013 25.021 29.5964 25.0065 29.5915C24.9919 29.47 24.9189 29.3873 24.8363 29.3095C24.7828 29.2171 24.8266 29.1685 24.9043 29.115C25.0405 29.0324 25.1669 28.9303 25.2982 28.8379C25.4538 28.7941 25.5656 28.6872 25.6872 28.5851C25.7018 28.5705 25.7163 28.5559 25.7309 28.5413C25.8525 28.5024 25.8914 28.6045 25.9497 28.6726C26.0081 28.7455 26.0324 28.8428 26.1296 28.8768C26.1345 28.94 26.1345 29.0032 26.1394 29.0664C26.0178 29.1442 25.8914 29.222 25.7698 29.2949C25.6434 29.4019 25.5073 29.4943 25.376 29.5915Z" fill="#FDFDFD"/>
<path d="M24.8363 29.3097C24.9189 29.3875 24.9919 29.475 25.0065 29.5917C24.7731 29.6014 24.5397 29.6063 24.3063 29.616C24.2285 29.582 24.1604 29.5917 24.0924 29.6403C24.0146 29.5771 23.9222 29.6063 23.8347 29.6063C23.5478 29.5965 23.256 29.6306 22.9692 29.5771C23.1102 29.441 23.2366 29.2805 23.4651 29.3C23.9222 29.3048 24.3792 29.3097 24.8363 29.3097Z" fill="#F9E90A"/>
<path d="M22.8817 31.0551C22.8866 31.0308 22.8914 31.0065 22.8963 30.9822C25.5316 30.9822 28.167 30.9773 30.8023 30.9773C30.8752 30.9773 30.9482 30.9822 31.0211 30.9822C30.7828 30.987 30.5397 30.9967 30.3015 30.9967C27.9676 30.9967 25.6289 30.9967 23.295 31.0016C23.1734 31.0016 23.0373 30.953 22.9255 31.06C22.9109 31.06 22.8963 31.0551 22.8817 31.0551Z" fill="#C0C2C2"/>
<path d="M39.0583 9.99687C39.141 9.89476 39.0389 9.68569 39.1848 9.65651C39.3306 9.62734 39.5057 9.67596 39.6564 9.72458C39.8946 9.79752 39.7099 9.9677 39.7099 10.0893C39.7099 10.1962 39.6564 10.2643 39.5202 10.2108C39.3695 10.1525 39.2091 10.1184 39.0583 10.0795C39.0535 10.0504 39.0535 10.0212 39.0583 9.99687Z" fill="#FDFDFD"/>
<path d="M39.0243 9.38902C38.927 9.30636 38.8055 9.34526 38.6985 9.33067C38.7034 9.31608 38.7131 9.3015 38.7228 9.28691C38.7326 9.27719 38.7471 9.26746 38.7569 9.25774C38.7569 9.25774 38.752 9.24315 38.7471 9.24315C38.2852 9.24801 37.8185 9.19939 37.3565 9.26746C37.3176 9.27719 37.2787 9.29177 37.235 9.3015C37.235 9.27719 37.235 9.25774 37.235 9.23343C37.3663 9.15077 37.517 9.19453 37.658 9.18967C38.0518 9.1848 38.4457 9.19453 38.8395 9.1848C39.0097 9.17508 39.0632 9.22856 39.0243 9.38902Z" fill="#049646"/>
<path d="M36.3015 12.88C36.2917 12.8848 36.2772 12.8945 36.2674 12.8994C36.2042 12.9091 36.1459 12.9237 36.0827 12.9334C36.1264 12.7681 35.9952 12.8411 35.9417 12.8362C35.4895 12.8265 35.0373 12.8265 34.59 12.8216C34.8914 12.7389 35.1977 12.8022 35.4992 12.7876C35.718 12.7778 35.9368 12.7827 36.1556 12.7827C36.214 12.7876 36.3112 12.7487 36.3015 12.88Z" fill="#049646"/>
<path d="M30.7245 15.8994C30.7245 15.9189 30.7196 15.9432 30.7196 15.9626C30.2334 15.9626 29.7471 15.9626 29.2609 15.9626C29.2609 15.9432 29.2609 15.9189 29.2609 15.8994C29.7471 15.8994 30.2334 15.8994 30.7245 15.8994Z" fill="#049646"/>
<path d="M20.6986 32.3972C20.6548 32.2561 20.684 32.1054 20.684 31.9644C20.684 24.3064 20.684 16.6532 20.684 8.99521C20.684 8.90769 20.6888 8.8153 20.6888 8.72778C20.6937 8.83961 20.7034 8.95145 20.7034 9.06328C20.7034 16.8185 20.7034 24.5738 20.7083 32.3291C20.7034 32.3485 20.6986 32.3728 20.6986 32.3972Z" fill="#C0C2C2"/>
<path d="M38.9319 29.2075C38.8006 29.2075 38.6645 29.2075 38.5332 29.2026C38.5284 29.0811 38.5235 28.9595 38.5235 28.838C38.5235 23.9271 38.5235 19.0114 38.5235 14.1005C38.5235 14.013 38.504 13.9255 38.4943 13.838C38.6159 13.4684 38.752 13.1038 38.9271 12.7585C38.9319 12.9287 38.9417 13.0989 38.9417 13.2691C38.9417 18.4522 38.9417 23.6354 38.9417 28.8234C38.9465 28.9547 38.9368 29.0811 38.9319 29.2075Z" fill="#66C3CF"/>
<path d="M36.3209 17.0518C36.4668 17.1344 36.6126 17.2219 36.7585 17.3046C36.7585 21.209 36.7634 25.1085 36.7634 29.0129C36.7634 29.2949 36.7293 29.3095 36.3209 29.2414C36.3209 25.5364 36.316 21.8313 36.316 18.1263C36.3355 18.0096 36.5397 17.8929 36.3258 17.7665C36.3209 17.5283 36.3209 17.29 36.3209 17.0518Z" fill="#66C3CF"/>
<path d="M35.8833 28.7795C35.9076 28.5461 35.8395 28.3176 35.8395 28.0793C35.8444 25.1426 35.8444 22.2106 35.8444 19.2738C35.8444 19.1377 35.8347 19.0015 35.8347 18.8605C35.9319 18.6223 36.0875 18.4229 36.2334 18.2139C36.2966 18.3208 36.2723 18.4375 36.2723 18.5445C36.2723 20.3727 36.2723 22.2009 36.2723 24.0291C36.2723 25.7552 36.2674 27.4764 36.2674 29.2025C36.2528 29.2025 36.2382 29.2074 36.2285 29.2122C36.1458 29.2122 36.0924 29.1879 36.0972 29.0858C36.1021 29.0032 36.0729 28.9254 35.9854 28.8913C35.9708 28.8427 35.8687 28.8524 35.8833 28.7795Z" fill="#66C3CF"/>
<path d="M38.5284 10.3808C38.5867 10.1912 38.5429 9.99672 38.5527 9.80223C38.5575 9.69526 38.5624 9.58343 38.6256 9.50077C38.6742 9.43756 38.7423 9.35004 38.8444 9.38407C38.9368 9.41811 38.8979 9.50563 38.9028 9.5737C38.9125 9.94323 38.9173 10.3176 38.9222 10.6872C38.8298 10.9935 38.7617 11.3095 38.6451 11.6061C38.5673 11.8103 38.6013 11.9076 38.8104 11.9611C38.8784 11.9756 38.9562 11.9708 39.0097 12.034C38.8979 12.1312 38.966 12.2625 38.9465 12.3743C38.9319 12.4667 38.9708 12.5688 38.8979 12.6515C38.752 12.6466 38.6305 12.5883 38.5089 12.5105C38.5138 11.8055 38.5186 11.0956 38.5284 10.3808Z" fill="#66C3CF"/>
<path d="M37.7066 14.2317C37.8622 14.3046 38.0227 14.3727 38.1783 14.4554C38.2366 14.4845 38.188 14.5429 38.1685 14.5818C38.0275 14.8784 37.8817 15.175 37.7455 15.4764C37.6969 15.5883 37.6483 15.6126 37.5267 15.5542C37.1037 15.3451 37.1037 15.35 37.3079 14.9319C37.4003 14.7422 37.4781 14.5526 37.5705 14.363C37.5948 14.3046 37.6142 14.2317 37.7066 14.2317Z" fill="#FDFDFD"/>
<path d="M38.5089 12.5202C38.6256 12.5931 38.752 12.6563 38.8979 12.6612C38.9368 12.6855 38.9465 12.7195 38.9319 12.7633C38.7569 13.1085 38.6207 13.4732 38.4992 13.8427C38.3047 13.8573 38.1588 13.726 37.9886 13.6628C37.9011 13.6287 37.9254 13.5655 37.9497 13.5072C38.0713 13.2009 38.1977 12.8994 38.3047 12.5931C38.3484 12.4521 38.4262 12.5007 38.5089 12.5202Z" fill="#FDFDFD"/>
<path d="M37.3858 10.6629C37.3469 10.5024 37.449 10.3371 37.2302 10.3225C37.1816 10.3177 37.2059 10.2836 37.2253 10.2545C37.3274 10.1232 37.4295 9.99191 37.5268 9.85091C37.5754 9.77797 37.6094 9.79742 37.6532 9.85091C37.7358 9.95301 37.8136 10.0503 37.8963 10.1475C37.9692 10.2302 38.0616 10.2885 37.8623 10.3469C37.7407 10.3809 37.8088 10.5511 37.8136 10.6532C37.8282 10.8671 37.7553 10.9352 37.5414 10.9255C37.2739 10.9206 37.4101 10.7261 37.3858 10.6629Z" fill="#F9E90A"/>
<path d="M37.0551 9.45694C37.0697 9.34997 37.2107 9.38887 37.2399 9.29649C37.2788 9.28676 37.3177 9.27218 37.3614 9.26245C37.8185 9.27218 38.2707 9.27704 38.7277 9.28676C38.718 9.30135 38.7131 9.31594 38.7034 9.33052C38.611 9.35483 38.5284 9.38401 38.4652 9.4618C37.9935 9.45694 37.5219 9.45694 37.0551 9.45694Z" fill="#66C3CF"/>
<path d="M27.6369 27.9336C27.5883 27.9434 27.5543 27.9677 27.5543 28.0212L27.5397 28.0309C27.4716 28.0503 27.4084 28.0795 27.3744 28.1427C27.3744 28.1427 27.3792 28.1427 27.3792 28.1378C27.3549 28.1573 27.3306 28.1719 27.3063 28.1913C27.2771 28.2156 27.248 28.2448 27.2188 28.2691C27.1215 28.3372 27.0048 28.3907 26.927 28.4782C26.752 28.6678 26.6548 28.5949 26.5332 28.4199C26.2852 28.0552 26.3047 28.167 26.6159 27.9239C26.8201 27.7683 27.0292 27.6127 27.2285 27.4523C27.3112 27.3842 27.3549 27.3891 27.4133 27.4814C27.4765 27.5835 27.5591 27.6759 27.6321 27.7683C27.671 27.8267 27.7001 27.8753 27.6369 27.9336Z" fill="#FDFDFD"/>
<path d="M25.7747 29.3047C25.8963 29.2269 26.0227 29.1491 26.1443 29.0762C26.1588 29.154 26.1588 29.2318 26.1345 29.3096C26.013 29.3047 25.8914 29.3047 25.7747 29.3047Z" fill="#66C3CF"/>
<path d="M33.6418 21.9385C33.778 21.7684 33.8801 21.569 34.06 21.4329C34.1038 21.6662 34.0746 21.8996 34.0794 22.133C34.0843 24.0633 34.0794 25.9985 34.0794 27.9288C34.0697 27.9288 34.0649 27.9337 34.0551 27.9385C33.6418 27.9823 33.6418 27.9823 33.6418 27.5739C33.6418 25.6922 33.6418 23.8154 33.6418 21.9385Z" fill="#66C3CF"/>
<path d="M36.0826 12.9335C36.1459 12.9237 36.2042 12.9091 36.2674 12.8994C36.2674 14.1393 36.2674 15.3792 36.2723 16.6239C36.2723 16.7114 36.282 16.7989 36.2869 16.8864C36.2917 16.9302 36.2528 16.974 36.2917 17.0177C36.2577 17.2608 36.2723 17.504 36.282 17.7471C36.1264 17.7179 36.0292 17.538 35.8541 17.5574C35.8541 16.1279 35.8541 14.7033 35.8541 13.2738C35.8541 13.1911 35.8638 13.1134 35.8687 13.0307L35.8736 13.0258C35.9222 13.0356 35.966 13.0404 35.9854 12.9821H35.9903C36.034 12.9918 36.0681 12.9821 36.0826 12.9383V12.9335Z" fill="#66C3CF"/>
<path d="M35.3922 19.5025C35.3727 19.5365 35.3436 19.5851 35.3144 19.6337C35.1442 19.8817 34.974 20.1248 34.8087 20.3728C34.7407 20.4749 34.6774 20.4944 34.5705 20.4214C34.1718 20.1637 34.1669 20.1686 34.4392 19.7796C34.5705 19.5948 34.7018 19.4101 34.8282 19.2204C34.8865 19.1329 34.9351 19.1135 35.0178 19.1864C35.1102 19.2642 35.2172 19.3226 35.3193 19.3906C35.3582 19.4198 35.3922 19.4392 35.3922 19.5025Z" fill="#FDFDFD"/>
<path d="M35.8444 17.5577C36.0243 17.5382 36.1167 17.7132 36.2723 17.7473C36.2869 17.7521 36.3015 17.7619 36.3209 17.7667C36.5349 17.8931 36.3307 18.005 36.3112 18.1265C36.282 18.1557 36.2577 18.1897 36.2285 18.2189C36.0875 18.428 35.932 18.6322 35.8298 18.8656C35.718 18.885 35.3193 18.6906 35.2901 18.5982C35.2658 18.5252 35.3193 18.4766 35.3533 18.4231C35.4846 18.2141 35.6159 18.0001 35.752 17.7959C35.8007 17.723 35.8396 17.65 35.8444 17.5577Z" fill="#FDFDFD"/>
<path d="M34.9789 14.6936C34.8233 14.7228 34.7504 14.6742 34.7455 14.4943C34.7406 14.3581 34.8476 14.1685 34.624 14.0713C34.5753 14.0518 34.658 13.9643 34.692 13.9157C34.9546 13.5413 34.9595 13.5364 35.2269 13.8768C35.2852 13.9497 35.4603 14.0226 35.2269 14.1296C35.1345 14.1734 35.1928 14.3533 35.1928 14.4748C35.1977 14.6255 35.1685 14.7325 34.9789 14.6936Z" fill="#F9E90A"/>
<path d="M33.5543 20.9902C33.4522 21.1361 33.3646 21.2917 33.2236 21.4084C33.2188 21.0534 33.209 20.6985 33.209 20.3387C33.209 18.6223 33.209 16.9059 33.209 15.1896C33.209 15.102 33.2042 15.0096 33.1993 14.9221C33.1847 14.7276 33.3646 14.7325 33.4667 14.6693C33.5543 14.6207 33.5445 14.7179 33.5494 14.7617C33.5543 14.8978 33.5494 15.034 33.5494 15.175C33.5543 17.115 33.5543 19.0502 33.5543 20.9902Z" fill="#66C3CF"/>
<path d="M33.2577 21.812C33.3793 21.8315 33.423 22.0162 33.5738 21.9725C33.5689 22.06 33.5543 22.1475 33.5543 22.235C33.5543 24.0195 33.5543 25.8039 33.5543 27.5883C33.5543 27.9482 33.5543 27.9482 33.1896 27.9336C33.2966 27.7585 33.2139 27.5786 33.2139 27.3987C33.2139 25.9546 33.2139 24.5154 33.2139 23.0713C33.2139 22.6872 33.2139 22.3031 33.2139 21.919C33.2091 21.8752 33.2188 21.8412 33.2577 21.812Z" fill="#66C3CF"/>
<path d="M30.9822 24.8753C31.1767 24.8364 31.2302 24.6127 31.4003 24.5447C31.4441 25.1038 31.4149 25.663 31.4149 26.2173C31.4198 26.791 31.4101 27.3648 31.4101 27.9434C30.9773 27.958 30.9725 27.958 30.9725 27.5204C30.9773 26.6403 30.9773 25.7554 30.9822 24.8753Z" fill="#66C3CF"/>
<path d="M32.6645 22.1135C32.8249 22.2545 32.9757 22.3664 33.0924 22.5025C33.175 22.5997 33.0292 22.6484 32.9854 22.7067C32.8104 22.9352 32.611 23.1492 32.4311 23.3728C32.3582 23.4652 32.3095 23.4895 32.2026 23.3972C31.8622 23.086 31.8574 23.0908 32.1491 22.7408C32.2852 22.5754 32.4311 22.4101 32.5672 22.2448C32.5964 22.2059 32.6207 22.167 32.6645 22.1135Z" fill="#FDFDFD"/>
<path d="M32.0908 15.7147C31.9498 15.7002 31.8574 15.6613 32.013 15.5251C32.0178 15.5202 32.0227 15.5105 32.0276 15.5057C32.3339 15.1021 32.4117 15.107 32.6548 15.564C32.6694 15.5932 32.6742 15.6224 32.684 15.6515C32.3533 15.7536 32.6062 16.0551 32.4846 16.2301C32.4797 16.235 32.4749 16.2399 32.47 16.2496C32.1297 16.2447 32.1345 16.2447 32.1248 15.8898C32.1297 15.8266 32.1588 15.7585 32.0908 15.7147Z" fill="#F9E90A"/>
<path d="M28.3031 26.5625C28.1961 26.6938 28.0599 26.8007 27.9141 26.8883C27.9141 23.4653 27.9141 20.0374 27.9189 16.6144C27.9189 16.5366 27.8655 16.4442 27.987 16.3858C28.2593 16.2497 28.2836 16.2643 28.2836 16.5803C28.2836 19.8283 28.2836 23.0763 28.2836 26.3194C28.2885 26.402 28.2982 26.4798 28.3031 26.5625Z" fill="#66C3CF"/>
<path d="M27.9287 27.1604C28.0794 27.209 28.0989 27.4667 28.2593 27.4278C28.3906 27.3938 28.4927 27.2431 28.6046 27.1458C28.6629 27.0923 28.7213 27.0388 28.7845 26.9854C28.7796 27.3063 28.7747 27.6223 28.7699 27.9432C28.4879 27.9432 28.2107 27.9432 27.9287 27.9432C27.9287 27.6807 27.9287 27.423 27.9287 27.1604Z" fill="#66C3CF"/>
<path d="M26.6888 17.5672C26.6791 17.4797 26.7569 17.3386 26.5673 17.3241C26.5576 17.3241 26.543 17.2754 26.5478 17.2657C26.6597 17.1101 26.7715 16.9545 26.8979 16.8087C26.9271 16.7746 26.966 16.8427 26.9854 16.867C27.0535 16.9448 27.1167 17.0275 27.1751 17.115C27.2286 17.1976 27.4279 17.2754 27.1605 17.363C27.0827 17.3873 27.1313 17.5574 27.1313 17.6547C27.1313 17.8006 27.141 17.9124 26.9271 17.9075C26.7277 17.9027 26.6694 17.82 26.6888 17.645C26.6888 17.6255 26.6888 17.6012 26.6888 17.5672Z" fill="#F9E90A"/>
<path d="M26.4894 16.337C26.9805 16.1668 27.4911 16.2932 27.9919 16.2495C27.5056 16.4683 26.9903 16.3078 26.4894 16.337Z" fill="#66C3CF"/>
<path d="M29.6694 17.8202C29.4895 17.8542 29.4652 17.7764 29.4506 17.6208C29.436 17.4847 29.577 17.2708 29.3144 17.2027C29.2707 17.193 29.295 17.1443 29.3096 17.1249C29.402 16.9985 29.4992 16.8721 29.5964 16.7408C29.6305 16.6922 29.6791 16.6824 29.718 16.7262C29.825 16.8575 29.9222 16.9887 30.0243 17.1249C30.034 17.1395 30.0292 17.1881 30.0243 17.1881C29.7569 17.2708 29.8833 17.4896 29.8736 17.6549C29.8639 17.8251 29.7909 17.8542 29.6694 17.8202Z" fill="#F9E90A"/>
<path d="M24.3549 21.4328C24.1653 21.4814 24.1507 21.3744 24.141 21.2188C24.1361 21.0875 24.1799 20.9514 24.0243 20.8201C23.9368 20.7472 24.2091 20.5722 24.2723 20.4117C24.282 20.3825 24.3209 20.2756 24.389 20.3485C24.5105 20.4846 24.6224 20.6354 24.7342 20.7764C24.7537 20.8007 24.7488 20.8298 24.7245 20.8347C24.4522 20.8833 24.6078 21.0924 24.5981 21.2237C24.5786 21.4036 24.5397 21.4863 24.3549 21.4328Z" fill="#F9E90A"/>
<path d="M24.0195 29.6694C24.0438 29.6596 24.0681 29.6499 24.0924 29.645C24.1605 29.5964 24.2285 29.5867 24.3063 29.6207C24.3161 29.6353 24.3258 29.6548 24.3404 29.6694C24.5884 30.034 24.5932 30.0437 24.2285 30.2917C24.0243 30.4327 23.8055 30.5494 23.5867 30.671C23.543 30.6953 23.4798 30.7099 23.4409 30.6418C23.3728 30.5202 23.2853 30.4036 23.2221 30.282C23.1832 30.2091 23.1832 30.1507 23.2901 30.0972C23.543 29.966 23.7764 29.8104 24.0195 29.6694Z" fill="#FDFDFD"/>
<path d="M31.094 30.7584C31.0065 30.4132 30.9336 30.1215 30.8606 29.8298C30.846 29.7811 30.8703 29.752 30.9141 29.7471C30.9287 29.7422 30.9481 29.7422 30.9627 29.7422C31.3857 29.6742 31.449 29.7422 31.3177 30.1507C31.2642 30.3354 31.2253 30.5251 31.094 30.7584Z" fill="#F9E90A"/>
<path d="M35.7958 12.9675C35.3776 12.9675 34.9644 12.9675 34.5462 12.9675C34.5462 12.9384 34.5462 12.9141 34.5462 12.8849C34.9644 12.8752 35.3776 12.8606 35.7958 12.8946C35.7958 12.9189 35.7958 12.9432 35.7958 12.9675Z" fill="#66C3CF"/>
<path d="M35.9805 12.9821C35.9611 13.0453 35.9173 13.0405 35.8687 13.0259C35.893 12.9918 35.9319 12.9773 35.9805 12.9821Z" fill="#049646"/>
<path d="M36.0778 12.9336C36.0632 12.9822 36.0292 12.9871 35.9854 12.9774C36 12.9385 36.034 12.9336 36.0778 12.9336Z" fill="#049646"/>
</g>
<defs>
<clipPath id="clip0_17_1027">
<rect width="62" height="51" fill="white"/>
</clipPath>
</defs>
</svg>
