<svg width="18" height="18" viewBox="0 0 18 18" fill="none" xmlns="http://www.w3.org/2000/svg">
<g clip-path="url(#clip0_14_46)">
<path d="M7.24444 14.4827C8.8533 14.4828 10.4161 13.946 11.6854 12.9574L16.474 17.746C16.8317 18.0914 17.4017 18.0815 17.7472 17.7238C18.0842 17.3748 18.0842 16.8216 17.7472 16.4727L12.9586 11.6842C15.4118 8.52625 14.8406 3.97758 11.6827 1.5244C8.52475 -0.92878 3.97612 -0.357519 1.52294 2.80039C-0.930245 5.95829 -0.358984 10.507 2.79892 12.9601C4.07027 13.9478 5.63452 14.4836 7.24444 14.4827ZM3.39686 3.39556C5.52184 1.27054 8.96711 1.2705 11.0921 3.39548C13.2171 5.52046 13.2172 8.96573 11.0922 11.0907C8.96723 13.2158 5.52196 13.2158 3.39694 11.0908C3.3969 11.0908 3.3969 11.0908 3.39686 11.0907C1.27188 8.98125 1.25936 5.54854 3.36886 3.42356C3.37818 3.4142 3.3875 3.40488 3.39686 3.39556Z" fill="#333333"/>
</g>
<defs>
<clipPath id="clip0_14_46">
<rect width="18" height="18" fill="white"/>
</clipPath>
</defs>
</svg>
